<svg id="Layer_1" data-name="Layer 1" xmlns="http://www.w3.org/2000/svg" viewBox="0 0 243.11 100.05"><defs><style>.cls-1{fill:#231f20;}.cls-2{fill:#fff;}</style></defs><title>iriepics_photography_reversed_2</title><rect class="cls-1" x="4.78" y="4.34" width="233.56" height="90.05"/><path class="cls-2" d="M240.83,96.88H2.28v-95H240.83Zm-233.55-5H235.83v-85H7.28Z"/><path class="cls-2" d="M22.67,33v2.43H20.24V33Zm0,5.2V50.36H20.24V38.21Z"/><path class="cls-2" d="M25.12,38.21h2.42l-.14,1.7.05,0A2.87,2.87,0,0,1,30.19,38q2.67,0,2.67,4v.85H30.57c0-.33,0-.54,0-.65,0-1.29-.42-1.94-1.26-1.94-1.21,0-1.81,1-1.81,2.89v7.15H25.12Z"/><path class="cls-2" d="M36.63,33v2.43H34.21V33Zm0,5.2V50.36H34.21V38.21Z"/><path class="cls-2" d="M45.56,46.47H48v.47q0,3.56-4.46,3.56-3,0-4-1.23T38.65,44c0-2.36.33-3.95,1-4.76s1.92-1.22,3.8-1.22,3,.4,3.64,1.19S48,41.6,48,43.92v.89H41.13c0,.27,0,.44,0,.53a4.32,4.32,0,0,0,.46,2.39,2.24,2.24,0,0,0,1.84.6A2.92,2.92,0,0,0,45.15,48,2,2,0,0,0,45.56,46.47Zm0-3.44v-.49a2.88,2.88,0,0,0-.42-1.88,2.71,2.71,0,0,0-1.82-.43,2.24,2.24,0,0,0-1.77.52A4.18,4.18,0,0,0,41.15,43Z"/><path class="cls-2" d="M50,38.21h2.47L52.4,40h.05a3.27,3.27,0,0,1,3.28-2,3.34,3.34,0,0,1,3.05,1.31c.55.88.83,2.48.83,4.8s-.28,4.08-.83,5a3.29,3.29,0,0,1-3.06,1.35,3,3,0,0,1-3.12-1.91h0v7H50Zm4.79,2.15c-.93,0-1.54.25-1.82.75a7.64,7.64,0,0,0-.42,3.17A7.14,7.14,0,0,0,53,47.42a2,2,0,0,0,1.86.78,2,2,0,0,0,1.85-.74,7.52,7.52,0,0,0,.42-3.16,7.51,7.51,0,0,0-.43-3.22C56.43,40.6,55.8,40.36,54.81,40.36Z"/><path class="cls-2" d="M64.07,33v2.43H61.64V33Zm0,5.2V50.36H61.64V38.21Z"/><path class="cls-2" d="M72.91,45.72h2.42v.42L75.18,48q-.44,2.52-4.35,2.52c-1.91,0-3.18-.41-3.8-1.24s-1-2.49-1-5,.32-4.08,1-4.93,1.85-1.27,3.67-1.27,2.94.31,3.56.92.93,1.78.93,3.5h-2.4a1.85,1.85,0,0,0-2.05-2.12c-1,0-1.58.23-1.83.67a8.92,8.92,0,0,0-.37,3.31A7.5,7.5,0,0,0,69,47.54c.27.44.94.66,2,.66a2.07,2.07,0,0,0,1.61-.45A3.81,3.81,0,0,0,72.91,45.72Z"/><path class="cls-2" d="M85.58,41.55H83.2c0-.1,0-.17,0-.23,0-.58-.19-.94-.42-1.09A4,4,0,0,0,81.08,40c-1.27,0-1.9.49-1.9,1.47,0,.67.11,1.07.34,1.19a7.88,7.88,0,0,0,2.26.31,6.31,6.31,0,0,1,3.38.82A3.59,3.59,0,0,1,86,46.57a3.8,3.8,0,0,1-1,3.08,6,6,0,0,1-3.75.86,5.94,5.94,0,0,1-3.55-.77,3.59,3.59,0,0,1-.95-2.9v-.31h2.52a1.91,1.91,0,0,0-.06.41c-.1,1.08.59,1.61,2.08,1.61s2.3-.53,2.3-1.6S83,45.42,82,45.42c-2.17,0-3.6-.25-4.29-.74s-1-1.51-1-3.06a3.45,3.45,0,0,1,.94-2.82,6.21,6.21,0,0,1,3.63-.74,5.76,5.76,0,0,1,3.41.71A3.46,3.46,0,0,1,85.58,41.55Z"/><path class="cls-2" d="M94.31,42.74c0-1.65,0-3,0-3.51s-.11-.71-.5-.8l-.5-.08c-.18,0-.25-.07-.25-.17s0-.21.32-.21c.55,0,2.14.06,2.35.06.7,0,1.49-.06,2.14-.06,2,0,3,.48,3.63,1.16a3.31,3.31,0,0,1,.81,2.22,3.91,3.91,0,0,1-4.11,3.94,1.88,1.88,0,0,1-.46-.06c-.09,0-.16-.1-.16-.17s0-.19.3-.19c1.26,0,1.7-1.07,1.7-2.49a4.09,4.09,0,0,0-.68-2.7A1.54,1.54,0,0,0,97.53,39c-.17,0-.25,0-.31,0s-.23.13-.23.43v6.18c0,1.25,0,2.75.08,3.44,0,.47.16.79.59.89a3.09,3.09,0,0,0,.59.08c.22,0,.28.07.28.2s-.08.18-.3.18c-1,0-2.63-.06-2.71-.06s-1.72.06-2.16.06c-.24,0-.32-.08-.32-.19s.13-.18.29-.19l.43,0c.27-.08.41-.29.46-1s.09-1.81.09-3.42Z"/><path class="cls-2" d="M111.72,43s.09,0,.09-.1v-.34c0-2.56,0-2.77,0-3.3s-.14-.73-.62-.82l-.49-.06a.25.25,0,0,1-.27-.19c0-.11.06-.19.28-.19.85,0,2.23.06,2.31.06s1.84-.06,2.45-.06c.26,0,.29.08.29.19s0,.19-.22.19a3.51,3.51,0,0,0-.45.08c-.36.06-.47.3-.52.83s-.05.92-.05,3.48v2.89c0,1.59,0,2.77.08,3.44s.18.83.6.91c.2,0,.47,0,.59.06s.27.09.27.2-.14.18-.32.18c-1,0-2.53-.06-2.76-.06s-1.35.06-2.08.06c-.27,0-.3-.1-.3-.19s.08-.19.26-.19a2.23,2.23,0,0,0,.41-.06c.35-.08.44-.38.49-.93s.08-1.64.08-3.23V44.56a.1.1,0,0,0-.09-.11h-4.19s-.1,0-.1.11v1.75c0,1.58,0,2.09.08,2.78,0,.49.22.81.65.87a3.91,3.91,0,0,0,.54.08c.19,0,.27.09.27.2s0,.18-.27.18c-.79,0-2.67-.06-2.74-.06s-1.73.06-2.16.06c-.16,0-.3-.06-.3-.18s0-.19.23-.2a3.53,3.53,0,0,0,.42-.06c.36-.06.49-.48.52-1,.06-.7.08-1.77.08-3.36V42.8c0-2.57,0-2.91,0-3.44s-.14-.86-.68-1c-.21,0-.26,0-.43-.06s-.24-.15-.24-.21.15-.17.3-.17c.85,0,2.11.06,2.43.06.59,0,1.68-.06,2.3-.06.27,0,.3.1.3.21s-.06.15-.25.17a2.05,2.05,0,0,0-.44.08c-.42.09-.48.49-.51.93s0,1.21,0,3.17v.34c0,.1,0,.1.1.1Z"/><path class="cls-2" d="M117.33,44.26c0-3.44,2-6.52,6.14-6.52a5.89,5.89,0,0,1,5.89,6.14c0,3.86-2.24,6.76-6,6.76C119.15,50.64,117.33,47.17,117.33,44.26Zm9,.38c0-2.51-.76-5.79-3.33-5.79-1.23,0-2.61.74-2.61,4.59,0,3,1,6.06,3.38,6.06C124.63,49.5,126.31,49.1,126.31,44.64Z"/><path class="cls-2" d="M136.81,45.63c0,1.25,0,2.71.06,3.42,0,.42.14.83.57.91A4.12,4.12,0,0,0,138,50c.26,0,.32.11.32.22s-.08.16-.33.16c-1,0-2.48-.06-2.68-.06s-1.73.06-2.16.06c-.24,0-.33,0-.33-.18s.12-.19.28-.2a4.49,4.49,0,0,0,.46-.06c.32-.08.41-.4.46-.88.06-.7.06-1.86.06-3.47V39.3c-.54,0-1.46,0-2.15,0s-1.05.28-1.23.95a2.47,2.47,0,0,1-.11.36c0,.11-.08.25-.17.25s-.14-.15-.13-.34c.08-.8.21-1.66.32-2.42,0-.24.11-.36.19-.36s.19.08.41.12a11.3,11.3,0,0,0,1.62.13h6.35a4.07,4.07,0,0,0,.86-.08c.27-.05.38-.09.46-.09s.14.09.14.57c0,.19-.1,1.9-.11,2.3s-.1.34-.18.34-.14-.1-.16-.29,0-.3,0-.4c-.05-.51-.22-.87-1-1-.51,0-1.27-.12-2.41-.12Z"/><path class="cls-2" d="M141.64,44.26c0-3.44,2-6.52,6.14-6.52a5.89,5.89,0,0,1,5.89,6.14c0,3.86-2.24,6.76-6,6.76C143.47,50.64,141.64,47.17,141.64,44.26Zm9,.38c0-2.51-.76-5.79-3.33-5.79-1.22,0-2.6.74-2.6,4.59,0,3,1,6.06,3.38,6.06C148.94,49.5,150.62,49.1,150.62,44.64Z"/><path class="cls-2" d="M166.14,48.72c0,1.09,0,1.2-.32,1.32a10.91,10.91,0,0,1-3.47.6c-4.13,0-6.84-2.12-6.84-6.46a6.1,6.1,0,0,1,2.6-5.35,7.08,7.08,0,0,1,4.14-1.09,13.65,13.65,0,0,1,2.24.21c.52.08,1,.19,1.41.21.14,0,.18.12.13.27a17.1,17.1,0,0,0-.18,3.09c0,.27-.06.37-.17.37s-.14-.18-.16-.31a3.49,3.49,0,0,0-.13-.66c-.17-1.28-1.47-2.07-3.54-2.07a2.82,2.82,0,0,0-2.49,1.21,6.15,6.15,0,0,0-.81,3.4c0,2.81,1.07,6,3.89,6a1.2,1.2,0,0,0,.84-.22.48.48,0,0,0,.14-.4V48c0-.64,0-1.27,0-1.9,0-1-.19-1.37-.71-1.44a5,5,0,0,0-.62-.08.24.24,0,0,1-.22-.23c0-.09.07-.15.3-.15,1,0,2.11,0,2.47,0,.56,0,1.49,0,2.37,0,.19,0,.31,0,.31.17s-.06.15-.22.21l-.38,0c-.36.06-.51.23-.54.8s-.06,1.42-.06,2.22Z"/><path class="cls-2" d="M169.67,42.74c0-2.56,0-2.81,0-3.34,0-.71-.28-.93-.58-1a4.7,4.7,0,0,0-.5-.08c-.17,0-.23-.09-.23-.19s0-.19.28-.19c.57,0,2,.06,2.21.06s1.73-.06,2.44-.06a5.74,5.74,0,0,1,3,.55,2.83,2.83,0,0,1,1.35,2.57,4.14,4.14,0,0,1-1.89,3.23,38.9,38.9,0,0,0,2.63,4.33c.73,1,1.06,1.25,1.51,1.33a3.26,3.26,0,0,0,.38.06.22.22,0,0,1,.22.2c0,.16-.16.18-.28.18h-1.24c-1.65,0-2.33-.19-2.86-.59a6.26,6.26,0,0,1-1.36-2c-.67-1.33-.91-1.88-1.18-2.37a.15.15,0,0,0-.16-.1l-.95,0c-.06,0-.11,0-.11.14v1c0,1.24,0,2,.06,2.53s.11.76.54.89a2.64,2.64,0,0,0,.65.12c.26,0,.26.11.26.2s-.07.18-.27.18c-1,0-2.65-.06-2.73-.06s-1.65.06-2.11.06c-.24,0-.29-.1-.29-.21s.1-.17.26-.17.33,0,.49-.06.41-.36.44-.95.08-1.79.08-3.4Zm2.62,1a.29.29,0,0,0,.13.24,2.47,2.47,0,0,0,1.17.23,1.34,1.34,0,0,0,.87-.26,2.86,2.86,0,0,0,.5-2c0-2.34-1.34-2.89-2.05-2.89a1.18,1.18,0,0,0-.52.06c-.07,0-.1.06-.1.19Z"/><path class="cls-2" d="M183,47.28c-.1,0-.15.12-.16.17l-.33,1a3.6,3.6,0,0,0-.24,1c0,.55.6.57,1,.61.2,0,.25.09.25.17s-.08.21-.27.21c-.7,0-1.17-.06-2-.06-.16,0-1.08.06-1.77.06-.22,0-.28-.08-.28-.19s.08-.19.25-.19c.69-.1,1.05-.33,1.46-1.45l3.81-9.72c.34-.88.49-1.13.67-1.13s.28.25.55.9c.35.93,2.81,7.1,3.76,9.61.5,1.22.75,1.65,1.29,1.75l.32,0c.17,0,.27.09.27.19s-.13.19-.29.19l-4.09-.06c-.19,0-.29-.08-.29-.17s.1-.15.19-.19.27-.08.19-.29l-.87-2.33a.15.15,0,0,0-.13-.1Zm2.82-1.5c.1,0,.1,0,.08-.08l-1.25-3.4c-.05-.09-.05,0-.08,0l-1.18,3.38c0,.06,0,.08.05.08Z"/><path class="cls-2" d="M193.07,42.74c0-1.65,0-3,0-3.51s-.11-.71-.51-.8l-.49-.08c-.19,0-.25-.07-.25-.17s0-.21.31-.21c.56,0,2.15.06,2.35.06.7,0,1.49-.06,2.14-.06,2,0,3,.48,3.64,1.16a3.31,3.31,0,0,1,.81,2.22,3.91,3.91,0,0,1-4.11,3.94,1.76,1.76,0,0,1-.46-.06c-.1,0-.16-.1-.16-.17s.05-.19.3-.19c1.25,0,1.7-1.07,1.7-2.49a4.15,4.15,0,0,0-.68-2.7,1.55,1.55,0,0,0-1.32-.68c-.18,0-.25,0-.32,0s-.22.13-.22.43v6.18c0,1.25,0,2.75.08,3.44,0,.47.16.79.59.89A3.1,3.1,0,0,0,197,50c.23,0,.29.07.29.2s-.08.18-.3.18c-1,0-2.64-.06-2.72-.06s-1.71.06-2.15.06c-.24,0-.32-.08-.32-.19s.12-.18.28-.19l.43,0c.27-.08.41-.29.46-1s.1-1.81.1-3.42Z"/><path class="cls-2" d="M210.47,43c.05,0,.1,0,.1-.1v-.34c0-2.56,0-2.77,0-3.3s-.14-.73-.61-.82l-.5-.06a.25.25,0,0,1-.27-.19c0-.11.07-.19.29-.19.84,0,2.22.06,2.3.06s1.84-.06,2.46-.06c.25,0,.29.08.29.19s-.05.19-.23.19a3.28,3.28,0,0,0-.44.08c-.37.06-.48.3-.53.83s0,.92,0,3.48v2.89c0,1.59,0,2.77.08,3.44s.17.83.6.91c.19,0,.46,0,.59.06s.27.09.27.2-.15.18-.32.18c-1,0-2.54-.06-2.76-.06s-1.35.06-2.08.06c-.27,0-.3-.1-.3-.19s.08-.19.25-.19A2,2,0,0,0,210,50c.35-.08.45-.38.5-.93s.08-1.64.08-3.23V44.56a.1.1,0,0,0-.1-.11h-4.19c-.05,0-.09,0-.09.11v1.75c0,1.58,0,2.09.07,2.78.05.49.23.81.66.87a3.52,3.52,0,0,0,.54.08c.19,0,.27.09.27.2s0,.18-.27.18c-.8,0-2.67-.06-2.75-.06s-1.73.06-2.16.06c-.16,0-.3-.06-.3-.18s.05-.19.24-.2a3.12,3.12,0,0,0,.41-.06c.37-.06.49-.48.52-1,.07-.7.08-1.77.08-3.36V42.8c0-2.57,0-2.91,0-3.44s-.15-.86-.69-1a3.85,3.85,0,0,0-.42-.06c-.23,0-.24-.15-.24-.21s.14-.17.3-.17c.84,0,2.11.06,2.43.06.58,0,1.68-.06,2.3-.06.27,0,.3.1.3.21s-.06.15-.25.17a2.29,2.29,0,0,0-.45.08c-.41.09-.48.49-.51.93s0,1.21,0,3.17v.34c0,.1,0,.1.09.1Z"/><path class="cls-2" d="M219.29,46.14a3.32,3.32,0,0,0-.42-1.75c-.63-1.35-1.92-3.85-2.39-4.65-.59-1.06-.73-1.18-1.21-1.29l-.3-.08c-.16,0-.21-.11-.21-.21s.12-.19.29-.19c.67,0,1.73.06,2.28.06.23,0,1.24-.06,2.18-.06.17,0,.27.08.27.17s-.05.17-.26.23c-.42.06-.52.19-.52.32a1.26,1.26,0,0,0,.14.46l2.18,4.52c1.05-2.22,1.57-3.42,1.84-4.1a2.34,2.34,0,0,0,.24-.76c0-.21-.07-.36-.56-.44-.13,0-.22-.07-.22-.21s.08-.19.32-.19c.6,0,1.09.06,1.68.06.17,0,1.39-.06,1.67-.06s.26,0,.26.15-.07.21-.26.23a2.14,2.14,0,0,0-.54.12,1.81,1.81,0,0,0-.83.81,46.14,46.14,0,0,0-2.71,5.46,5.87,5.87,0,0,0-.23,1.51v1.16c0,.25,0,.84,0,1.54,0,.4,0,.86.58,1a3.74,3.74,0,0,0,.81.1c.16,0,.24.09.24.19s-.05.19-.25.19c-1.05,0-2.35-.06-2.84-.06s-1.64.06-2.31.06c-.2,0-.28-.08-.28-.21s.06-.17.27-.17a2.37,2.37,0,0,0,.49-.08c.38-.11.49-.42.51-.89,0-.71,0-1.41,0-1.66Z"/><path class="cls-1" d="M243.11,100.05H0V0H243.11ZM1,99.05H242.11V1H1Z"/></svg>