<?xml version="1.0" encoding="utf-8"?>
<!-- Generator: Adobe Illustrator 23.0.1, SVG Export Plug-In . SVG Version: 6.00 Build 0)  -->
<svg version="1.1" id="Layer_1" xmlns="http://www.w3.org/2000/svg" xmlns:xlink="http://www.w3.org/1999/xlink" x="0px" y="0px"
	 viewBox="0 0 405.83 378.5" style="enable-background:new 0 0 405.83 378.5;" xml:space="preserve">
<style type="text/css">
	.st0{fill:#59CBF5;}
	.st1{fill:#FFFFFF;}
	.st2{fill:#FAA31A;}
</style>
<title>mg_logo</title>
<g>
	<path class="st0" d="M199.44,71.73c0,69.72,2,157.45,2,227.17c0,0.83,0.67,1.5,1.5,1.5s1.5-0.67,1.5-1.5c0-69.72-2-157.45-2-227.17
		c0-0.83-0.67-1.5-1.5-1.5S199.44,70.9,199.44,71.73z"/>
	<path class="st0" d="M121.3,189.68c53.94-0.22,107.88-0.22,161.81,0c0.83,0,1.5-0.67,1.5-1.5s-0.67-1.5-1.5-1.5
		c-53.94-0.2-107.88-0.2-161.81,0c-0.83,0-1.5,0.67-1.5,1.5S120.47,189.68,121.3,189.68C121.3,189.68,121.3,189.68,121.3,189.68z"/>
	<path class="st1" d="M152.9,322c0.37-1.36,0.79-2.72,1.1-4.1c1.53-6.6,5-12.37,8-18.29c2.56-4.92,5.5-9.65,8.17-14.52
		c0.79-1.43,1.64-1.38,2.67-0.5c3.92,3.37,7.84,6.74,11.71,10.16c4.24,3.75,8.26,7.79,12.71,11.25c2.6,2,5.81,3.64,9.39,2.81
		c3.8-0.81,7.34-2.53,10.33-5c5.65-4.81,11.18-9.75,16.8-14.59c1.46-1.25,3.07-2.33,4.81-3.64c6.83,10,12.79,20.35,16.79,32.37
		c1.17-2.06,2.21-3.6,3-5.26c3.54-7.72,5.35-15.82,3.48-24.22c-0.91-4.09-2.85-8-4.5-11.88c-0.62-0.95-0.39-2.23,0.53-2.9
		c3.16-2.84,6.16-5.84,9-9c3.09-3.59,5.93-7.39,8.51-11.37c3.36-5.22,6.34-10.69,9.45-16.07s4.5-11.58,5.44-17.76
		c1.05-6.9,2.24-13.79,2.92-20.73c0.85-8.74,1.37-17.52,1.79-26.3c0.3-6.17,0.4-12.36,0.24-18.54c-0.14-5.22-0.78-10.43-1.17-15.65
		c-0.49-6.46-0.87-12.92-1.44-19.37c-0.59-6.77-1.34-13.52-2-20.28c-0.27-2.66-0.57-5.32-0.89-8.3c2,0.39,4-0.56,5.18,0.88
		l3.56,0.31c0.65-0.38,1.37-0.65,2.11-0.78c7.32,0.19,14.61-0.8,21.62-2.91c4.28-1.41,8.28-3.55,11.83-6.33
		c3.89-2.81,7.56-5.91,11-9.26c3.44-3.53,6.61-7.33,9.47-11.34c9.21-12.64,13.84-27.27,17.17-42.34c0.64-2.87,1.15-5.76,1.72-8.64
		c0-0.1,0.14-0.19,0.21-0.29c6.9,32.71-4.24,70.46-36.51,92.82c2.13-0.87,4.22-1.86,6.25-2.95c4.28-2.56,8.59-5.12,12.59-8.07
		c2.13-1.74,3.99-3.79,5.52-6.07c5.57-7.68,10.27-15.96,14-24.69c3.73-8.6,6.77-17.49,9.1-26.57c0.04-0.35,0.27-0.65,0.59-0.79
		c-0.59,4.31-1.09,8.64-1.8,12.93c-2,11.88-4.8,23.55-10.65,34.18c-2.74,4.97-5.92,9.69-9.5,14.1c-3.84,4.77-8.07,9.19-12.67,13.23
		c-4.22,3.66-9.14,6.5-13.76,9.7c-0.39,0.25-0.76,0.54-1.09,0.87c4.61-1.11,9.02-2.91,13.09-5.34c6.53-3.93,12.44-8.82,17.53-14.5
		c3.57-4.14,6.91-8.48,10-13c6.12-8.57,10.17-18.19,13.67-28c2.13-6,3.81-12.16,5.7-18.24c0.21-0.7,0.48-1.38,0.72-2.07h0.49
		c0.34,1.99,0.56,3.99,0.68,6c0.09,7.93,0.37,15.88,0,23.79c-0.48,6.92-1.77,13.77-3.86,20.39c-1.86,6.69-4.8,13.03-8.69,18.78
		c-2.75,3.86-5.7,7.57-8.86,11.1c-4.21,4.77-8.48,9.52-13.08,13.9c-4.79,4.32-10.18,7.92-16,10.68c-1.05,0.53-2.11,1-3.17,1.56
		l0.16,0.55c3-0.73,6.05-1.43,9.06-2.2c5.23-1.28,10.21-3.42,14.74-6.33c3.17-2.1,6.08-4.56,8.69-7.33
		c3.77-3.99,7.27-8.23,10.47-12.69c3.49-4.93,6.59-10.15,9.58-15.41s5.64-10.72,8.45-16.08c0.08-0.15,0.26-0.24,0.8-0.73
		c-0.56,2.16-1,3.89-1.46,5.58c-2.59,8.73-5.12,17.5-9,25.78c-1.9,4.07-3.92,8.1-6.19,12c-4.28,7.27-10.34,13.12-17.22,18.12
		c-10.68,7.87-23,11.26-35.82,13.37c-5,0.83-10,1.58-15.07,2.66c1.52,0.45,3.08,0.78,4.65,1c8.83,0.64,17.7-0.62,26-3.69
		c6.89-2.51,13.61-5.47,19.39-10c5.49-4.29,10.64-9,15.74-13.79c3.09-2.88,5.79-6.17,8.74-9.37c-0.07,3.56-7.6,17.61-15.71,27.93
		c-6.77,8.63-16.35,13.73-25.92,18.71c-9.81,5.09-20.29,7-31.28,6.75v0.56c3.3,0.47,6.59,1.21,9.9,1.36
		c6.29,0.27,12.59,0.38,18.88,0.2c4.31-0.12,8.18-2.12,12-4c8.62-4.24,16.71-9.49,24.09-15.64c4.8-4,9.14-8.49,13.86-12.64
		c-2.68,3.44-5.2,7-8.08,10.3c-3.78,4.31-7.67,8.54-11.82,12.49c-5.61,5.28-12.07,9.56-19.12,12.66c-8.1,3.83-16.78,6.28-25.68,7.27
		c-4.53,0.42-9.1,0.26-13.66,0.36c-0.75,0-1.49,0-2.24,0l-0.1,0.52c3.93,0.69,7.85,1.59,11.81,2c10.36,1.13,20.08-1.6,29.56-5.38
		c6.51-2.56,12.58-6.12,18-10.54c5.84-4.78,11.45-9.83,17.16-14.76c0.29-0.26,0.69-0.36,1.06-0.25c-1.65,3.25-3.1,6.62-5,9.73
		c-2.84,4.91-5.95,9.66-9.31,14.23c-5.93,7.72-13.05,14.15-22.4,17.54c-6.1,2.21-12.22,4.38-18.45,6.17
		c-8.37,2.41-16.93,2-25.47,0.78c-1-0.14-2-0.31-3-0.44c-0.11,0-0.22,0.08-0.52,0.21c0.31,0.29,0.64,0.54,1,0.77
		c7.14,3.82,14.95,6.22,23,7.07c5.93,0.52,11.54-0.77,17.05-2.77c10.28-3.73,19.6-9.26,28.66-15.27c0.63-0.35,1.21-0.79,1.72-1.3
		c-2.62,2.79-5,5.86-7.92,8.29c-5.08,4.3-10.38,8.33-15.87,12.1c-6.67,4.52-14.32,6.24-22.31,6.83
		c-10.72,0.78-20.47-2.64-30.17-6.43c-3.4-1.33-6.71-2.87-10.07-4.31l-0.4,0.37c1.82,2.16,3.54,4.42,5.48,6.46
		c5.71,6,13.18,8.43,21,9.86c11.08,2,21.92,0.73,32.52-2.89c3.36-1.15,6.66-2.48,10-3.71c0.58-0.24,1.22-0.31,1.84-0.22
		c-9.47,8.53-19.76,15.28-32.9,16.76c-12.81,1.44-25.23,1-36.89-5.58c0.22,0.29,0.47,0.56,0.74,0.8c2.83,2.06,5.66,4.12,8.51,6.15
		c4.95,3.53,10.69,3.95,16.48,4c7.19,0.15,14.36-0.65,21.34-2.38c0.43-0.03,0.85-0.03,1.28,0c-14.3,6.37-28.48,8.2-43.23,3.19
		c1.66,1.83,3.4,3.59,5,5.49c8.44,10.31,12.27,22,9.9,35.27c-1.39,7.76-3.65,15.37-5.52,23l-0.68-0.13c0.06-1.12,0.11-2.24,0.2-3.36
		c0.46-5.92,1.33-11.84,1.28-17.75c-0.05-7-0.18-14-3.36-20.53c-3.44-6.91-8.55-12.85-14.87-17.27c-3.46-2.51-7.42-4.32-11.18-6.4
		c-0.63-0.28-1.33-0.36-2-0.23c12,8.53,18.72,20.09,21.06,34.42c1.23,6.53,0.89,13.26-1,19.63c-2.25,7.12-6.08,13.45-10.63,19.48
		c0.2-1,0.45-2.09,0.59-3.14c0.84-6.19,2.07-12.35,2.38-18.56c0.48-8.61-1.54-17.18-5.8-24.67c-2.44-4.06-5.64-7.61-9.42-10.45
		c7.36,11.6,8,24.2,5.75,37.18c-2.32,13.58-11.37,22.47-21.81,30.39c1.55-2.89,3.12-5.75,4.63-8.65c4.56-8.79,7.24-18.06,7.14-28
		c0.01-6.25-1.62-12.38-4.71-17.81c-1.23-2.22-2.6-4.37-4.1-6.42l2.64,6.88c2.2,5.75,2.78,11.99,1.69,18.05
		c-0.82,4.73-1.69,9.43-3.76,13.85c-2.41,4.89-5.9,9.16-10.2,12.51c-1.1,0.7-1.63,2.03-1.33,3.3c0.6,4.09,0.94,8.22,1,12.36
		c-7.11-2.91-13.67-6.45-19-11.63s-9.84-10.86-15-16.59c0.09,25.4-3.62,49.49-19.66,70.56c-1.27-1.57-2.31-2.78-3.27-4.05
		c-4.85-6.4-9.51-13.02-12.01-20.82c-1.43-4.32-2.46-8.77-3.08-13.28c-1.21-9.28-2-18.63-2.93-27.95c0-0.29-0.12-0.58-0.19-0.93
		c-4.72,4.81-9.15,9.75-14,14.19c-4.86,4.66-10.69,8.19-17.06,10.35c-0.11-0.78-0.17-1.57-0.17-2.36c0.07-2.01,0.26-4.01,0.58-6
		c0.4-2-0.31-3.22-1.91-4.37c-5.44-3.73-9.85-8.75-12.85-14.62c-2.3-4.67-2.93-9.77-3.76-14.83c-1.27-7.69,0.37-14.86,3.5-21.82
		c0.06-0.14,0-0.34-0.28-0.66c-1,1.67-2,3.32-3,5c-5.31,9.52-5.61,19.57-3.38,30c1.69,7.9,5.15,15,9.21,21.82
		c0.41,0.7,0.76,1.44,1.13,2.16c0.06,0.18,0.1,0.36,0.12,0.55c-22.3-14.09-29.93-42.06-16.2-67.25l-0.35-0.37
		c-1.54,1.55-3.16,3-4.61,4.67c-7,7.9-9.7,17.38-10.2,27.7c-0.37,7.51,0.94,14.8,2.66,22c0.11,0.49,0.2,1,0.26,1.47
		c-0.06,0.32-0.16,0.62-0.29,0.92c-8.21-11.95-13.77-24-11.17-39c2.52-14.44,9.38-25.83,21.07-34.57c-3.74,0.55-6.8,2.36-9.79,4.24
		c-5.67,3.58-10.63,8.18-14.63,13.56c-3.78,5.1-6.05,11.15-6.58,17.47c-0.78,9.18-0.48,18.42,0.9,27.53
		c0.08,0.57,0.1,1.14,0.15,1.71l-0.51,0.09c-0.61-1.92-1.2-3.84-1.83-5.75c-2.72-8.17-4.78-16.46-4.41-25.16
		c0.26-7.86,2.85-15.46,7.44-21.84c2.38-3.34,5-6.48,7.81-10.06c-14.86,5.47-29,3.45-42.75-2.66c4.69,0.68,9.53,1.73,14.41,2
		c5.42,0.28,10.85,0.16,16.25-0.38c4.29-0.44,7.84-3.11,11.37-5.49c1.81-1.23,3.48-2.64,5-4.22c-14.6,7.66-29.81,7.14-44.93,3.06
		c-9.52-2.54-17.31-8.69-24.53-15.44c3,1.13,6,2.25,9,3.4c6.49,2.66,13.36,4.29,20.35,4.85c11.28,0.67,22.3-0.49,32.05-6.84
		c4.19-2.78,7.66-6.51,10.13-10.89c-3.25,1.48-5.93,2.9-8.75,3.95c-8.07,3-16,6.42-24.78,7c-10.65,0.75-20.8-1.13-29.77-7
		c-5.77-3.76-11-8.4-16.33-12.79c-2.45-2-4.62-4.35-6.92-6.53l0.29-0.4c1.8,1.17,3.61,2.35,5.42,3.5
		c7.51,4.86,15.45,9.01,23.73,12.4c10.25,4.11,20.5,3.91,30.75,0.2c3.77-1.4,7.43-3.09,10.94-5.06
		c-18.03,3.73-34.58-0.45-50.58-8.22c-16.7-8.15-25.12-23.32-32.79-39.05l0.45-0.44c2.83,2.57,5.65,5.15,8.5,7.71
		c12.58,11.26,26.66,19.58,43.6,22.35c7.72,1.26,17.51,0.51,24-2.26c-4.19,0-8.38,0.17-12.56,0c-10.72-0.52-20.72-3.74-30.38-8.27
		c-6.15-2.92-11.82-6.77-16.82-11.4c-6.96-6.38-13.24-13.45-18.76-21.11c-0.09-0.12-0.08-0.31-0.2-0.87c2.62,2.43,5,4.63,7.32,6.8
		c10.2,9.38,21.44,17.24,34.31,22.45c3.63,1.35,7.46,2.06,11.33,2.12c7.82,0.31,15.64-0.36,23.29-2c0.31-0.07,0.6-0.23,0.82-0.47
		c-21,0.78-38.05-8.23-53.15-21.49c-9.45-8.3-17.08-23.5-19.51-31.86c1.43,1.56,2.88,3.1,4.27,4.69
		c6.3,7.45,13.58,14.03,21.63,19.54c9.77,6.51,20.45,10.89,32.15,12.23c5,0.58,10.23,1.19,15.24-0.58c0.35-0.09,0.65-0.3,0.87-0.59
		c-2.79-0.37-5.6-0.64-8.37-1.11c-8.75-1.48-17.57-2.73-26-5.79c-7.73-2.76-14.87-6.95-21.06-12.34c-3.71-3.17-7.06-6.73-10-10.62
		c-4.81-6.5-8.11-13.81-11-21.26c-3.06-8-5.42-16.23-8.07-24.37c-0.17-0.53-0.13-1.1,0.11-1.6l3.21,6.32
		c6.38,12.56,13.54,24.61,22.61,35.48c8.79,10.53,20.25,16,33.43,18.41c0.3,0.05,0.62,0.08,0.93,0.1s0.49,0,1.32,0
		c-2.44-1.35-4.43-2.48-6.45-3.55c-7.62-4.08-14.4-9.55-20-16.13c-4.83-5.61-9.67-11.25-14.07-17.19c-4.16-5.73-7.24-12.17-9.11-19
		c-2.01-6.45-3.28-13.1-3.78-19.84c-0.38-7.34-0.2-14.72-0.15-22.09c0-3,0.35-6.08,0.53-9.12h0.46c1.64,5.35,3.24,10.71,4.92,16
		c3.37,11.07,8.17,21.66,14.3,31.48c7.18,11.29,16,21,27.33,28.13c4,2.52,8.68,4,13.06,6c0.37,0.08,0.74,0.12,1.12,0.11
		c-3.55-2.37-6.92-4.51-10.18-6.81c-6.7-4.76-12.24-10.68-17.39-17.08c-6.14-7.36-10.94-15.74-14.19-24.75
		c-3.52-10.49-5.86-21.34-7-32.35c-0.19-1.25-0.25-2.52-0.19-3.78c0.84,2.8,1.67,5.6,2.52,8.4c4.95,16.26,11.81,31.57,22.12,45.22
		c2.83,3.75,6.57,6.32,10.42,8.74c3.81,2.33,7.78,4.38,11.88,6.14c-15.42-9.89-24.47-24.71-31.72-40.73
		c-7.47-16.52-6.5-33.94-4.36-51.36l0.52-0.09c0.44,2.26,0.86,4.52,1.32,6.77c2.54,12.41,6,24.5,12.15,35.71
		c6.06,11.27,14.53,21.06,24.81,28.69c7.78,5.78,17.12,9.09,26.8,9.48c4.42,0.24,8.87,0.17,13.3,0.21c2.16,0,2.55,0.4,2.34,2.65
		c-0.62,6.65-1.38,13.3-1.87,20c-0.7,9.58-1.34,19.17-1.72,28.76c-0.15,3.77,0.56,7.58,0.71,11.37c0.18,4.55,0,9.12,0.29,13.66
		c0.36,6.92,0.76,13.83,1.42,20.72c0.71,7.32,1.72,14.6,2.66,21.9c0.89,7.7,3.23,15.17,6.9,22c3.2,5.83,6.18,11.78,9.65,17.44
		c5.29,8.61,10.77,17.14,19.26,23.6c-10.74,16.63-8.57,32.71,2,48.34L152.9,322z"/>
	<path class="st0" d="M221.24,247.75c-2-4.16-0.79-6.84,4.85-11l-4.29-2.66c-0.2,0.23-0.37,0.5-0.49,0.78
		c-1.19,4.15-4.42,5.84-8.21,6.83c-2.89,0.75-8.11-2-9.66-4.92c-1.71-3.17-1.86-6.23,0.47-9.08c2.32-3.12,6.31-4.5,10.07-3.5
		c2.17,0.53,4.15,1.81,6.41,2.84c0.86-2.79,3.08-4.95,5.89-5.75l-5.3-4.85c-1.38,1.57-2.62,3.59-4.38,4.89
		c-5.1,3.78-11.47,0.1-13.05-4.35c-1.05-2.62-0.33-5.62,1.79-7.49c1.98-2.19,5.01-3.1,7.87-2.37c2.69,0.57,5.05,2.16,6.59,4.44
		c1-1.75,1.67-3.83,3.07-5.09s3.52-1.65,5.45-2.48c-2.48-2.13-4.73-4.72-4-8.52c0.49-2.24,1.96-4.14,4-5.18
		c4.83-2.73,11,0.32,12.63,4.09c2.05,4.84-0.17,8.06-8.05,11.29c5.87,4.48,6.1,12.43-1.08,15.77c3.58,1.27,5.34,4,6.43,7.61
		c1.78-3.3,4.16-5.26,7.56-5.68s6.23,0.86,8.85,3.38c0.77-3.7,2.7-6.22,6.13-7.46l-4.17-4.74c-1,1.48-1.93,3.64-3.54,4.82
		c-1.77,1.22-3.85,1.92-6,2c-3.36,0.14-6.47-1.8-7.83-4.88c-1.39-2.58-0.99-5.75,1-7.9c2.18-2.71,5.74-3.88,9.1-3
		c3.07,0.66,5.24,2.43,6.87,5.81c1.08-5.16,4.31-7.52,8.7-7.74s7.7,1.89,9.41,6.95c1.4-4.13,3.93-6,7.54-6.38l0.36,0.53
		c-0.44,0.36-0.93,0.65-1.45,0.88c-2.4,0.57-4.21,2.55-4.56,5c-0.45,2.64,0.1,5.11,2.47,6.84c0.55,0.42,0.96,1.01,1.16,1.67
		c-3-0.53-4.42-2.77-5.67-5.66c-0.93,2.77-3.09,4.96-5.85,5.94l4.45,5c1.68-2,3.53-4.24,6.67-4.39l0.35,0.5
		c-0.45,0.34-0.93,0.65-1.44,0.9c-4.08,1.62-4.75,5.24-3.91,8.64c0.08,0.21,0.22,0.39,0.41,0.51c0.35-2.06,0.84-4.1,1.47-6.1
		c0.31-0.83,1.54-1.32,2.35-2l0.58,0.38c-0.22,0.46-0.33,1.09-0.7,1.37c-1.54,1.16-1.66,2.67-1.73,4.46
		c-0.16,1.64-0.65,3.22-1.44,4.66c-1.16,2.4-2.56,4.69-3.89,7c-0.32,0.56-0.72,1.06-1.2,1.74c-1.54-5.07-2.91-4.9-6.18-4.51
		c-2.38,0.28-3.64,2.62-3.17,4.94c0.55,2.72,2.54,3.71,6.68,3.31c-0.35,1.06-0.94,1.4-2.46,1.4c-2.51,0.02-4.78-1.48-5.74-3.8
		c-0.78-2.34,0.1-4.91,2.15-6.28c2.61-1.91,5.47-1.43,9.74,1.63c0-2-2.15-3.5-5.47-3.82c-3.8-0.37-6.87,1.75-7.53,5.2
		c-0.87,4.5,1,6.7,7.48,8.64l0.13,0.52c-0.75,0.1-1.5,0.22-2.25,0.29c-1.72,0.17-3.59-0.07-5.11,0.55
		c-3.53,1.61-5.14,5.74-3.63,9.31c0.11,0.29,0.37,0.55,0.39,0.84c0.01,0.61-0.01,1.22-0.07,1.83c-0.54-0.36-1.36-0.6-1.58-1.1
		c-0.68-1.52-1.13-3.15-1.67-4.73l-5.34,2.74c2.75,1,5.53,1.82,6.84,4.72c-0.77,1-1.26,0.67-2-0.2c-3.02-3.63-8.42-4.13-12.06-1.11
		c-0.24,0.2-0.47,0.41-0.68,0.64c-1.87,2.27-2.26,5.41-1,8.07c0.44,0.85,1,1.52,0,2.44s-1.85,0.71-2.94,0
		c-2.55-1.84-5.89-2.18-8.77-0.91c-4.28,1.86-5.56,6.92-3,10.94c0.2,0.3,0.43,0.58,0.79,1.05c-2.14,1.19-2.28-1.12-3.31-1.62
		c-0.01-0.43-0.06-0.86-0.15-1.28c-1.15-4.46-0.14-7.15,3.67-9.75c0.23-0.16,0.42-0.38,0.79-0.71l-2.86-1.57
		c-0.19,4.35-3.26,8.03-7.5,9l6.1,4.28c0.36,1.05,0.72,2.11,1.16,3.38l-1.5,1.3c-1.47-6.39-5.63-8.07-11.3-6.83
		c-2.67,0.59-4.55,3.18-4.83,6.07c-0.39,4.09,1,6.05,6.31,9c-0.57,0.1-1.21,0.42-1.71,0.27c-4-1.2-6.6-4.38-6.68-8.1
		s2.5-7.22,6.56-8.6c0.29-0.09,0.56-0.22,1.34-0.53c-4.74-1.53-8-4.25-7.87-9s3.27-7.59,8.08-8.75c-1.49-0.7-2.95-1.47-4.36-2.33
		c-2.48-1.59-3.91-4.41-3.73-7.35c0.28-3.49,2.66-6.46,6-7.49c4.62-1.68,8.56-0.57,11.94,2.9c0.37,0.31,0.77,0.58,1.19,0.81
		c0.08,0.73,0.14,1.46,0.23,2.19c0.22,0.83,0.33,1.7,0.31,2.56c-0.63,3.79-2.62,6.55-6.36,7.85l-2.06,0.75l6,2.8
		c-0.39-5.62,2.17-9.35,7.35-11.4C221.98,250.07,222.21,249.54,221.24,247.75z M248.34,239.44c5.4,2.13,7,6,6.63,11l4.5-2.35
		c-1.85-2.08-3.39-4.23-3-7.06c0.36-2.59,1.82-4.9,4-6.34l-4.12-2.92C255.36,235.73,252.98,238.39,248.34,239.44z M267.17,233.36
		l0.8-0.66c2.92-2.34,3.93-5.26,2.85-8.23c-1-2.76-3.83-4.37-7.44-4.24c-3.57-0.05-6.51,2.8-6.56,6.38c0,0.1,0,0.2,0,0.3
		c0.08,3.8,3.2,6.82,7,6.79c1.85,0.07,3.67,0.41,5.42,1c1.1,0.53,2.13,1.2,3.05,2c2.32-3,2.32-3.65,0-6.57
		C270.98,231.56,270.21,234.03,267.17,233.36z M219.98,232.7c0-4.29-3.52-7.44-8.23-7.4c-4.08-0.16-7.52,3.02-7.68,7.1
		c-0.01,0.13-0.01,0.26-0.01,0.39c0.47,4.39,4.4,7.58,8.8,7.11C216.64,239.5,219.62,236.49,219.98,232.7L219.98,232.7z
		 M219.98,252.11c-0.05-4.49-3.45-7.49-8.35-7.38c-4.41,0.1-7.52,3.19-7.48,7.42c0.16,4.37,3.83,7.79,8.2,7.63
		c4.15-0.15,7.49-3.48,7.63-7.63V252.11z M232.55,236.96c2.9,0.98,5.08,3.4,5.76,6.38l6.56-4.16c-3.91-1-5.83-4-6.76-7.31
		L232.55,236.96z M246.15,241.45c-4.38,0.02-7.91,3.59-7.89,7.96c0,0.08,0,0.16,0,0.25c0.07,4.19,3.51,7.53,7.7,7.46
		c0.01,0,0.01,0,0.02,0c3.71,0,7.38-3.6,7.62-8.08c0.18-4.01-2.91-7.4-6.92-7.59c-0.2-0.01-0.39-0.01-0.59,0L246.15,241.45z
		 M228.31,269.92c4.37,0,7.81-3.82,7.77-8.6c0-4.14-3.26-7-7.81-7c-4,0-7.62,3.87-7.57,8.2
		C220.86,266.62,224.21,269.87,228.31,269.92z M219.91,270.27c0-4.68-3-7.54-8.09-7.59c-4.5-0.06-7.74,3-7.79,7.37
		c-0.05,4.17,3.44,7.49,7.95,7.55c4.2,0.18,7.75-3.08,7.93-7.28C219.91,270.3,219.91,270.29,219.91,270.27L219.91,270.27z
		 M212.09,208.27c-4.3-0.08-7.23,2.52-7.31,6.52c0.03,3.97,3.28,7.16,7.25,7.13c3.74-0.03,6.83-2.93,7.11-6.66
		c0.11-4.18-2.69-6.95-7.05-7.04V208.27z M229.29,235.73c3.83,0.12,7.02-2.89,7.14-6.72c0-0.05,0-0.1,0-0.15c0-3.86-3-6.57-7.3-6.64
		s-7.08,2.69-7,6.8s2.92,6.65,7.16,6.66V235.73z M229.13,237.9c-4,0-6.84,2.59-6.93,6.32c-0.18,3.83,2.78,7.08,6.61,7.26
		c0.19,0.01,0.38,0.01,0.57,0c3.81,0.04,6.97-2.94,7.17-6.74c0.01-4.3-2.75-6.84-7.42-6.89V237.9z M272.54,211.9
		c0-4.2-2.92-6.9-7.41-6.87c-3.69-0.14-6.8,2.74-6.94,6.43c0,0.05,0,0.1,0,0.16c0,4.09,3.18,7.11,7.54,7.06
		c3.78-0.02,6.82-3.09,6.81-6.87V211.9z M232.78,190.53c-4.17-0.35-7,3.07-6.87,6.85c0.2,3.78,3.34,6.74,7.13,6.71
		c4.05-0.09,7.29-3.17,7.23-6.85C240.21,193,237.44,190.52,232.78,190.53z M229.05,219.89c3.89,0,7.16-2.93,7-6.54
		c-0.13-4.22-3.63-7.54-7.85-7.46c-3.58,0.28-6.34,3.29-6.3,6.88C221.94,216.7,225.12,219.86,229.05,219.89z M247.44,206.67
		c-4.15,0-6.88,2.52-7.07,6.15c-0.24,4.76,3.42,7.35,7.15,7.44c3.86,0.09,7.07-2.96,7.17-6.83c0-0.03,0-0.06,0-0.08
		C254.68,209.42,251.71,206.69,247.44,206.67z M247.25,238.09c3.77,0.16,6.95-2.77,7.11-6.54c0-0.04,0-0.07,0-0.11
		c0.07-4-3-6.85-7.45-6.87c-3.58-0.2-6.65,2.55-6.85,6.13c-0.01,0.23-0.01,0.45,0,0.68C239.98,235.19,243.07,238.05,247.25,238.09z
		 M243.65,258.78c-4.88-1.36-6.28-5-7.08-9l-4.59,2.78c3.51,1.94,5.59,4.7,5.73,8.73L243.65,258.78z M231.98,270.85l4.24,1.72
		c-0.53-1.48-0.92-2.59-1.37-3.86L231.98,270.85z"/>
	<path class="st0" d="M190.82,212.97c0.78,1.28,2.14,1,3.68,0.45c2.78-1,5.06,0.18,5.37,3.09c0.15,1.91-0.14,3.82-0.84,5.6
		c-0.49,0.97-0.44,2.13,0.14,3.06c1.16,2.13,2.43,4.28,0.68,6.79c-1.48,2.14-3.25,2.72-5.61,1.59c-0.99-0.5-2.19-0.1-2.69,0.88
		c-0.17,0.34-0.24,0.73-0.2,1.12c0,0.33,0.78,0.79,1.19,0.79c0.69-0.08,1.36-0.26,2-0.53c2.59-0.8,5.05,0.45,5.33,3.12
		c0.21,1.97-0.03,3.96-0.7,5.82c-0.53,1.09-0.45,2.38,0.22,3.39c1.76,3.05,1.59,4.65-0.49,7.18c-0.9,1.39-2.73,1.82-4.16,1
		c-1.55-0.83-2.81-1-3.68,1.13c-0.94-1.66-2-1.6-3.38-0.95c-1.67,0.79-3.17,0.1-4.34-1.25c-0.53-0.61-1-1.28-1.63-2.13
		c-0.44,0.65-0.79,1.19-1.17,1.7c-1.3,1.78-2.95,2.25-4.89,1.21c-1.47-0.79-2.48-0.46-3.31,1.13c-1-1.64-2.1-1.36-3.42-0.77
		c-1.65,0.73-3.22,0.09-4.57-1.6c-0.41-0.52-0.8-1.05-1.31-1.71l-1.11,1.5c-1.37,1.85-2.81,2.33-4.88,1.35
		c-1.45-0.68-2.51-0.69-3.27,1.17c-1.16-1.89-2.5-1.27-3.89-0.64c-0.93,0.6-2.16,0.34-2.77-0.58c-0.01-0.02-0.03-0.04-0.04-0.07
		c-2.75-4.16-5.52-8.32-8.22-12.52c-0.28-0.44-0.09-1.17-0.13-1.77c0.51,0.17,1,0.37,1.54,0.51s1.11,0.27,1.67,0.4
		c0.19-0.55,0.27-1.13,0.25-1.71c-0.84-2.9-2.71-3.35-5.48-1.15l-1.93-3.11c1.45-0.31,2.63-0.52,3.79-0.83
		c2.57-0.68,4.73,0.56,5.06,3.24c0.18,1.51,0.3,3.41-0.44,4.56c-1.69,2.65-0.16,4.39,1,6.5c1.16-2.12,1.64-4.05,0.77-6.41
		c-0.45-1.69-0.56-3.45-0.31-5.18c0.11-1.81,2.2-2.91,4.71-2.63c2.81,0.5,5.69,0.53,8.51,0.1c2.66-0.55,4.56,1.16,4.62,4
		c0.08,1.49-0.19,2.98-0.8,4.35c-0.74,1.46-1,2.57,0.13,3.87c0.4,0.59,0.74,1.22,1,1.89c1-1.91,2-3.38,1.08-5.53
		c-0.57-1.45-0.83-3-0.75-4.55c0.06-3.11,2.44-4.55,5.47-4.07c2.45,0.38,5,0.88,7.51,0.09c2.23-0.69,3.21-0.06,5.24,3
		c0.41-0.48,0.78-0.95,1.19-1.38c1.41-1.48,3-2.19,5.06-1.36c1.12,0.45,2,0.37,2.39-0.88c0.14-0.41,0.21-0.85,0.31-1.28
		c-0.49-0.1-1-0.39-1.46-0.28c-3.48,0.91-5.29,0.23-6.59-3c-0.45-1.14-0.45-2.41,0-3.55c1.35-2.67,0.89-5.17-0.08-7.72
		c-0.81-1.69-0.5-3.7,0.77-5.07c1.36-1.45,3.08-1.64,5-1.1C188.68,213.56,189.65,213.14,190.82,212.97z M165.82,249.32h-0.7
		c-0.13,1.12-0.11,2.25,0.08,3.36c0.24,0.81,1.09,1.88,1.8,2c0.95-0.03,1.82-0.53,2.33-1.33c0.67-1.34,1.1-2.78,1.26-4.27
		c0.46-3.24-0.06-6.55-1.51-9.49c-0.79-1.58-2.11-2.12-3.16-1.47s-1.57,3.39-0.79,4.28c0.3,0.26,0.71,0.35,1.09,0.25
		c0.73-0.3,1.58-1.11,2,0.09c0.3,0.88,0.2,1.85-0.27,2.65c-0.7,0.73-0.8,1.84-0.26,2.69c0.48,1.08,1.07,2.33-0.58,3.32
		L165.82,249.32z M147.14,249.18h-0.61c-0.1,1.25-0.07,2.51,0.07,3.75c0.21,0.75,0.77,1.35,1.5,1.63c0.78,0.03,1.54-0.26,2.09-0.82
		c0.56-0.59,0.95-1.31,1.13-2.1c1.1-3.88,0.85-8.01-0.69-11.73c-0.39-0.83-1.02-1.53-1.81-2c-0.74-0.47-1.71-0.25-2.18,0.49
		c-0.14,0.22-0.22,0.46-0.24,0.72c-0.07,1.17,0.05,2.34,0.33,3.47l1.05-0.14c0.51-0.12,1.04-0.17,1.56-0.16
		c0.27,0.78,0.75,2.1,0.42,2.38c-1.66,1.42-0.79,2.82-0.43,4.35c0.14,0.62-0.36,1.39-0.57,2.1c-0.42-0.45-0.84-0.89-1.25-1.35
		c-0.13-0.19-0.24-0.39-0.34-0.59L147.14,249.18z M184.14,219.9c1.25-0.06,2.34-0.44,2.84-0.06c0.51,0.65,0.65,1.51,0.37,2.29
		c-1.43,1.39-0.93,2.75-0.39,4.23c0.15,0.35,0.19,0.73,0.1,1.1c-0.2,0.42-0.46,0.8-0.76,1.15c-0.33-0.23-0.64-0.5-0.92-0.79
		c-0.26-0.4-0.5-0.82-0.7-1.26l-0.69,0.19c0,1.31,0.13,2.62,0.4,3.91c0.55,1.74,2.3,2,3.47,0.52c0.51-0.63,0.89-1.35,1.12-2.13
		c1.11-3.88,0.86-8.02-0.71-11.73c-0.54-1.33-1.46-2.59-3.1-2.06s-1.46,2-1.39,3.34C183.83,219.05,183.95,219.49,184.14,219.9
		L184.14,219.9z M184.4,249.13c-0.21,0.31-0.38,0.65-0.52,1c-0.54,2.1,0.2,4.36,1.51,4.75c1.49,0.43,3.15-0.81,3.45-3.35
		c0.28-2.97,0.28-5.95,0-8.92c-0.2-1.29-0.72-2.52-1.52-3.55c-0.53-0.65-1.34-1.01-2.18-0.95c-0.62,0.14-1.14,1.14-1.46,1.87
		c-0.18,0.6-0.22,1.23-0.1,1.85c0.11,1.06,0.7,1.52,1.64,0.83s1.52-0.55,1.79,0.31c0.16,0.8,0.16,1.62,0,2.42
		c-0.1,1.1-0.31,2.19-0.38,3.28c0,0.48,0.34,1,0.3,1.44c-0.14,0.45-0.35,0.88-0.63,1.26c-0.39-0.21-0.76-0.47-1.08-0.77
		C184.89,250.14,184.62,249.65,184.4,249.13L184.4,249.13z M178.8,248.64l-1.29,2.18h-0.7c-0.15-1-0.76-2.3-0.35-2.93
		c1.06-1.6,0.2-2.62-0.42-3.9c-0.27-0.56,0-1.36,0-2.05c0.57,0.14,1.13,0.32,1.66,0.56c0.87,0.47,1.68,0.79,2-0.48
		s-1.19-3.33-2.43-3.66c-1.22-0.34-2.48,0.38-2.82,1.6c-0.05,0.19-0.08,0.38-0.08,0.57c-0.36,2.27-0.48,4.57-0.33,6.86
		c0.15,1.73,0.66,3.41,1.5,4.93c0.43,0.76,1.81,1.15,2.83,1.34c0.39,0.07,1.23-0.81,1.4-1.4c0.42-1.22,0.56-2.56-0.97-3.64
		L178.8,248.64z M196.22,251l-0.59,0.05c-0.21-1-0.91-2.22-0.53-2.78c1.15-1.74,0.31-2.93-0.48-4.35c-0.27-0.49,0.14-1.35,0.24-2
		c0.51,0.22,1,0.47,1.51,0.64s1.26,0.48,1.48,0.28s0.68-1.27,0.47-1.55c-0.76-1-1.58-2.38-2.67-2.76c-1.39-0.47-2.17,1-2.53,2.2
		c-1.11,3.67-0.88,7.62,0.63,11.14c0.35,0.73,0.94,1.31,1.66,1.67c1,0.49,2.18,0.86,2.93-0.52c0.86-1.33,0.47-3.11-0.86-3.97
		c-0.02-0.01-0.04-0.02-0.06-0.03L196.22,251z M195.83,228.31c-0.2-1.21-0.83-2.49-0.43-3.09c1-1.57,0.32-2.54-0.43-3.8
		c-0.33-0.55,0-1.47,0-2.22c0.58,0.14,1.15,0.34,1.68,0.61c0.9,0.62,1.64,0.73,2-0.45s-1-3.16-2.2-3.6c-1.68-0.6-2.59,0.43-3,1.75
		c-1.28,3.83-1.04,8,0.67,11.66c0.43,0.89,1.89,1.5,3,1.77c1.27,0.3,1.75-0.93,1.75-1.93c-0.1-0.94-0.32-1.86-0.66-2.74l-1.67,1.64
		C196.31,228.06,196.07,228.2,195.83,228.31L195.83,228.31z M158.9,250.88c-1.23-0.64-1.7-2.16-1.06-3.39
		c0.05-0.09,0.1-0.17,0.15-0.25c0.64-0.72,0.58-1.81-0.12-2.46c-0.21-0.23-0.51-0.49-0.53-0.76c-0.05-0.74,0-1.49,0-2.24
		c0.57,0.16,1.12,0.36,1.66,0.61c0.8,0.44,1.53,0.79,1.91-0.41s-0.86-3.27-2.28-3.7c-1.08-0.39-2.27,0.17-2.66,1.25
		c-0.06,0.17-0.1,0.35-0.12,0.53c-0.51,2.24-0.7,4.54-0.56,6.83c0.3,2.06,1.01,4.03,2.09,5.81c0.65,1,1.98,1.29,2.99,0.65
		c0.16-0.1,0.3-0.22,0.42-0.36c0.9-1.39,0.57-3.25-0.76-4.24L158.9,250.88z M181.49,241.98c-1.52,2.74-2.77,5.37,0.06,7.95
		C183.87,247.28,182.65,244.68,181.49,241.98L181.49,241.98z M172.65,242.49h-0.54c-1,2.67-0.77,7.2,0.54,8.86V242.49z
		 M153.65,250.95c0.69-2.89,1-5.75-0.18-8.57c-0.96,2.79-0.88,5.83,0.2,8.57L153.65,250.95z M190.98,242.32
		c-1.1,2.66-0.89,7.34,0.39,9C191.64,248.28,192.29,245.34,190.98,242.32z M191.58,219.65c-1.56,2.57-1.35,7.64,0,8.82V219.65z"/>
	<path class="st0" d="M170.45,213.07c0.66,1.11,2,0.92,3.47,0.4c3.11-1.07,5.44,0.31,5.61,3.65c0.1,1.78-0.72,3.6-1.05,5.42
		c-0.16,0.69-0.16,1.42,0,2.11c0.33,0.87,0.72,1.72,1.17,2.54c0.94,2.2-0.13,5.45-2.32,6.35c-0.97,0.36-2.04,0.33-3-0.06
		c-1.49-0.71-2.59-0.91-3.44,1.06c-1.19-1.7-2.43-1.13-3.93-0.73c-1,0.27-2.47-0.41-3.51-1c-0.84-0.72-1.57-1.57-2.16-2.51
		c-0.49,0.72-0.9,1.39-1.38,2c-1.29,1.67-2.77,2.13-4.59,1.2c-1.47-0.74-2.62-0.84-3.45,1.05c-1-1.44-2.11-1.21-3.57-0.79
		c-1.07,0.32-2.6-0.27-3.69-0.88c-0.9-0.51-1.46-1.63-2.26-2.58c-0.27,0.29-0.51,0.6-0.73,0.93c-1.55,2.78-2.89,3.25-5.81,2
		c-0.12-0.05-0.24-0.15-0.35-0.14c-2.84,0.46-3.49-1.66-4.2-3.62c-0.26-0.73-0.36-1.5-0.28-2.27c0.47-3.03,0.22-6.14-0.75-9.05
		c-1-2.63-1.6-3-4.31-2.87c-0.68-1.3-0.16-2,1.18-2.16c0.67,0,1.34,0.06,2,0.17c0.96,0.06,1.92-0.03,2.85-0.27
		c1.35,1.14,2.81,1,4.47,0.37c1.87-0.81,4.04,0.05,4.85,1.93c0.06,0.13,0.11,0.27,0.15,0.41c0.2,0.52,0.31,1.07,0.49,1.69
		c1.29-3.82,3-4.75,6.73-4c0.92-0.01,1.84-0.17,2.71-0.47c0.86,1.43,2.4,0.91,4.09,0.34c3.05-1,5.79,1.73,5.29,5.26
		c-0.04,0.94-0.29,1.86-0.73,2.69c-1.75,2.56,0,4.33,1.2,6.49c1.06-2.27,2.17-4.24,0.85-6.67c-0.47-1.02-0.71-2.14-0.7-3.26
		c-0.16-3.49,2.33-5.34,5.75-4.53C168.22,213.35,169.34,213.29,170.45,213.07z M164.22,226.62h-0.47c-0.18,1.11-0.22,2.24-0.1,3.36
		c0.17,0.77,1,1.87,1.6,2c0.94,0.03,1.84-0.4,2.4-1.16c0.72-1.37,1.19-2.86,1.39-4.4c0.52-3.29-0.03-6.66-1.57-9.62
		c-0.55-0.78-1.37-1.33-2.3-1.53c-0.41-0.1-1.41,0.73-1.54,1.28c-0.17,1.07-0.17,2.16,0,3.23c0.4,0.11,0.82,0.15,1.24,0.11
		c0.54,0,1.5-0.31,1.55-0.2c0.3,0.76,0.81,2,0.49,2.33c-1.55,1.43-0.91,2.81-0.45,4.38c0.18,0.6-0.36,1.41-0.57,2.12
		c-0.42-0.45-0.85-0.89-1.27-1.35C164.5,226.98,164.36,226.79,164.22,226.62z M145.22,226.84c-0.1,0.06-0.25,0.1-0.29,0.19
		c-0.92,2.21-0.35,4.58,1.22,5s3.05-0.89,3.57-3.46c0.68-3.38,0.52-6.87-0.48-10.17c-0.22-0.84-0.63-1.62-1.2-2.28
		c-0.51-0.56-1.24-0.88-2-0.88c-0.59,0.13-1.13,1-1.43,1.7c-0.23,0.64-0.3,1.33-0.2,2c0.08,1,0.49,1.48,1.62,0.9
		c0.46-0.23,1.54-0.23,1.66,0c0.33,0.64,0.65,1.87,0.34,2.16c-1.39,1.27-1,2.51-0.57,4c0.06,0.81-0.03,1.63-0.28,2.41l-1.61-1.49
		c-0.11-0.04-0.22-0.07-0.33-0.09L145.22,226.84z M138.1,228.11l-0.7,0.09c-0.16-1-0.79-2.19-0.4-2.81
		c1.05-1.69,0.34-2.83-0.51-4.19c-0.29-0.45,0-1.26,0-1.91c0.58,0.1,1.15,0.28,1.68,0.53c1.05,0.68,1.93,0.46,2.11-0.63
		c-0.05-1.53-0.99-2.89-2.4-3.48c-1.13-0.37-2.34,0.24-2.72,1.37c-0.05,0.14-0.08,0.28-0.09,0.42c-0.53,1.92-0.77,3.9-0.71,5.89
		c0.19,2.16,0.76,4.28,1.67,6.25c0.35,0.76,1.94,1.09,3,1.28c0.35,0.06,1.12-0.89,1.27-1.49c0.31-1.15,0.61-2.46-1-3.37
		L138.1,228.11z M175.83,223.62c-0.51-0.61-0.95-1.28-1.29-2c-0.12-0.75-0.15-1.51-0.07-2.27c0.62,0.14,1.23,0.34,1.81,0.6
		c0.88,0.51,1.56,0.55,1.89-0.53s-1.15-3.42-2.39-3.69c-1.17-0.35-2.4,0.32-2.75,1.48c-0.03,0.1-0.05,0.21-0.07,0.32
		c-0.51,1.98-0.73,4.03-0.65,6.08c0.23,2.15,0.85,4.24,1.82,6.17c0.35,0.73,2,1,3.06,1.09c0.38,0,1.06-1.23,1.2-2
		c0.19-1,0.33-2.27-1.18-2.81l-1.32,2.29C174.18,226.62,174.54,225.13,175.83,223.62z M157.05,228.16l-0.56,0.05
		c-0.2-0.94-0.88-2.16-0.52-2.77c1-1.67,0.38-2.81-0.49-4.19c-0.3-0.46,0.09-1.36,0.17-2.06c0.51,0.2,1,0.42,1.53,0.61
		c0.41,0.22,0.87,0.35,1.34,0.36c0.29,0,0.65-0.57,0.72-0.93c-0.01-1.6-1.04-3.01-2.56-3.51c-1.72-0.34-2.46,0.84-2.77,2.14
		c-0.5,1.67-0.72,3.41-0.63,5.15c0.31,2.32,0.95,4.59,1.89,6.73c0.3,0.71,1.83,1,2.86,1.2c0.37,0.06,1.17-0.87,1.3-1.46
		c0.24-1.12,0.62-2.46-1-3.3L157.05,228.16z M142.24,227.51c2.48-3,1.31-5.83-0.19-8.83c-1.16,3.05-3.07,6,0.19,8.8L142.24,227.51z
		 M170.94,228.72c1-4,0.77-7.53-0.48-9c-0.87,2.78-0.64,7.19,0.52,8.97L170.94,228.72z M132.82,219.72
		c-1.14,2.35-0.93,7.15,0.37,8.74c0.22-2.98,0.92-5.84-0.37-8.78L132.82,219.72z M151.74,219.5c-1,2.53-0.82,7.51,0.39,9.25
		c0.2-3.21,0.91-6.13-0.39-9.29L151.74,219.5z"/>
	<path class="st0" d="M181.8,276.37l-2.34,0.36c-0.06-0.62-0.09-1.25-0.17-1.87c-0.13-0.94-0.28-1.87-0.42-2.8h-0.64l-1.43,2.14
		c-1.21-0.73-1.61-2.3-0.88-3.51c0.04-0.06,0.08-0.13,0.12-0.19c0.57-0.69,0.49-1.7-0.17-2.3c-0.77-1-1.42-2.12-0.08-3.26
		c0.19,0.04,0.38,0.08,0.56,0.14l2.38,0.85c-0.08-0.93,0.12-2.05-0.34-2.72c-0.56-0.84-1.46-1.4-2.47-1.51
		c-0.97,0.3-1.75,1.04-2.08,2c-0.37,2.07-0.57,4.17-0.61,6.28c0,0.82,0.06,1.65,0.18,2.46l-0.82,0.12l-0.6-6.84h-0.72l-0.66,5.38
		h-0.43c-0.08-0.54-0.13-1.08-0.24-1.62c-0.29-2.02-0.7-4.02-1.2-6c-0.54-1.86-1.93-2.68-3.14-2.26c-1,0.36-1.77,2.28-1.44,3.76
		c0.19,0.87,0.55,1.34,1.58,0.91c0.52-0.22,1.62-0.33,1.68-0.17c0.4,0.72,0.54,1.55,0.38,2.36c-0.42,0.71-1.17,1.16-2,1.2
		c-1.46-0.17-3-0.62-3.06-2.63c-0.11-0.63-0.34-1.24-0.67-1.79c-0.45,0.81-1.09,2.55-1.43,2.49c-1.34-0.37-2.62-0.91-3.82-1.6
		l0.24-0.52c0.1,0,0.26-0.16,0.31-0.12c0.75,0.52,1.58,1.84,2.38,0.61c0.4-0.62-0.17-2.11-0.66-3c-0.46-1.01-1.64-1.45-2.65-1
		c-0.12,0.06-0.24,0.13-0.35,0.21c-0.6,0.53-1.15,1.11-1.64,1.74l-3.8-3.53l1.32-2.12c1.24,2.06,2.78,1.5,4.46,1
		c2.73-0.84,4,0.12,5.51,3.73c1.32-3.31,3.23-4.21,6.58-3.37c0.74,0.19,1.65-0.31,2.68-0.54c0.86,1.29,2.27,1,3.8,0.53
		c2.82-1,5.16,0.37,5.39,3.32c0.15,1.79-0.13,3.6-0.81,5.26c-0.65,1.06-0.58,2.4,0.17,3.39c0.55,0.9,1.04,1.82,1.49,2.77
		c0.92-2.43,2.4-4.25,1.13-6.65c-0.32-0.81-0.59-1.64-0.81-2.49c-0.65-1.62-0.2-3.48,1.13-4.62c1.17-1.18,2.89-1.62,4.48-1.15
		c1.16,0.13,2.34,0.13,3.5,0c0.54,0.74,1.82,0.8,3.33,0.31c3.39-1.11,5.84,0.63,5.81,4.29c-0.09,1.55-0.47,3.06-1.13,4.46
		c-0.5,0.78-0.5,1.79,0,2.57c0.48,0.81,0.9,1.65,1.24,2.52c1.03,2,0.24,4.45-1.75,5.48c-0.63,0.33-1.34,0.48-2.05,0.45
		c-2.89,0-5.78-0.13-8.66,0.06C184.75,279.48,182.71,278.85,181.8,276.37z M184.4,272.62l-0.53,0.06c-0.1,1.2-0.07,2.4,0.07,3.59
		c0.2,0.74,0.75,1.35,1.47,1.61c0.83,0.06,1.64-0.25,2.21-0.85c0.65-0.84,1.09-1.83,1.28-2.87c0.77-3.63,0.44-7.41-0.94-10.85
		c-0.26-0.63-0.66-1.19-1.18-1.64c-0.62-0.71-1.7-0.79-2.41-0.17c-0.14,0.12-0.25,0.26-0.35,0.42c-0.81,1.09-0.89,3.56-0.09,4
		c0.27,0.16,0.7,0,1.05,0l1.91-0.11c0,0.93,0.32,2.17-0.14,2.72c-0.74,0.77-0.87,1.94-0.32,2.86c0.45,1.09,0.83,2.26-0.58,3.33
		L184.4,272.62z M195.51,274.18c-0.22-1-0.81-2.08-0.51-2.69c0.81-1.39,0.63-3.14-0.44-4.34c-0.3-0.41,0.1-1.34,0.18-2
		c0.51,0.19,1,0.42,1.54,0.58c0.5,0.18,1.03,0.27,1.56,0.27c0.2,0,0.47-0.54,0.51-0.86c0.14-1.22-1.27-3.28-2.43-3.5
		c-1.74-0.34-2.56,0.78-2.95,2.21c-1.02,3.56-0.8,7.35,0.61,10.77c0.41,1,1.8,1.77,2.92,2.23c0.4,0.16,1.78-0.81,1.89-1.41
		c0.01-1.11-0.16-2.22-0.51-3.28l-1.69,1.64C196.14,273.87,196.08,273.89,195.51,274.18L195.51,274.18z M190.84,265.18
		c-1.11,3.33-0.84,7.67,0.42,9.32c0.22-2.98,0.82-5.88-0.42-9.28L190.84,265.18z"/>
	<path class="st0" d="M190.84,211.2c-0.88-1.73-1.9-1.75-3.11-1.05c-1.28,0.81-2.97,0.54-3.93-0.64c-1.77-1.77-3.39-3.76-1.83-6.41
		s0.45-4.9-0.27-7.32c-0.83-2.79,0.07-4.87,2.72-5.89c0.83-0.2,1.68-0.26,2.53-0.18c1.06,0,2.12,0,3.6,0c0.69,1,2.12,0.9,3.48,0.21
		c3-1.52,6,1.45,5.67,4.26c-0.2,1.58-0.79,3.1-1.07,4.68c-0.21,0.82-0.18,1.69,0.09,2.49c1.18,2.41,2.41,4.7,0.39,7.29
		c-1.26,1.62-3,2.27-4.75,1.33C192.87,209.19,191.76,209.16,190.84,211.2z M184.34,203.09l-0.75,0.14
		c-0.03,1.31,0.08,2.62,0.32,3.91c0.52,1.83,2.35,2.06,3.61,0.57c0.34-0.36,0.61-0.79,0.8-1.25c1.6-4.32,1.32-9.11-0.78-13.21
		c-0.53-0.86-1.46-1.38-2.47-1.41c-0.68,0.13-1.19,1.44-1.68,2.27c-0.13,0.36-0.15,0.74-0.06,1.11c0.15,1.19,0.61,2,1.93,1.1
		c1.15-0.79,1.68-0.11,1.85,0.83c0.14,0.7-0.01,1.42-0.42,2c-1,0.91-0.91,1.66-0.39,2.78c0.69,1.1,0.51,2.54-0.45,3.43
		L184.34,203.09z M195.98,204.62c-1.15-0.9-1.46-2.51-0.73-3.78c0.2-0.61,0.2-1.28,0-1.89c-0.13-0.52-0.71-1-0.78-1.46
		c0-0.63,0.1-1.26,0.28-1.86c0.46,0.17,0.92,0.36,1.39,0.5s1.11,0.26,1.67,0.39c0.12-0.57,0.55-1.36,0.32-1.67
		c-0.76-1-1.63-2.42-2.71-2.7c-1.6-0.41-2.43,1.23-2.64,2.57c-0.34,2.03-0.41,4.09-0.21,6.14c0.21,1.9,0.79,3.75,1.71,5.43
		c0.4,0.72,2,0.92,3.11,1c0.34,0,1-1,1.11-1.66c0.22-1.11,0.36-2.36-1.05-3.14C196.91,203.28,196.48,203.92,195.98,204.62z
		 M190.9,196.03c-1.23,2.32-1,7.6,0.37,9.22c0.12-3.07,0.84-6.06-0.39-9.18L190.9,196.03z"/>
	<path class="st0" d="M150.31,189.78c0.73,1,2.13,0.69,3.73,0.12c2.7-1,5.07,0.45,5.23,3.3c0.04,1.85-0.27,3.69-0.91,5.43
		c-0.51,0.95-0.47,2.09,0.1,3c0.4,0.7,0.76,1.43,1.06,2.18c1.08,2.25-0.34,5.79-2.74,6.46c-0.9,0.22-1.85,0.14-2.69-0.25
		c-1.49-0.75-2.61-0.9-3.38,1.14c-1.08-1.72-2.25-1.38-3.71-0.82c-0.99,0.29-2.07,0.14-2.94-0.42c-2.22-1.61-4.1-4-2.4-6.83
		c1.53-2.54,0.33-4.77-0.3-7.13c-0.77-2.89-0.12-4.79,2.23-5.82c1.05-0.28,2.14-0.39,3.23-0.3
		C147.8,189.75,148.79,189.78,150.31,189.78z M143.81,202.54c-0.22,0.76-0.38,1.54-0.48,2.33c0,1.52-0.08,3.27,1.75,3.7
		c2,0.48,2.91-1.19,3.16-2.71c0.47-2.49,0.63-5.04,0.48-7.57c-0.29-1.96-0.92-3.85-1.86-5.6c-0.52-0.66-1.34-0.99-2.17-0.88
		c-0.77,0.44-1.31,1.19-1.5,2.05c-0.06,0.9,0.08,1.8,0.4,2.64c0,0.09,0.66,0,1,0c0.64,0,1.27-0.08,1.91-0.12
		c0,0.87,0.42,2.06,0,2.55c-0.8,0.88-0.95,2.18-0.36,3.22c0.38,1,0.93,2.32-0.85,3L143.81,202.54z M155.65,204.74
		c-1.09-0.96-1.36-2.54-0.67-3.81c0.2-0.65,0.2-1.35,0-2c-0.1-0.46-0.66-0.82-0.75-1.27c-0.06-0.63-0.04-1.27,0.06-1.9
		c0.58,0.07,1.14,0.23,1.67,0.49c0.82,0.57,1.49,0.71,2-0.27s-0.76-3.21-2-3.72s-2.52-0.17-2.9,1.17c-0.65,1.87-0.99,3.84-1,5.83
		c0.19,2.34,0.77,4.64,1.71,6.79c0.34,0.78,2,1.1,3.17,1.34c0.28,0.05,1-1,1.17-1.59c0.33-1.18,0.53-2.45-1-3.28L155.65,204.74z
		 M150.94,196.24h-0.73c-0.8,2.9-0.71,5.96,0.25,8.81h0.52L150.94,196.24z"/>
	<path class="st0" d="M170.4,211.33c-0.89-2-2-1.59-3.28-1.2c-1.04,0.29-2.14,0.19-3.12-0.26c-2.6-1.37-3.77-4.1-2.49-6.63
		c1.38-2.72,0.56-5.1-0.31-7.53c-0.71-1.65-0.31-3.57,1-4.8c1.16-1.3,3-1.73,4.62-1.09c0.83,0.28,1.85,0,3.29-0.09
		c0.74,0.88,2,0.8,3.62,0.22c2.87-1,5.16,0.29,5.36,3.3c0.04,1.91-0.3,3.8-1,5.58c-0.42,0.81-0.38,1.77,0.11,2.54
		c1.37,2.25,2.44,4.52,0.56,7.09c-1.3,1.77-2.94,2.46-4.84,1.5C172.44,209.19,171.33,209.2,170.4,211.33z M163.91,202.98h-0.38
		c-0.1,0.76-0.25,1.51-0.28,2.28c0,1.4,0,2.85,1.72,3.31c1.35,0.38,2.53-0.61,3.14-2.55c1.1-3.73,1.01-7.72-0.26-11.4
		c-0.3-0.88-0.81-1.68-1.47-2.33c-0.59-0.78-1.71-0.94-2.49-0.34c-0.37,0.28-0.62,0.7-0.69,1.16c-0.22,0.71-0.31,1.46-0.25,2.2
		c0.09,1,0.56,1.62,1.76,1.05c0.44-0.21,1.42-0.24,1.52,0c0.33,0.66,0.74,1.85,0.44,2.14c-1.5,1.48-1.1,3-0.41,4.55
		c0.11,0.23,0.14,0.48,0.08,0.73c-0.21,0.43-0.44,0.84-0.7,1.24c-0.36-0.23-0.7-0.5-1-0.81
		C164.35,203.82,164.11,203.41,163.91,202.98z M175.71,204.6h-0.67c-0.15-0.93-0.75-2.13-0.38-2.75c1-1.67,0.33-2.8-0.52-4.15
		c-0.29-0.46,0.07-1.33,0.14-2c0.53,0.12,1.04,0.3,1.53,0.55c0.77,0.48,1.47,0.84,2-0.21s-0.68-3.24-1.87-3.76
		c-0.95-0.57-2.18-0.27-2.75,0.68c-0.08,0.14-0.15,0.28-0.19,0.43c-0.68,1.8-1.05,3.69-1.11,5.61c0.07,2.63,0.11,5.5,2.17,7.52
		c0.87,0.61,1.94,0.89,3,0.78c0.37,0,0.87-1.2,1-1.92c0.2-1.06,0.33-2.26-1.15-2.82L175.71,204.6z M170.33,196.26
		c-1.03,2.86-0.94,6.01,0.23,8.81C171.17,202.12,171.65,199.17,170.33,196.26L170.33,196.26z"/>
	<path class="st0" d="M126.73,196.17c0.86,0.6,1.06,1.79,0.46,2.65c-0.09,0.13-0.2,0.25-0.32,0.35c-0.75,0.69-0.91,1.8-0.4,2.68
		c0.27,0.49,0.44,1.04,0.48,1.6c-0.12,0.57-0.34,1.12-0.64,1.63c-0.44-0.34-0.86-0.7-1.25-1.1c-2.91-3.38-1.8-7.74-2.74-11.61
		c-0.46-1.93,2.33-3.24,4.92-2.62c1.17,0.12,2.35,0.12,3.52,0c0.61,0.85,1.9,0.79,3.48,0.2c3.08-1.14,5.42,0.35,5.57,3.67
		c0.07,1.67-0.25,3.34-0.94,4.87c-0.64,1.06-0.55,2.41,0.21,3.39c2,3.11,1.86,4.76-0.19,7.11c-1.21,1.39-2.64,1.91-4.33,1
		c-1.43-0.78-2.6-0.83-3.43,1c-1-1.53-2.11-1.29-3.46-0.69c-1.92,0.86-2.85,0.26-2.77-1.58c2.71,0.33,3.54-1.58,4.07-3.66
		c0.77-3.31,0.64-6.76-0.36-10c-0.25-0.84-0.66-1.62-1.2-2.31c-0.77-1-1.77-1.71-3-0.61c-1,0.88-1.38,3.6-0.49,4.09
		C124.51,196.62,125.45,196.24,126.73,196.17z M136.3,204.68c-1.25-0.82-1.65-2.48-0.89-3.77c0.2-0.62,0.2-1.29,0-1.91
		c-0.12-0.52-0.66-0.94-0.78-1.46c-0.05-0.58-0.02-1.16,0.09-1.73c0.53,0.05,1.05,0.19,1.54,0.41c0.85,0.58,1.59,0.9,2.11-0.26
		c0.45-1-0.77-3.18-2-3.68c-1.47-0.58-2.39,0.14-3,1.42c-0.23,0.51-0.41,1.05-0.52,1.6c-0.59,3-0.41,6.09,0.51,9
		c0.34,1,0.93,1.89,1.71,2.59c1.08,1,2.77,0.82,3.3-0.09c0.92-1.38,0.55-3.24-0.82-4.16c-0.02-0.01-0.04-0.03-0.06-0.04
		L136.3,204.68z M131.11,204.99c0.6-2.9,1.05-5.81-0.19-8.67C129.78,199.23,130.2,202.1,131.11,204.99z"/>
	<path class="st0" d="M179.85,157.62c1.07-0.65,2.12-1.32,3.2-1.94c2.69-1.54,2.72-1.81,0.7-4.08c-0.65-0.8-1.25-1.64-1.81-2.5
		l0.42-0.58c1.27,0.64,2.58,1.23,3.8,2c1.93,1.13,2.58,0.86,3-1.37c0.32-1.59,0.68-3.18,1-4.76h0.88l1.45,6.35l5.95-4.71l0.66,0.46
		c-0.59,1.31-1.21,2.59-1.75,3.92c-0.33,0.83-1,1.93-0.67,2.51s1.56,0.76,2.43,0.83c1.47,0.13,3,0,4.44,0l0.14,0.7l-4.58,1.56
		c-3,1-3.15,1.69-1.13,4.16c0.76,0.93,1.44,1.91,2.16,2.87l-0.5,0.59c-1.09-0.59-2.21-1.15-3.27-1.78
		c-2.32-1.39-2.86-1.12-3.14,1.54c-0.09,0.87-0.33,1.72-0.5,2.57h-0.78c-0.16-0.9-0.38-1.79-0.66-2.66
		c-0.3-0.83-0.68-2.13-1.23-2.25c-0.76-0.16-1.79,0.49-2.57,1c-0.91,0.67-1.79,1.39-2.61,2.17l-0.47-0.35
		c0.43-1.14,0.85-2.28,1.3-3.41c0.63-1.59,0.39-2-1.34-2.12c-1.46-0.06-2.92,0-4.37,0L179.85,157.62z M191.7,158.32
		c1.71,0,3.28-1.2,3.31-2.64s-1.59-2.69-3.66-2.78s-3.37,1.06-3.4,2.7s1.21,2.6,3.75,2.67V158.32z"/>
	<path class="st0" d="M151.64,123.73c1-0.6,1.89-1.26,2.89-1.79c3-1.6,3.12-2.13,0.76-4.55c-0.59-0.67-1.13-1.38-1.64-2.11
		l0.43-0.59c1.1,0.42,2.17,0.91,3.22,1.45c2.81,1.65,3.3,1.44,3.82-1.73c0.21-1.3,0.59-2.58,0.89-3.87l0.88-0.06l1.39,6.25l5.9-4.58
		l0.69,0.47c-0.54,1.3-1.12,2.59-1.63,3.9c-0.31,0.82-0.53,1.68-0.8,2.53c0.9,0.34,1.82,0.59,2.76,0.77c1.39,0.13,2.8,0,4.2,0
		l0.12,0.7l-4.09,1.37c-3.4,1.17-3.6,1.93-1.29,4.63c0.65,0.77,1.22,1.61,1.83,2.42l-0.52,0.66c-1.14-0.61-2.3-1.17-3.41-1.83
		c-2.05-1.23-2.51-1-2.84,1.33c-0.18,0.92-0.41,1.82-0.69,2.71h-0.76c-0.25-1-0.5-2.06-0.74-3.09c-0.49-2-1.57-2.43-3.18-1.08
		c-1,0.84-1.93,1.79-2.89,2.7l-0.67-0.45c0.43-1.11,0.82-2.25,1.3-3.33c0.65-1.45,0.23-2.14-1.35-2.14h-4.38L151.64,123.73z
		 M163.4,124.56c2.14,0,3.54-1,3.58-2.69c0.05-1.84-1.43-3-3.9-3c-2.2,0-3.56,1.08-3.56,2.9S160.98,124.55,163.4,124.56z"/>
	<path class="st0" d="M129.18,183.24c0.37-1.1,0.7-2.22,1.12-3.3c0.73-1.9,0.5-2.31-1.58-2.38c-1.34,0-2.69,0-4,0l-0.25-0.59
		c1.2-0.73,2.4-1.49,3.62-2.2c2.2-1.28,2.26-1.71,0.56-3.64c-0.71-0.81-1.32-1.71-2-2.56l0.61-0.67c1.1,0.47,2.18,1,3.22,1.59
		c2.45,1.49,3,1.26,3.46-1.63c0.25-1.41,0.62-2.8,0.94-4.2h0.92l1.35,6.27c1.16-0.87,2.12-1.57,3.06-2.3s1.89-1.52,2.84-2.28
		l0.63,0.38c-0.39,1.09-0.73,2.2-1.18,3.26c-0.24,0.57-0.72,1-1,1.59c-0.68,1.43-0.18,2.31,1.41,2.4c1.19,0.08,2.38,0,3.56,0
		c0.64,0.06,1.28,0.15,1.91,0.27l0.05,0.5l-2.55,0.88c-1.14,0.34-2.25,0.74-3.34,1.21c-0.8,0.24-1.25,1.09-1,1.88
		c0.09,0.28,0.26,0.54,0.48,0.73c0.64,0.77,1.34,1.49,1.93,2.3c0.33,0.53,0.62,1.1,0.86,1.68l-0.41,0.48l-5.8-3l-1.11,5.3
		l-0.71,0.08c-0.27-0.92-0.48-1.87-0.83-2.76s-0.71-2.13-1.21-2.2c-0.93,0.05-1.82,0.4-2.54,1c-0.87,0.67-1.68,1.4-2.45,2.18
		L129.18,183.24z M136.42,177.84c1.78,0.12,3.32-1.22,3.45-3c0-1.73-1.84-3-4.34-2.88c-1.65-0.09-3.07,1.18-3.16,2.84
		c0,0.05,0,0.11,0,0.16C132.44,176.84,133.91,177.88,136.42,177.84z"/>
	<path class="st0" d="M124.55,141.42c1.23,0.59,2.49,1.13,3.68,1.8c2.33,1.31,2.81,1.1,3.35-1.53c0.29-1.46,0.67-2.91,1-4.37h0.87
		l1.33,6.34l5.95-4.8l0.59,0.44c-0.65,1.48-1.21,3-1.95,4.44c-1,2-0.74,2.68,1.54,2.9c1,0.09,2-0.06,3,0
		c0.65,0.05,1.3,0.14,1.94,0.26v0.53c-1.57,0.53-3.14,1-4.69,1.6c-2.44,0.88-2.65,1.75-1,3.82c0.74,0.92,1.41,1.89,2.11,2.83
		l-0.53,0.65c-1.1-0.56-2.22-1.07-3.28-1.68c-2.09-1.21-2.51-1-2.85,1.36c-0.14,1-0.38,2-0.57,2.93l-0.77,0.05
		c-0.24-0.89-0.43-1.79-0.74-2.66s-0.6-2.2-1.11-2.3c-0.94,0.01-1.85,0.34-2.58,0.94c-0.92,0.71-1.78,1.48-2.59,2.31l-0.6-0.35
		c0.44-1.22,0.81-2.47,1.35-3.64c0.66-1.44,0.13-2-1.29-2s-3,0-4.45,0l-0.21-0.46c0.43-0.44,0.9-0.85,1.4-1.21
		c0.79-0.49,1.67-0.85,2.48-1.31c1.89-1.09,2-1.68,0.54-3.3c-0.84-1-1.62-2-2.42-2.93L124.55,141.42z M133.84,151.42
		c2.22,0,3.61-1.08,3.64-2.87s-1.36-2.9-3.6-2.94c-2.42,0-3.85,1-3.82,2.87s1.32,2.96,3.78,2.97V151.42z"/>
	<path class="st0" d="M159.12,163.98c0.26,1.2,0.48,2.42,0.78,3.61c0.18,0.69,0.47,1.35,0.71,2c0.72-0.29,1.41-0.65,2.07-1.07
		c0.89-0.68,1.62-1.56,2.51-2.23c0.32-0.23,0.9-0.1,1.36-0.14c0.1,0.4,0.12,0.82,0.06,1.23c-0.39,0.92-0.85,1.8-1.37,2.65
		c-1.38,2.26-1,3,1.6,3.12c1.57,0,3.14,0,4.71,0l0.08,0.8l-4.65,1.6c-2.59,0.87-2.83,1.79-1.1,3.87c0.84,1,1.58,2.1,2.36,3.15
		l-0.53,0.6c-1.21-0.66-2.42-1.31-3.62-2c-2-1.12-2.43-0.91-2.73,1.34c-0.13,1-0.36,1.87-0.54,2.81l-0.57,0.08
		c-0.29-0.46-0.55-0.94-0.75-1.45c-0.21-0.65-0.23-1.36-0.39-2c-0.44-1.72-1.42-2.07-2.87-1c-0.75,0.55-1.41,1.24-2.13,1.84
		c-0.46,0.4-1.05,0.63-1.66,0.64c0.39-1.15,0.76-2.3,1.16-3.44c0.62-1.76,0.35-2.2-1.56-2.26c-1.33-0.05-2.67,0-4,0l-0.2-0.46
		c0.51-0.44,1.05-0.86,1.61-1.25c0.84-0.53,1.74-1,2.61-1.47c1.37-0.75,1.27-1.67,0.35-2.72s-1.75-2-2.63-3.06l0.42-0.61
		c1.12,0.5,2.29,0.91,3.36,1.5c2.77,1.56,3.27,1.33,3.8-1.86c0.21-1.26,0.52-2.5,0.78-3.74L159.12,163.98z M159.2,172.24
		c-2.07-0.05-3.48,1.07-3.53,2.79s1.37,3,3.72,3.08c2,0.07,3.73-1.24,3.81-2.85S161.67,172.3,159.2,172.24z"/>
	<path class="st0" d="M160.88,158.62c-0.26-1.1-0.52-2.2-0.77-3.3c-0.48-2.08-1.47-2.43-3.15-1.06c-0.92,0.74-1.78,1.56-2.68,2.32
		c-0.29,0.11-0.6,0.19-0.91,0.23c0.35-1.28,0.77-2.54,1.27-3.77c0.77-1.61,0-2.06-1.38-2.13s-2.47,0-3.71,0
		c-0.22,0-0.44-0.18-1.15-0.5c1.49-0.88,2.67-1.6,3.88-2.28c2.24-1.25,2.32-1.84,0.56-3.77c-0.73-0.79-1.36-1.68-2-2.52l0.46-0.63
		c1.22,0.6,2.48,1.14,3.66,1.82c2.12,1.22,2.79,0.93,3.26-1.52c0.29-1.48,0.62-2.95,0.93-4.43h0.92l1.39,6.31l6-4.75l0.67,0.56
		c-0.69,1.4-1.32,2.84-2.07,4.21c-1.13,2.07-0.73,2.89,1.57,2.95c1.66,0.05,3.31,0,5,0l0.11,0.69c-0.43,0.24-0.87,0.45-1.33,0.63
		c-0.66,0.21-1.34,0.32-2,0.52c-4.47,1.33-4.65,2-1.67,5.43c0.46,0.63,0.87,1.3,1.24,1.99l-0.48,0.55c-1-0.56-2.08-1.09-3.08-1.7
		c-2.33-1.42-2.8-1.22-3.23,1.41c-0.15,0.89-0.34,1.76-0.52,2.65L160.88,158.62z M160.57,151.14c1.95,0.12,3.44-1,3.54-2.7
		s-1.49-3.08-3.86-3.17c-1.76-0.06-3.49,1.16-3.63,2.56c-0.21,2.09,1.01,3.11,3.95,3.3V151.14z"/>
	<path class="st0" d="M191.16,167.06c0.45,1.95,0.89,3.9,1.43,6.28l5.81-4.6l0.48,0.29c-0.07,0.68-0.21,1.35-0.41,2
		c-0.39,0.85-0.83,1.67-1.32,2.47c-1.09,2-0.68,2.78,1.55,2.85c1.63,0.06,3.27,0,4.9,0l0.1,0.85l-3.59,1.17
		c-3.84,1.25-4.06,2-1.47,5c0.54,0.7,1.04,1.44,1.49,2.21l-0.46,0.6l-5.76-2.87c-0.25,1.46-0.39,2.61-0.68,3.72
		c-0.11,0.45-0.56,0.82-0.86,1.23c-0.27-0.37-0.56-0.73-0.8-1.12c-0.09-0.15,0-0.38-0.1-0.55l-1.39-3c-1,0.52-2.06,1-3,1.58
		c-0.68,0.5-1.33,1.04-1.94,1.63l-0.53-0.3c0.37-1,0.74-2.1,1.13-3.14c0.69-1.87,0.29-2.44-1.75-2.46h-3.76l-0.21-0.6
		c1.12-0.69,2.21-1.42,3.36-2.06c2.4-1.34,2.47-1.83,0.57-3.86c-0.7-0.75-1.3-1.6-1.94-2.41l0.33-0.56c0.86,0.29,1.75,0.53,2.58,0.9
		c0.67,0.31,1.25,0.81,1.91,1.17c1.23,0.67,2,0.31,2.33-1.07c0.23-1.11,0.35-2.23,0.6-3.32c0.18-0.68,0.4-1.35,0.65-2L191.16,167.06
		z M191.63,181.22c2,0,3.57-1.17,3.6-2.74c0-1.82-1.39-3-3.72-3c-2.5,0-3.7,0.91-3.73,2.89
		C187.76,180.15,189.2,181.21,191.63,181.22z"/>
	<path class="st0" d="M202.8,107.96c-1.7,0.58-3.41,1.13-5.09,1.74c-1.88,0.69-2.16,1.65-0.95,3.27c0.52,0.69,1.22,1.26,1.73,2
		c0.32,0.53,0.59,1.1,0.81,1.68l-0.4,0.41c-1.12-0.58-2.27-1.12-3.36-1.76c-2.34-1.36-2.54-1.26-3,1.48
		c-0.13,0.86-0.38,1.7-0.58,2.55h-0.76c-0.21-0.77-0.36-1.56-0.63-2.31s-0.71-2.46-1.11-2.48c-1.04,0.09-2.04,0.46-2.88,1.08
		c-0.81,0.62-1.57,1.31-2.26,2.06l-0.52-0.31c0.27-0.84,0.47-1.7,0.81-2.5c1.16-2.83,0.94-3.16-2.19-3.11c-1,0-2.08,0-3.12,0
		l-0.23-0.58c0.86-0.58,1.7-1.21,2.6-1.72c3.54-2,3.55-2.07,0.82-5c-0.49-0.59-0.95-1.21-1.37-1.86l0.4-0.6
		c1.16,0.56,2.35,1,3.47,1.67c2.59,1.45,2.9,1.33,3.54-1.6c0.3-1.37,0.61-2.74,0.91-4.11l0.81-0.09c0.46,1.93,0.93,3.87,1.48,6.19
		l5.89-4.61l0.58,0.33c-0.21,0.83-0.46,1.64-0.76,2.44c-0.38,0.86-0.94,1.62-1.36,2.46c-0.7,1.43-0.36,2.15,1.2,2.33
		c1.17,0.14,2.36,0,3.55,0.12c0.69,0,1.37,0.17,2.06,0.26L202.8,107.96z M190.51,106.17c-2.33,0-3.58,1-3.57,2.86s1.43,2.93,4,2.93
		c2.12,0,3.59-1.23,3.54-3S192.83,106.16,190.51,106.17L190.51,106.17z"/>
	<path class="st0" d="M123.8,124.31c1.27-0.84,2.53-1.73,3.83-2.53s1.49-1.71,0.58-2.92s-1.71-2.37-2.56-3.55l0.45-0.58
		c1.03,0.44,2.03,0.93,3,1.49c2.76,1.83,3.13,1.68,3.68-1.65c0.19-1.16,0.42-2.33,0.68-3.48c0-0.22,0.26-0.4,0.54-0.78
		c1.89,1.73,0.41,4.35,2,6.37l5.27-4.62l0.7,0.47c-0.63,1.5-1.18,3-1.9,4.5c-1.12,2.3-0.73,3.09,1.8,3.2c1.4,0.06,2.8,0,4.2,0
		l0.13,0.76l-4,1.53c-3.06,1.17-3.21,1.76-1.28,4.41c0.73,1,1.35,2.09,2,3.13l-0.56,0.55c-1.12-0.68-2.25-1.35-3.37-2.05
		c-1.75-1.09-2.18-0.87-2.43,1.21c-0.13,1.12-0.33,2.23-0.5,3.34l-0.74,0.05c-0.19-1.03-0.44-2.05-0.75-3.05
		c-0.35-0.82-0.76-1.61-1.23-2.37c-0.86,0.39-1.69,0.85-2.48,1.37c-0.76,0.68-1.47,1.41-2.12,2.19l-0.51-0.29
		c0.36-1.27,0.71-2.56,1.09-3.83c0.52-1.7,0.25-2.12-1.55-2.17c-1.27-0.05-2.55,0-3.83,0L123.8,124.31z M134.86,125.31
		c1.72,0.13,3.22-1.16,3.34-2.88c0-0.04,0.01-0.08,0.01-0.12c0-1.79-1.4-3.08-3.5-3.11s-3.46,1.12-3.43,3.23
		C131.3,124.22,132.64,125.31,134.86,125.31z"/>
	<path class="st0" d="M191.27,143.97c-0.17-0.98-0.39-1.95-0.66-2.91c-0.26-0.77-0.59-1.87-1.16-2.09s-1.63,0.29-2.29,0.74
		c-0.97,0.75-1.89,1.56-2.75,2.43l-0.51-0.3c0.4-1.18,0.73-2.38,1.23-3.52c0.6-1.39,0.16-2-1.28-2.08s-2.93,0-4.4,0l-0.22-0.71
		c1.17-0.7,2.33-1.42,3.52-2.09c2.17-1.23,2.28-1.79,0.67-3.68c-0.72-0.83-1.4-1.69-2.09-2.53l0.39-0.61
		c0.9,0.33,1.77,0.73,2.61,1.18c3.26,2.08,3.84,1.82,4.45-2c0.18-1.12,0.51-2.21,0.77-3.32h0.86c0.44,1.89,0.89,3.78,1.44,6.13
		l5.95-4.61l0.49,0.3c-0.11,0.74-0.29,1.46-0.54,2.16c-0.4,0.91-1,1.73-1.48,2.61c-0.92,1.69-0.44,2.57,1.53,2.69c1,0.06,2,0,3,0
		c0.71,0,1.42,0.14,2.14,0.21l0.08,0.54c-1.31,0.43-2.63,0.86-3.94,1.27c-3.57,1.12-3.82,2.14-1.29,4.83
		c0.65,0.78,1.24,1.61,1.77,2.48l-0.47,0.6c-1.09-0.6-2.21-1.14-3.26-1.8c-2.33-1.44-2.71-1.28-3.21,1.43
		c-0.16,0.92-0.38,1.82-0.57,2.73L191.27,143.97z M190.92,136.39c2.14,0,3.56-1,3.58-2.69s-1.6-3.08-3.72-3.12s-3.75,1.22-3.75,3
		S188.34,136.34,190.92,136.39L190.92,136.39z"/>
	<path class="st0" d="M191.98,280.47c1.11,0.18,2.25,0.21,3.37,0.1c2.69-0.61,4.35,0.25,4.61,3c0.11,1.48-0.14,2.96-0.72,4.33
		c-0.45,0.87-0.39,1.92,0.15,2.73c1.54,2.68,1.58,3.05,0.92,4.65c-2.65-0.25,0.09-3.31-2.37-3.91c-0.14,0.29-0.39,0.78-0.64,1.28
		l-0.74-0.05c-0.18-0.68-0.72-1.61-0.47-2c0.82-1.16,0.5-2-0.12-3c-0.25-0.72-0.38-1.47-0.37-2.23c0.61,0,0.76-0.05,0.85,0
		c0.72,0.41,1.54,1.77,2.2,0.47c0.33-0.65-0.37-2.15-1-2.88c-0.59-0.71-1.65-0.81-2.37-0.21c-0.21,0.17-0.37,0.39-0.47,0.64
		c-0.41,0.96-0.68,1.97-0.81,3c-0.09,0.77-0.33,1.51-0.71,2.19c-0.17-0.78-0.34-1.56-0.57-2.65l-1.25,1.69
		c-0.35-0.75-0.65-1.52-0.91-2.3c-0.63-2.54-1.08-2.9-3.7-3c-0.41-0.03-0.79-0.26-1-0.62c-0.01-0.41,0.2-0.79,0.55-1
		c1.07-0.18,2.16-0.2,3.25-0.29l2.14-0.19L191.98,280.47z"/>
	<path class="st0" d="M263.15,197c-0.47,3.21-2.54,5.96-5.49,7.31c-5.52,2.62-11.52-1.27-12.36-6.89c-0.26-2.44,0.82-4.83,2.82-6.25
		c5-4.1,12.94-1.14,14.17,3.74C262.52,195.63,262.81,196.33,263.15,197z M254.15,190.51c-4.24-0.1-7,2.38-7.17,6.38
		c-0.17,3.8,2.77,7.01,6.56,7.18c0.15,0.01,0.29,0.01,0.44,0.01c3.94,0.08,7.22-3,7.38-6.94c0.14-3.82-2.81-6.52-7.19-6.63H254.15z"
		/>
	<path class="st0" d="M220.8,197.34c-0.48,2.83-2.21,5.29-4.71,6.7c-4.24,2.35-9.58,0.82-11.94-3.42c-0.59-1.07-0.95-2.24-1.06-3.46
		c-0.19-2.3,0.85-4.53,2.74-5.87c3.2-2.53,6.64-2.56,10.19-0.89C218.98,191.77,220.21,194.37,220.8,197.34z M211.68,190.52
		c-3.56-0.3-6.68,2.34-6.98,5.89c-0.02,0.24-0.03,0.49-0.02,0.74c0.11,3.93,3.39,7.02,7.32,6.91c0.01,0,0.02,0,0.03,0
		c3.8,0.03,6.94-2.98,7.06-6.78C219.08,193.05,216.24,190.47,211.68,190.52L211.68,190.52z"/>
	<path class="st0" d="M282.74,197.62c-0.61-4.56-2.81-6.84-6.8-7.07s-6.82,1.54-7.66,4.84c-0.86,3.36,0.92,6.84,4.16,8.09
		c3.71,1.63,6.89,0.3,10-4.16c0.62,1.6,0.51,2-0.68,3.09c-5,4.42-10.65,3.5-13.89-0.88c-2.41-3.49-1.54-8.28,1.96-10.7
		c0.12-0.08,0.25-0.17,0.37-0.24c4.14-2.49,9.5-1.43,12.39,2.44c0.82,1.12,0.56,3,0.8,4.59L282.74,197.62z"/>
	<path class="st0" d="M216.92,290.35c-0.15-5.68-1.13-7.22-4.51-7.2c-3.2,0-5.2,1.75-5.28,4.57c-0.1,3.34,1.9,4.71,7.34,5.35
		c-0.7,0.42-1.47,0.72-2.27,0.89c-3.13,0.11-5.52-1.36-6.5-3.8c-0.92-2.33-0.33-4.99,1.49-6.71c2.34-1.88,5.55-2.27,8.27-1
		c1.86,0.82,3.18,2.54,3.5,4.55C219.3,288.76,218.54,289.73,216.92,290.35z"/>
	<path class="st0" d="M275.03,202.67c-3.07,0.16-5.69-2.2-5.85-5.28c0-0.01,0-0.02,0-0.02c-0.05-3.44,2.74-5.92,6.59-5.87
		c3.21,0.03,5.83,2.58,5.94,5.79C281.75,200.27,278.79,202.62,275.03,202.67z M275.14,201.46c2.93,0,4.67-1.61,4.67-4.39
		c0.13-2.17-1.53-4.03-3.69-4.15c-0.06,0-0.12-0.01-0.18-0.01c-3.24-0.07-5,1.46-5.06,4.37c-0.1,2.21,1.6,4.08,3.81,4.18
		C274.83,201.47,274.99,201.47,275.14,201.46L275.14,201.46z"/>
	<path class="st0" d="M250.16,266.62c-2.41-3.49-4.84-4.32-7.82-2.69c-2.25,1.24-2.71,3.94-1.24,7.53c-0.83,1-1.43,0.57-2-0.31
		c-1.56-2.72-0.83-6.18,1.68-8.05c3.2-2.1,7.46-1.54,10,1.33C251.77,265.53,251.66,266.23,250.16,266.62z"/>
	<path class="st0" d="M212.19,291.33c-2.53,0-4.24-1.46-4.16-3.55c0.2-2.03,1.97-3.53,4-3.39c2.58,0,4,1.19,4,3.37
		S214.56,291.34,212.19,291.33z M214.28,287.43c-0.13-1.05-1.09-1.8-2.15-1.66c-0.01,0-0.02,0-0.03,0c-1.23,0.05-2.23,0.56-2.17,2
		c-0.07,1.1,0.76,2.06,1.86,2.13c0.15,0.01,0.3,0,0.45-0.02C213.67,289.92,214.23,289.1,214.28,287.43z"/>
	<path class="st0" d="M234.82,275.72c-0.57-0.03-1.13-0.08-1.69-0.17c-1.31-0.25-2.64-0.85-3.92-0.75c-3.36,0.27-5,3.13-4,6.36
		c0.21,0.69,0.21,1.42,0,2.11c-1.54-0.8-2.39-2.5-2.1-4.21c0.06-2.47,1.7-4.62,4.07-5.32c2.63-1.11,5.67-0.59,7.79,1.33
		L234.82,275.72z"/>
	<path class="st0" d="M265.59,238.47c2.07,0,3.45,1.25,3.42,3.12c0,2.09-1.36,3.25-3.72,3.22c-2.11,0-3.5-1.26-3.48-3.08
		C261.83,239.76,263.34,238.47,265.59,238.47z M265.95,239.47h-0.88c-0.52,0.66-1.33,1.27-1.49,2c-0.28,1.24,0.59,2,1.82,2.07
		c0.88,0.19,1.75-0.37,1.93-1.25c0.05-0.22,0.05-0.44,0.01-0.66c-0.09-0.76-0.9-1.43-1.36-2.14L265.95,239.47z"/>
	<path class="st0" d="M257.3,260.62c-1.88-1.94-2.14-4.94-0.62-7.17c1.5-2.29,4.62-3.35,7.92-2.34c-0.74,0.4-1.15,0.8-1.58,0.83
		c-4.47,0.36-5.8,2-5.27,6.45C257.69,259.15,257.54,259.9,257.3,260.62z"/>
	<path class="st0" d="M248.16,268.45c-1.09-1-1.76-2-2.68-2.4c-0.57-0.24-2.12,0.35-2.2,0.76c-0.05,1.27,0.08,2.55,0.38,3.79
		c-0.54,0.54-1.35,0.3-2-0.72c-0.84-1.17-0.78-2.75,0.13-3.86c1.16-1.58,2.81-1.74,4.55-1.42c1.36,0.19,2.41,1.27,2.57,2.63
		C248.98,267.67,248.31,268.22,248.16,268.45z"/>
	<path class="st0" d="M280.47,216.87c-2.36-0.88-3.72-3.36-3.19-5.83c0.41-2.25,2.3-3.94,4.59-4.09c-1,1.56-2.59,2.94-2.82,4.5
		S279.89,214.85,280.47,216.87z"/>
	<path class="st0" d="M232.34,277.18c-0.54,0.14-1.09,0.21-1.65,0.21c-2.23-0.25-2.89,0.37-2.88,2.65c0,0.46-0.49,0.92-0.75,1.37
		c-0.38-0.42-1-0.78-1.1-1.26c-0.38-1.39,0.24-2.85,1.5-3.54c1.46-0.96,3.36-0.96,4.82,0L232.34,277.18z"/>
	<path class="st0" d="M259.03,258.28c-0.92-3,0.35-4.63,3.43-4.77L259.03,258.28z"/>
	<path class="st0" d="M128.28,222.84c-0.37-0.63-0.66-1.3-0.89-2c-0.09-0.42,0.24-0.93,0.38-1.4c0.43,0.27,1,0.45,1.26,0.84
		c0.56,0.7,0.45,1.73-0.26,2.29C128.62,222.69,128.46,222.78,128.28,222.84z"/>
	<path class="st0" d="M281.45,209.71c-0.27,1.45-0.49,2.66-0.74,4C279.36,212.14,279.56,210.97,281.45,209.71z"/>
	<path class="st0" d="M264.15,221.4c3.3,0,5.78,1.86,6.15,4.58c0.47,3.49-1.86,6.13-5.67,6.42s-6.61-1.95-6.76-5.36
		C257.72,223.78,260.39,221.38,264.15,221.4z M264.06,231.12c2.25,0.23,4.27-1.41,4.5-3.66c0.02-0.16,0.02-0.31,0.02-0.47
		c0.17-2.23-1.51-4.17-3.74-4.34c-0.19-0.01-0.39-0.01-0.58,0c-2.7-0.06-4.62,1.55-4.75,4
		C259.36,229.37,261.04,231.03,264.06,231.12L264.06,231.12z"/>
	<path class="st0" d="M212.21,226.37c4.86,0.34,8.06,4.56,6.37,8.62c-1,2.46-3.95,4-7.31,3.82c-2.72,0.02-5.11-1.78-5.83-4.4
		c-0.73-2.48,0.27-5.15,2.45-6.54C209.27,227.22,210.72,226.72,212.21,226.37z M212.14,237.62c2.66,0.07,4.88-2.03,4.95-4.69
		s-2.03-4.88-4.69-4.95c-3.19,0-5.27,1.86-5.27,4.8S209.06,237.55,212.14,237.62z"/>
	<path class="st0" d="M212.31,246.11c5.51-0.16,8.13,5.22,6,8.85c-1.66,2.87-6.38,4.24-9.63,2.75c-2.91-1.36-4.23-4.77-3-7.73
		C206.68,247.42,208.98,246.1,212.31,246.11z M212.15,256.97c2.52,0.18,4.72-1.71,4.9-4.24c0.01-0.14,0.01-0.29,0.01-0.43
		c-0.05-3-1.89-4.9-4.7-4.91c-3,0-5.22,1.91-5.27,4.62C207.03,254.98,209.05,256.96,212.15,256.97z"/>
	<path class="st0" d="M239.71,249.88c0-4.44,2.68-7.28,6.8-7.27c3.17,0.23,5.66,2.82,5.74,6c0,4-3.11,7.45-6.67,7.47
		S239.69,253.78,239.71,249.88z M241,249.54c0.09,2.72,2.36,4.85,5.07,4.76c0.03,0,0.05,0,0.08,0c2.63-0.17,4.63-2.44,4.46-5.08
		c0-0.05-0.01-0.09-0.01-0.14c0.07-2.57-1.96-4.71-4.53-4.78c-0.11,0-0.22,0-0.34,0c-2.76,0.13-4.88,2.48-4.75,5.24c0,0,0,0,0,0H241
		z"/>
	<path class="st0" d="M222.25,262.62c0.26-4.55,3-7.35,6.9-7.12c3.27,0.16,5.79,2.94,5.63,6.21c0,0.07-0.01,0.14-0.01,0.21
		c-0.3,4.3-3.31,7.23-7.18,7C224.1,268.68,222.04,266.24,222.25,262.62z M233.17,262.02c0.11-2.57-1.88-4.75-4.45-4.86
		c-0.13-0.01-0.25-0.01-0.38,0c-2.67,0.12-4.77,2.33-4.77,5c-0.11,2.65,1.96,4.89,4.62,5c0.09,0,0.19,0,0.28,0
		c2.84-0.01,4.65-2,4.7-5.18V262.02z"/>
	<path class="st0" d="M212.4,263.9c3.56-0.12,6.54,2.68,6.66,6.24c0.01,0.31,0,0.62-0.04,0.93c-0.51,3.4-4.95,5.85-8.85,4.89
		s-5.76-4.22-4.59-7.81C206.45,265.49,208.98,263.89,212.4,263.9z M212.4,265.34c-3.11-0.06-5.21,1.76-5.28,4.59
		c-0.22,2.75,1.83,5.16,4.58,5.39c2.75,0.22,5.16-1.83,5.39-4.58c0.22-2.75-1.83-5.16-4.58-5.39
		C212.47,265.34,212.43,265.34,212.4,265.34z"/>
	<path class="st0" d="M211.83,220.37c-3.49,0-5.93-2.13-6-5.32s2.47-5.64,6.11-5.66s6.2,2.17,6.27,5.29
		C218.31,218.14,215.86,220.32,211.83,220.37z M211.93,219.16c2.9,0,4.52-1.53,4.54-4.25s-1.49-4.29-4.35-4.29
		c-2.73,0-4.56,1.65-4.58,4.11c-0.02,2.89,1.58,4.45,4.44,4.43H211.93z"/>
	<path class="st0" d="M235.49,229.27c0,2.8-3.08,5.24-6.48,5.18s-6-2.46-6-5.49c0-3.27,2.78-5.73,6.42-5.66
		S235.52,225.75,235.49,229.27z M229.49,233.22c2.33,0.01,4.22-1.88,4.23-4.21c0-0.04,0-0.07,0-0.11c0.06-2.66-1.83-4.34-4.92-4.35
		c-2.29,0.11-4.09,2-4.09,4.29c0.05,2.65,1.92,4.36,4.82,4.38L229.49,233.22z"/>
	<path class="st0" d="M229.1,250.07c-3.3,0-5.84-2.34-5.86-5.32c0.01-3.24,2.64-5.87,5.88-5.86c0.11,0,0.22,0,0.33,0.01
		c3.66,0,6.35,2.47,6.27,5.75C235.64,247.78,232.79,250.12,229.1,250.07z M229.59,240.29c-2.91,0-4.78,1.75-4.71,4.41
		s1.83,4.11,4.6,4.11c2.32,0.14,4.31-1.62,4.45-3.93c0.01-0.11,0.01-0.23,0.01-0.34c0.15-2.2-1.52-4.11-3.73-4.26
		C230,240.27,229.79,240.27,229.59,240.29z"/>
	<path class="st0" d="M265.52,206.19c3.76,0,6.46,2.46,6.25,5.71s-3,5.4-6.75,5.24c-3.5-0.15-5.81-2.32-5.71-5.38
		C259.43,208.33,261.81,206.2,265.52,206.19z M265.52,215.92c2.88,0,4.42-1.43,4.44-4.13s-1.5-4.32-4.24-4.36s-4.68,1.59-4.74,4.19
		c0,2.78,1.56,4.29,4.5,4.3H265.52z"/>
	<path class="st0" d="M232.89,202.62c-3.39,0-5.94-2.29-5.94-5.4s2.76-5.73,6.38-5.73c3.21-0.05,5.89,2.44,6.08,5.64
		C239.39,200.41,236.75,202.62,232.89,202.62z M233.09,201.41c2.79,0,4.52-1.69,4.49-4.36c0.18-2.13-1.4-4-3.53-4.18
		c-0.23-0.02-0.46-0.02-0.69,0c-3.07,0-4.74,1.61-4.71,4.56c0.02,2.49,1.73,4.02,4.44,4.02V201.41z"/>
	<path class="st0" d="M229.89,218.87c-3.88-0.05-7-3-6.95-6.59c0.11-2.96,2.6-5.26,5.56-5.15c3.59,0.13,6.45,3.05,6.5,6.65
		c0.01,2.81-2.26,5.08-5.07,5.09C229.91,218.87,229.9,218.87,229.89,218.87z M224.45,212.77c0.04,2.47,1.95,4.51,4.41,4.71
		c2.47,0.07,4.52-1.88,4.59-4.35c0-0.02,0-0.05,0-0.07c-0.18-2.39-2.08-4.28-4.47-4.44C226.59,208.54,224.58,210.38,224.45,212.77z"
		/>
	<path class="st0" d="M247.18,218.86c-3.39,0-5.9-2.38-5.83-5.5s2.65-5.51,6.13-5.51c3.84,0,6.38,2.32,6.37,5.84
		C253.84,216.56,250.86,218.87,247.18,218.86z M247.5,217.63c2.74,0,4.57-1.75,4.52-4.33c0.06-2.26-1.72-4.15-3.98-4.21
		c-0.16,0-0.31,0-0.47,0.01c-2.31-0.18-4.34,1.54-4.52,3.85c-0.01,0.17-0.02,0.34-0.01,0.52c0,2.52,1.76,4.15,4.46,4.15V217.63z"/>
	<path class="st0" d="M253.54,231.75c0,2.74-3.09,5.16-6.52,5.16c-3.13,0.18-5.81-2.22-5.99-5.35c0-0.09-0.01-0.17-0.01-0.26
		c0-3.14,2.8-5.6,6.31-5.59C251.05,225.71,253.57,228.17,253.54,231.75z M247.49,235.62c2.26,0.05,4.14-1.74,4.19-4
		c0-0.1,0-0.2,0-0.31c0-2.76-1.72-4.26-4.77-4.26c-2.28-0.01-4.14,1.83-4.15,4.11c0,0.02,0,0.05,0,0.07
		C242.79,234,244.53,235.62,247.49,235.62z"/>
	<path class="st0" d="M253.98,202.62c-3.44,0-5.88-2.25-5.89-5.45s2.77-5.7,6.43-5.65c3.42,0.05,6,2.38,6,5.45
		C260.51,200.39,257.89,202.62,253.98,202.62z M254.5,192.86c-3,0-4.79,1.67-4.78,4.34c0,2.5,2,4.26,4.71,4.23
		c2.29,0.08,4.21-1.71,4.3-4c0.01-0.14,0-0.28-0.01-0.42c0.14-2.14-1.48-3.98-3.62-4.12c-0.22-0.01-0.43-0.01-0.65,0.01
		L254.5,192.86z"/>
	<path class="st0" d="M205.91,197.35c0-3.42,2.37-5.66,6.21-5.77c3.21-0.11,5.94,2.33,6.19,5.53c0.08,3.14-2.67,5.49-6.5,5.57
		C208.31,202.75,205.98,200.62,205.91,197.35z M212.08,192.94c-2.8,0-4.63,1.72-4.59,4.29s1.83,4.27,4.64,4.25
		c2.24,0.14,4.18-1.56,4.32-3.8c0.01-0.18,0.01-0.36,0-0.54C216.48,194.5,214.84,192.93,212.08,192.94L212.08,192.94z"/>
	<path class="st0" d="M275.47,194.01c2.19,0,3.54,1.28,3.48,3.25c-0.05,1.77-1.51,3.17-3.28,3.16c-2.4,0-4-1.37-4-3.29
		c0.18-1.91,1.88-3.31,3.79-3.12C275.46,194.01,275.46,194.01,275.47,194.01z M275.78,199.01c1,0,1.56-0.73,1.53-2
		c0.07-0.93-0.63-1.74-1.56-1.81c-0.13-0.01-0.26,0-0.39,0.02c-1.09,0-2,0.56-2,1.81s0.69,1.97,2.42,1.95V199.01z"/>
	<path class="st0" d="M264.24,230.09c-2.51-0.09-3.83-1.19-3.78-3.16c0.06-1.8,1.57-3.21,3.36-3.15c0.1,0,0.19,0.01,0.29,0.02
		c2.38,0.1,3.65,1.23,3.55,3.14c0.04,1.71-1.31,3.12-3.01,3.17C264.51,230.11,264.37,230.1,264.24,230.09z M263.93,224.19
		c-0.86,1.24-1.64,1.87-1.71,2.58c-0.19,0.91,0.39,1.81,1.31,2c0.23,0.05,0.46,0.05,0.69,0c0.86-0.3,1.5-1.02,1.69-1.91
		c0.07-0.72-0.99-1.43-1.93-2.67H263.93z"/>
	<path class="st0" d="M212.17,229.32c2.41,0,3.81,1.2,3.84,3.37c0.09,1.92-1.39,3.55-3.31,3.64c-0.12,0.01-0.23,0.01-0.35,0
		c-2.61,0-4.35-1.39-4.38-3.41S209.7,229.34,212.17,229.32z M214.28,232.47c-0.14-1.1-1.15-1.87-2.24-1.72c-0.01,0-0.02,0-0.03,0
		c-1.32,0.06-2.18,0.65-2.13,2c-0.1,1.1,0.71,2.07,1.81,2.17c0.15,0.01,0.3,0.01,0.45-0.01
		C213.65,234.93,214.17,233.98,214.28,232.47L214.28,232.47z"/>
	<path class="st0" d="M215.98,252.05c0.22,1.8-1.07,3.43-2.87,3.65c-0.22,0.03-0.44,0.03-0.66,0.01c-2.65,0.06-4.45-1.37-4.41-3.49
		c0.14-2.03,1.86-3.57,3.89-3.5C214.42,248.62,215.98,249.91,215.98,252.05z M212.56,254.29c1.12,0,1.72-0.89,1.72-2.13
		c0-1.46-1-2.07-2.33-2c-1.04-0.11-1.98,0.65-2.09,1.69c-0.01,0.07-0.01,0.13-0.01,0.2c-0.1,1.19,1.04,2.24,2.69,2.24H212.56z"/>
	<path class="st0" d="M242.13,249.62c-0.12-2.21,1.58-4.09,3.78-4.21c0.02,0,0.05,0,0.07,0c1.78-0.15,3.34,1.16,3.5,2.94
		c0.01,0.11,0.01,0.23,0.01,0.34c0,2.42-1.74,4.52-3.81,4.53C243.71,253.19,242.13,251.59,242.13,249.62z M248.13,248.54
		c-0.59-0.39-1.32-1.23-2.16-1.35c-1.09-0.17-2.11,0.58-2.28,1.67c-0.02,0.16-0.03,0.32-0.02,0.48c-0.09,1.05,0.7,1.97,1.75,2.06
		c0.13,0.01,0.27,0.01,0.4-0.01c1.45,0.04,2.03-0.92,2.3-2.77L248.13,248.54z"/>
	<path class="st0" d="M224.78,262.19c-0.01-2.15,1.72-3.9,3.87-3.93c1.88-0.02,3.42,1.5,3.44,3.38c0,0.01,0,0.02,0,0.03
		c0,2.5-1.73,4.39-3.91,4.36S224.76,264.44,224.78,262.19z M228.13,264.27c1.85,0,2.44-1,2.44-2.31s-1-1.91-2.26-1.85
		c-1.1-0.01-2,0.89-2.01,1.99c0,0.07,0,0.13,0.01,0.2c-0.11,0.98,0.6,1.86,1.58,1.96C227.97,264.27,228.05,264.27,228.13,264.27
		L228.13,264.27z"/>
	<path class="st0" d="M212.24,273.62c-2.36,0-4.17-1.43-4.21-3.36c0.06-2.09,1.8-3.74,3.9-3.68c0.01,0,0.02,0,0.02,0
		c2.42,0,4.1,1.43,4.12,3.6C216.1,272.18,214.53,273.62,212.24,273.62z M212.05,268.02c-1.39,0-2.21,0.65-2.18,2
		c-0.04,1.16,0.86,2.13,2.02,2.18c0.09,0,0.19,0,0.28-0.01c1.03,0.13,1.97-0.59,2.11-1.62c0.02-0.15,0.02-0.3,0-0.45
		c0.03-1.5-0.92-2.06-2.23-2.12L212.05,268.02z"/>
	<path class="st0" d="M212.19,218.06c-2.38,0-3.89-1.25-3.85-3.12c0.12-1.86,1.73-3.26,3.59-3.14c0.03,0,0.06,0,0.09,0.01
		c2.36,0.06,3.48,1,3.47,2.92C215.49,216.96,214.36,218.1,212.19,218.06z M211.57,212.75c-0.51,0.68-1.34,1.31-1.45,2.05
		c-0.19,1.32,0.73,2.08,2.06,2.07c0.95,0.08,1.79-0.63,1.86-1.59c0.01-0.1,0.01-0.21,0-0.31
		C214.04,213.62,213.3,213.06,211.57,212.75L211.57,212.75z"/>
	<path class="st0" d="M229.49,225.76c2,0,3.32,1.17,3.35,3c0,2.11-1.29,3.34-3.57,3.32s-3.59-1.16-3.6-3.12
		S227.19,225.74,229.49,225.76z M228.93,231.1c1.66-0.39,2.31-1.06,2.26-2.24s-0.8-2-1.91-1.78c-0.75,0.18-1.8,1.14-1.83,1.79
		s0.95,1.48,1.53,2.23H228.93z"/>
	<path class="st0" d="M229.48,247.74c-2.4-0.09-3.68-1.27-3.59-3.32c0.1-1.82,1.65-3.22,3.47-3.12c0.08,0,0.15,0.01,0.23,0.02
		c1.78-0.11,3.3,1.25,3.41,3.02s-1.25,3.3-3.02,3.41C229.81,247.76,229.64,247.76,229.48,247.74L229.48,247.74z M229.59,241.74
		c-1,1.21-2,1.85-2.08,2.58c-0.13,1.01,0.59,1.94,1.61,2.06c0.16,0.02,0.32,0.02,0.48,0c0.86,0.1,1.63-0.51,1.73-1.37
		c0.02-0.19,0.01-0.38-0.04-0.57c-0.15-0.75-0.88-1.41-1.7-2.67V241.74z"/>
	<path class="st0" d="M265.72,208.62c1.65-0.19,3.13,1,3.32,2.64c0.02,0.18,0.02,0.36,0.01,0.54c-0.05,1.76-1.51,3.15-3.27,3.1
		c-0.07,0-0.14-0.01-0.22-0.01c-2.13,0-3.67-1.33-3.68-3.15S263.4,208.62,265.72,208.62z M265.84,209.53h-0.86
		c-0.5,0.7-1.52,1.57-1.37,2.08c0.34,0.92,1.07,1.63,2,1.95c1.25,0.28,2-0.86,1.81-2C267.29,210.84,266.4,210.22,265.84,209.53
		L265.84,209.53z"/>
	<path class="st0" d="M229.56,197.33c-0.06-1.78,1.33-3.27,3.11-3.33c0.12,0,0.24,0,0.36,0.01c2.2,0,3.72,1.23,3.76,3.08
		c-0.04,1.83-1.53,3.3-3.36,3.32C230.98,200.4,229.59,199.33,229.56,197.33z M235.05,197.18c0.15-0.92-0.47-1.78-1.38-1.93
		c-0.13-0.02-0.26-0.03-0.4-0.02c-1.01-0.17-1.96,0.52-2.13,1.53c-0.02,0.1-0.03,0.21-0.02,0.31c0,1.24,0.75,1.89,2.06,1.9
		S235.04,198.42,235.05,197.18L235.05,197.18z"/>
	<path class="st0" d="M232.52,213.36c-0.15,1.67-1.54,2.97-3.22,3c-2.09-0.07-3.77-1.72-3.87-3.81c0.08-1.7,1.51-3.02,3.21-2.94
		c0.01,0,0.01,0,0.02,0C230.67,209.79,232.28,211.35,232.52,213.36z M229.38,210.77h-0.9c-0.46,0.74-1.2,1.42-1.33,2.21
		c-0.22,1.23,0.6,2,1.87,2c0.88,0.12,1.69-0.5,1.81-1.38c0.02-0.17,0.02-0.34-0.01-0.51C230.7,212.28,229.89,211.55,229.38,210.77
		L229.38,210.77z"/>
	<path class="st0" d="M243.98,213.31c0.11-1.77,1.63-3.12,3.4-3.01c0.04,0,0.09,0.01,0.13,0.01c2.28,0,3.6,1.21,3.55,3.16
		c-0.04,1.76-1.49,3.17-3.25,3.15C245.32,216.62,243.98,215.46,243.98,213.31z M247.9,211.19h-0.86c-0.52,0.69-1.43,1.35-1.5,2.09
		c-0.13,0.96,0.53,1.84,1.49,1.98c0.21,0.03,0.42,0.02,0.63-0.03c0.86-0.29,1.5-1,1.72-1.88
		C249.41,212.62,248.44,211.92,247.9,211.19L247.9,211.19z"/>
	<path class="st0" d="M247.53,228.17c1.65-0.14,3.1,1.09,3.24,2.74c0.01,0.17,0.01,0.34,0,0.51c-0.01,1.73-1.43,3.13-3.17,3.11
		c-0.09,0-0.18-0.01-0.27-0.01c-2.25-0.05-3.75-1.28-3.76-3.06C243.57,229.48,245.2,228.13,247.53,228.17z M246.81,233.48h0.93
		c0.5-0.71,1.29-1.37,1.43-2.15c0.2-0.81-0.29-1.63-1.1-1.83c-0.22-0.06-0.45-0.06-0.68-0.01c-0.77,0.15-1.86,1-1.93,1.68
		S246.32,232.71,246.81,233.48z"/>
	<path class="st0" d="M254.58,200.41c-2.44,0-4-1.31-4-3.21c0.14-1.89,1.78-3.31,3.67-3.18c2.17,0,3.63,1.34,3.56,3.2
		c0.01,1.75-1.4,3.18-3.15,3.19C254.63,200.41,254.6,200.41,254.58,200.41z M253.81,199.3h0.85c0.52-0.69,1.34-1.31,1.49-2.07
		c0.23-1.2-0.58-2-1.83-2s-2.24,0.53-2,1.81C252.42,197.85,253.28,198.55,253.81,199.3z"/>
	<path class="st0" d="M215.49,197.2c0.11,1.65-1.14,3.08-2.79,3.19c-0.05,0-0.1,0.01-0.16,0.01c-2.41,0.05-4.21-1.26-4.19-3.06
		c0.05-1.88,1.61-3.36,3.48-3.31c0.04,0,0.07,0,0.11,0C214.24,194.01,215.45,195.09,215.49,197.2z M211.49,199.09
		c2.07,0,2.66-1,2.38-2.09c-0.33-0.83-1.03-1.45-1.89-1.68c-0.84-0.2-1.68,0.32-1.88,1.16c-0.06,0.25-0.06,0.51,0.01,0.75
		c0.21,0.82,1.1,1.47,1.42,1.86H211.49z"/>
	<path class="st2" d="M209.19,138.38h9.5l8.55,17.38l8.49-17.38h9v0.6h-0.83c-1.97-0.31-3.82,1.03-4.13,3
		c-0.06,0.37-0.06,0.75,0,1.13v13.22c-0.31,1.98,1.05,3.82,3.03,4.13c0.37,0.06,0.74,0.06,1.1,0h0.83v0.63h-14.75v-0.63h1
		c1.97,0.3,3.81-1.05,4.11-3.02c0.06-0.37,0.05-0.74,0-1.11v-15.45h-0.06l-9.76,20.21h-0.55l-9.87-20.14h-0.06v14.67
		c-0.03,0.9,0.17,1.79,0.58,2.59c0.39,0.71,1,1.29,1.73,1.64c0.86,0.42,1.8,0.63,2.76,0.63v0.63h-10.67v-0.63h0.23
		c1.28,0.07,2.53-0.4,3.45-1.28c0.86-0.95,1.31-2.2,1.25-3.48v-12.61c0.32-1.96-1.01-3.81-2.98-4.13c-0.38-0.06-0.77-0.06-1.15,0
		h-0.8L209.19,138.38z"/>
	<path class="st2" d="M272.67,138.51h0.6l0.16,9.8h-0.53c-0.28-0.96-0.61-1.9-1-2.82c-0.27-0.65-0.61-1.26-1-1.84
		c-1.03-1.52-2.4-2.78-4-3.68c-1.52-0.87-3.24-1.34-5-1.35c-0.91,0.01-1.8,0.17-2.65,0.49c-0.79,0.28-1.52,0.72-2.13,1.3
		c-0.99,1.04-1.68,2.33-2,3.73c-0.45,2.01-0.66,4.07-0.61,6.13c0,0.74,0,1.49,0.1,2.22c0.05,0.67,0.14,1.34,0.26,2
		c0.11,0.57,0.24,1.13,0.4,1.68c0.14,0.46,0.32,0.91,0.54,1.34c0.32,0.54,0.71,1.04,1.15,1.48c0.45,0.44,0.96,0.81,1.51,1.1
		c0.58,0.32,1.2,0.55,1.84,0.69c0.67,0.15,1.36,0.22,2.05,0.22c0.93,0,1.86-0.11,2.77-0.34c0.79-0.18,1.54-0.49,2.22-0.92
		c1.03-0.64,1.64-1.78,1.61-3v-1.12c0-2.76-1.37-4.13-4.13-4.13h-2v-0.61h15.54v0.61h-0.52c-1.97-0.31-3.82,1.03-4.13,3
		c-0.06,0.37-0.06,0.75,0,1.13v5.33h-0.6c-0.37-0.38-0.8-0.68-1.28-0.91c-0.43-0.16-0.89-0.24-1.35-0.23
		c-0.45,0-0.89,0.05-1.33,0.14c-0.58,0.15-1.15,0.35-1.7,0.59c-0.92,0.35-1.86,0.63-2.81,0.86c-0.84,0.16-1.7,0.23-2.56,0.22
		c-1.82,0.01-3.62-0.28-5.34-0.87c-1.58-0.53-3.04-1.36-4.3-2.44c-1.2-1.03-2.17-2.3-2.84-3.73c-0.67-1.45-1.01-3.02-1-4.62
		c0-1,0.13-1.99,0.39-2.95c0.25-0.95,0.63-1.86,1.12-2.71c0.51-0.86,1.12-1.66,1.82-2.37c0.83-0.82,1.77-1.54,2.79-2.12
		c1.01-0.57,2.1-1.02,3.22-1.33c1.1-0.31,2.24-0.47,3.39-0.47c1.12,0,2.23,0.14,3.31,0.43c1.23,0.35,2.42,0.81,3.55,1.39
		c0.61,0.37,1.29,0.62,2,0.73c0.44-0.01,0.85-0.18,1.18-0.47C271.88,139.63,272.32,139.1,272.67,138.51z"/>
	<path class="st2" d="M296.14,148.78c0.24,7.12,0.33,14.25,0.11,21.37c-0.19,6.51-0.83,13-1.36,19.5
		c-0.45,5.56-0.86,11.13-1.58,16.65s-1.8,11.07-2.74,16.59c-1.24,7.29-4.49,13.75-8.27,20c-2.57,4.22-5,8.56-7.9,12.54
		c-4.67,6.41-9.42,12.81-15.85,17.7c-1.53,1.16-2.66,2.92-4.29,3.89c-2.49,1.49-5.37,2.35-7.88,3.81c-3.65,2-7.15,4.27-10.46,6.79
		c-4.93,4-9.4,8.5-14.28,12.54c-4.29,3.53-8.67,6.95-14.27,8.47c-2.74,0.7-5.64,0.21-8-1.33c-3.04-1.76-5.9-3.83-8.52-6.17
		c-5.39-4.79-10.35-10.09-15.9-14.69c-4.65-3.64-9.9-6.45-15.51-8.28c-3.34-1.18-6.94-2.31-9.64-4.45
		c-3.91-3.24-7.48-6.87-10.66-10.83c-2.71-3.39-5.19-6.95-7.42-10.67c-2.86-4.49-5.7-9-8.21-13.69c-4.11-7.67-8.26-15.37-9.72-24.12
		c-0.85-5.17-1.62-10.36-2.26-15.56c-0.7-5.71-1.28-11.44-1.78-17.16c-0.51-6-0.86-12.06-1.28-18.08l0.64-0.05
		c-0.48-7.41-1.09-14.82-1.39-22.24c-0.09-3.89,0.03-7.78,0.36-11.66c0.54-7.73,1.19-15.45,1.86-23.17c0.41-4.74,1-9.47,1.4-14.21
		c0.1-1.07,0.1-2.14,0-3.21c-0.14-1.75,0.25-2.27,2-2c4.17,0.7,8.31,1.52,12.48,2.23c6.15,1,12.34,1.87,18.47,3
		c8.26,1.57,16.07-0.51,23.86-2.7c2.93-0.67,5.74-1.75,8.36-3.22c2.45-1.56,5-3.08,6.8-5.75c3.01-4.57,6.36-8.91,10-13
		c3.6-4.08,9.82-4.47,13.9-0.88c0.22,0.2,0.43,0.4,0.64,0.62c3.17,3.32,4.19,6.9,6.56,10.8c3.15,5.17,9.73,7.81,15.22,9.56
		c7.63,2.3,15.59,3.34,23.56,3.09c4.29,0,8.58,0.24,12.88,0.23c5.66-0.02,11.26-1.19,16.46-3.42c2.07-0.88,4.16-1.7,6.26-2.5
		c1.49-0.57,2.06-0.13,2.22,1.41c0.61,6,1.31,11.93,1.89,17.91c0.39,4.06,0.66,8.14,0.95,12.21c0.36,5.06,0.66,10.12,1,15.17
		C295.29,137.44,295.98,143.1,296.14,148.78z M285.37,169.02c0.26-6.14,0.35-12.3,0-18.43c-0.47-8.77-1.41-17.53-2.11-26.29
		c-0.43-5.41-0.77-10.83-1.21-16.23c-0.22-2.59-0.57-5.17-0.84-7.61c-3.63,0.57-6.83,1.32-10.07,1.53c-3.87,0.26-7.77,0-11.65,0.07
		c-12,0.24-23.84-0.17-35.32-4.2c-6.83-2.39-12.53-6.07-16.51-12.26c-2.06-3.2-4.41-6.21-6.88-9.65c-1.47,1.71-2.82,3.52-4.06,5.41
		c-2.36,4.09-5.36,7.78-8.88,10.93c-3.81,3.54-8.42,6.11-13.44,7.5c-4.78,1.33-9.6,2.51-14.46,3.54c-2.59,0.58-5.24,0.87-7.9,0.86
		c-9.66-0.26-19.14-2.07-28.61-3.84c-1.19-0.23-1.77-0.13-1.85,1.25c-0.18,2.89-0.5,5.77-0.73,8.66
		c-0.64,7.71-1.53,15.41-1.81,23.13c-0.21,5.91,0.41,11.85,0.59,17.78c0.18,6.32,0.15,12.65,0.46,19c0.39,8,0.81,16.07,1.62,24.07
		c0.74,7.57,2.01,15.08,3.8,22.47c1,4.16,3.22,7.68,4.72,11.55c1.59,4.14,4.2,7.89,6.46,11.76c2.54,4.35,5.17,8.65,7.83,12.94
		c0.62,1,1.35,2.4,2.29,2.67c1.88,0.53,2.09,2.17,3,3.32c0.48,0.72,1.03,1.39,1.64,2c1.4,1.15,2.88,2.19,4.36,3.22
		c1.34,1.08,2.78,2.01,4.3,2.8c3.33,1.43,6.8,2.54,10.17,3.89c1.73,0.68,3.41,1.5,5,2.46c1.34,0.82,2.34,2.37,3.75,2.88
		c4.4,1.6,6.51,5.78,10,8.4c2.57,1.92,4.41,4.78,6.81,6.95c2.15,1.91,4.47,3.62,6.94,5.1c2.19,1.25,4.93,0.99,6.84-0.66
		c2.94-2.19,5.73-4.59,8.54-6.94c1.81-1.51,3.62-3,5.32-4.66c1.95-1.85,3.73-3.87,5.68-5.72c1-0.84,2.07-1.61,3.18-2.3
		c1.21-0.84,2.42-1.7,3.65-2.51c0.81-0.53,1.69-0.95,2.51-1.46c0.47-0.3,0.83-0.81,1.33-1c1.29-0.54,3.14-0.57,3.86-1.5
		c1.63-2.12,4.38-1.75,6.26-3.64c2.12-2.13,4.73-3.78,6.4-6.42c0.15-0.24,0.55-0.32,0.81-0.51c0.35-0.26,0.69-0.55,1-0.85
		c0.47-0.46,0.92-0.95,1.36-1.43c0.53-0.52,1.01-1.09,1.44-1.69c0.77-1.22,1.22-2.69,2.19-3.69c1.43-1.38,2.61-3,3.49-4.78
		c0.28-0.62,1.14-0.94,1.56-1.52c1.25-1.58,2.34-3.28,3.25-5.07c1.93-4.52,6-8.08,6.07-13.45c0-0.16,0.16-0.34,0.28-0.48
		c1.63-2.1,1.88-4.7,2.48-7.13c0.58-2.66,1.02-5.36,1.31-8.07c0.31-2.25,0.45-4.52,0.73-6.78c0.33-2.68,0.8-5.34,1.09-8
		c0.2-1.85,0.17-3.72,0.3-5.58C284.35,183.49,285.06,176.26,285.37,169.02z"/>
	<path class="st2" d="M150.51,5.2c2,1,4.22,1.85,5.95,3.25c0.66,0.54,0.23,2.43,0.3,3.76c3.55-2.41,6.65,0.9,10.27,1.34
		c-1.85,3.95-4.38,6.35-9,4.81v2.19c1.71-1.08,3.64-0.28,5.47,2c1.22-0.21,2.46-0.31,3.7-0.32c0.31,0,0.94,1.11,0.8,1.35
		c-0.63,0.99-1.34,1.93-2.1,2.82c-0.14,1.44-0.4,2.86-0.78,4.25c-0.52,1.46-1.58,1.57-2.46,0.28c-0.6-1.12-1.07-2.3-1.4-3.53
		l-1.28,0.22c1.32,3.07,2.4,6.09,3.89,8.89c1.77,2.96,5.5,4.1,8.62,2.62c0.91-0.51,1.36-1.93,1.89-3c0.11-0.49,0.11-1.01,0-1.5
		c0-3.07-0.13-3.06-3-2c-1.17,0.37-2.43,0.37-3.6,0c-1.5-0.42-1.51-1.33-0.34-2.49c1.7-1.69,3.33-3.46,5.45-3.11
		c0.38-1.58,0.91-3.12,1.59-4.6c0.24-0.43,1.8-0.59,2.4-0.25c1.66,1,2,2.58,1,4.88c2.66-1,4.42-0.3,5.73,1.48
		c0.49,0.62,0.86,1.32,1.08,2.08c-0.9,0.79-1.96,1.39-3.1,1.75c-0.94,0.1-1.9-0.04-2.77-0.41c-1.26-0.39-1.48,0.28-1.75,1.26
		c-0.74,2.74,1,4.21,2.8,5.64c0.65,0.6,1.46,1.01,2.33,1.16c3.33,0.09,6.61,1,10-0.17c3.31-1.03,5.92-3.6,7-6.9
		c0.26-0.7,0.54-1.39,0.84-2.07c0.52-1.19,0.22-2.59-0.76-3.45c-1-1.06-2-1.66-3.49-1.16c-1.27,0.42-1.62,0.86-0.87,2.14
		c1.54,2.62,1.36,3.95-0.1,5.65c-1.18,1.37-2,1-3.05-0.14c-1.77-1.9-4-3.47-3.76-6.13c-1.57-0.18-3.12-0.51-4.63-1
		c-0.9-0.38-2.2-1.66-2.06-2.25c0.39-1.11,1.22-2.01,2.3-2.48c1.24-0.37,2.52-0.57,3.81-0.6c1-1.66,1.92-3.17,2.92-4.58
		c0.57-0.82,1.51-1.4,2-2.24c1-1.7,1.8-0.75,2.34,0.19c1.14,2,0.86,4,0,6.07c-0.19,0.45-0.38,1.29-0.17,1.45
		c0.51,0.25,1.07,0.37,1.63,0.35c0.28,0.06,0.57,0.03,0.83-0.08c2.08-1.11,4.24-6.29,3.58-8.59s-0.73-2.29-2.84-1.41
		c-1.6,0.85-3.56,0.56-4.84-0.72c-0.65-0.61-0.89-1.06,0-1.82c1.83-1.62,3.56-3.33,5.87-3.38c0.37-1.61,0.84-3.2,1.4-4.76
		c0.22-0.5,1.24-0.82,1.94-0.92c1.35-0.2,2.71,2.71,2.64,5.73c3.29-0.16,5.17,2,7.19,4.46c-2.37,3-5.31,0.91-8,0.94
		c-0.91,1.46-0.99,3.28-0.21,4.81c0.77,1.72,1.67,3.36,2.71,4.93c0.75,1.26,1.86,1.31,3.08,0.73c-0.26-1.59-0.55-3.11-0.73-4.64
		c-0.1-0.81-0.07-1.63,0.07-2.44c0.36-1.82,1.48-2.22,2.77-1c2,2,4.56,3.76,4.3,6.76c1.72,0.31,3.41,0.76,5.07,1.32
		c0.78,0.42,1.3,1.22,1.36,2.11c-0.18,1-0.79,1.87-1.68,2.37c-1.59,0.45-3.22,0.72-4.87,0.83c0.28,3.21-2.34,5-4.6,7
		c-0.53,0.2-1.13,0.13-1.6-0.19c-1.38-1-1.87-3.61-1.15-5.33c0.32-0.75,0.6-1.51,0.93-2.37c-1.39-0.62-2.61-1.49-4-0.29
		c-1.82,1.51-2.15,2.54-1.1,4.73c0.87,2.18,2,4.25,3.39,6.14c2.62,3.06,6.37,3.18,10.11,2.87c0.8-0.15,1.61-0.25,2.43-0.28
		c2.6,0.17,4.15-1.61,5.74-3.14c0.62-0.76,0.97-1.71,1-2.69c0.16-2.36-0.34-2.56-2.58-2c-1.23,0.25-2.5,0.21-3.71-0.12
		c-1.49-0.38-1.45-1.26-0.89-2.68c1.08-2.75,3.23-2.94,5.83-2.75c-0.83-2-0.17-3.51,1.47-4.31c0.9-0.28,1.87-0.11,2.62,0.45
		c1.24,0.97,1.46,2.77,0.49,4.02c-0.03,0.03-0.05,0.06-0.08,0.09c0.49,0.18,1.01,0.27,1.53,0.28c2.83-0.49,3.69,2.25,5.51,3.4
		c0.09,0.06-0.5,1.79-0.8,1.8c-1.69,0-3.38-0.11-5.06-0.35c-0.6-0.15-1.19-0.36-1.75-0.63c-0.07,2.41-0.91,4.52,0.86,6.48
		c1.57,1.73,6.35,2.1,8.1,0.45c1.8-1.58,3.07-3.67,3.65-6c0.27-1.21,0.86-2.35,1.19-3.55c0.05-0.51,0.01-1.03-0.13-1.53h-0.6
		c-0.12,0.5-0.27,0.99-0.47,1.47c-0.34,0.83-0.78,1.63-1.31,2.36c-1,1.27-1.79,0.66-2.08-0.57c-0.33-1.43-0.42-2.92-0.64-4.63
		c-1.62-0.36-2.26-1.67-1.94-4l4.39,0.29c1.18-1.08,2.65-3,5.42-1.75c0.17-1.38,0-2.2-1.73-1.87c-3.32,0.49-6.41-1.81-6.9-5.13
		c0-0.03-0.01-0.06-0.01-0.09c3.35-0.46,6.31-3.51,10.09-1.1c-0.7-3.78,0.81-5.45,6.55-7.39c0.08,2.1-0.32,4.18-1.15,6.11
		c-2,5.44-3.77,10.94-5.74,16.39c-1.13,3.1-2.58,6.1-3.62,9.23c-0.38,1.36-0.43,2.79-0.13,4.17c0.6,3.2-0.67,5-4,5
		C232.38,46,225.44,46,218.5,46.06c-7.32,0.07-14.63,0.22-22,0.24c-4.82,0-9.64-0.2-14.46-0.24c-4.33,0-8.66,0-13,0
		c-1.88,0-3.77-0.06-5.65-0.16c-1.1,0.02-2.01-0.87-2.03-1.97c0-0.1,0-0.21,0.02-0.31c0.81-5.57-2.45-10-4-14.88
		c-1.59-5.12-3.53-10.12-5.23-15.12c-0.87-2.57-1.55-5.21-2.31-7.81L150.51,5.2z"/>
	<path class="st2" d="M163.72,47.34c5.3,0.24,10.5,0.52,15.71,0.68c5.67,0.18,11.34,0.3,17,0.35c6.3,0.07,12.6,0.18,18.89,0
		c7.66-0.21,15.32-0.71,23-1.06c2.51-0.11,2.73,0.18,2.25,2.65c-0.56,2.85-0.57,2.77-3.38,3.11c-10.34,1.24-20.73,1-31.11,1
		c-8.18,0-16.37,0.13-24.55,0c-5-0.09-10-0.67-15.07-0.88c-1.91-0.08-2.45-1.22-2.68-2.71C163.68,49.44,163.66,48.39,163.72,47.34z"
		/>
	<path class="st2" d="M228.04,60.35c-9,0-18,0.1-27.05,0c-11.1-0.17-22.19-0.52-33.28-0.85c-1.1,0-2.56,0.09-2.71-1.64
		c-0.11-1.33,0.22-2.09,1.89-2c8.37,0.3,16.74,0.6,25.12,0.68c10.85,0.1,21.71,0.06,32.56-0.06c4.08,0,8.15-0.53,12.22-0.8
		c2.36-0.15,3.06,0.48,2.5,2.38c-0.24,0.66-0.77,1.17-1.44,1.37c-3.26,0.31-6.54,0.44-9.81,0.63L228.04,60.35z"/>
</g>
</svg>
