<?xml version="1.0" encoding="utf-8"?>
<!-- Generator: Adobe Illustrator 23.0.1, SVG Export Plug-In . SVG Version: 6.00 Build 0)  -->
<svg version="1.1" id="Layer_1" xmlns="http://www.w3.org/2000/svg" xmlns:xlink="http://www.w3.org/1999/xlink" x="0px" y="0px"
	 viewBox="0 0 405.83 378.5" style="enable-background:new 0 0 405.83 378.5;" xml:space="preserve">
<style type="text/css">
	.st0{fill:#FFFFFF;}
</style>
<title>mg_logo</title>
<g>
	<g>
		<path class="st0" d="M199.78,69.83c0,69.72,2,157.44,2,227.17c0,1.93,3,1.93,3,0c0-69.72-2-157.44-2-227.17
			C202.78,67.9,199.78,67.9,199.78,69.83L199.78,69.83z"/>
	</g>
	<g>
		<path class="st0" d="M120.65,187.78c53.94-0.22,107.87-0.22,161.81-0.02c1.93,0.01,1.93-2.99,0-3
			c-53.94-0.2-107.87-0.2-161.81,0.02C118.72,184.79,118.71,187.79,120.65,187.78L120.65,187.78z"/>
	</g>
	<path class="st0" d="M153.25,320.1c0.37-1.37,0.79-2.72,1.1-4.1c1.53-6.6,4.96-12.38,8.02-18.29c2.56-4.93,5.5-9.65,8.18-14.52
		c0.79-1.43,1.63-1.38,2.66-0.5c3.92,3.37,7.84,6.74,11.71,10.16c4.24,3.75,8.25,7.78,12.71,11.25c2.6,2.02,5.81,3.64,9.38,2.81
		c3.79-0.88,7.35-2.46,10.34-4.99c5.65-4.8,11.18-9.75,16.8-14.59c1.46-1.25,3.07-2.33,4.81-3.64
		c6.83,10.02,12.79,20.35,16.79,32.37c1.18-2.06,2.21-3.6,2.97-5.26c3.54-7.72,5.35-15.81,3.48-24.22
		c-0.91-4.09-2.86-7.98-4.51-11.88c-0.53-1.26-0.46-1.96,0.53-2.9c3.08-2.92,6.27-5.77,9.03-8.98c3.08-3.59,5.95-7.39,8.5-11.37
		c3.36-5.22,6.34-10.69,9.46-16.07c3.18-5.49,4.5-11.58,5.44-17.76c1.05-6.9,2.24-13.79,2.91-20.73c0.85-8.74,1.37-17.53,1.8-26.3
		c0.3-6.17,0.39-12.36,0.23-18.54c-0.13-5.23-0.78-10.44-1.17-15.66c-0.49-6.46-0.87-12.92-1.43-19.37
		c-0.59-6.77-1.34-13.52-2.03-20.28c-0.27-2.66-0.57-5.32-0.89-8.3c2.02,0.4,4.04-0.55,5.18,0.88c1.48,0.13,2.58,0.22,3.56,0.31
		c0.69-0.27,1.4-0.79,2.11-0.78c7.36,0.11,14.56-0.72,21.63-2.91c4.38-1.36,8.24-3.63,11.83-6.32c3.83-2.87,7.62-5.87,10.98-9.26
		c3.46-3.49,6.58-7.36,9.48-11.34c9.23-12.68,13.86-27.29,17.19-42.38c0.63-2.87,1.14-5.76,1.72-8.64c0.02-0.11,0.14-0.19,0.21-0.29
		c6.9,32.71-4.25,70.45-36.52,92.81c2.09-0.97,4.29-1.77,6.25-2.94c4.28-2.56,8.59-5.12,12.59-8.07c2.16-1.6,3.9-3.88,5.52-6.07
		c5.66-7.66,10.21-15.97,14.03-24.68c3.77-8.6,6.74-17.49,9.1-26.57c0.07-0.29,0.16-0.57,0.6-0.79c-0.59,4.31-1.09,8.63-1.8,12.92
		c-1.96,11.89-4.8,23.55-10.66,34.18c-2.73,4.95-5.93,9.72-9.5,14.1c-3.85,4.73-8.08,9.24-12.67,13.23
		c-4.21,3.66-9.14,6.5-13.75,9.7c-0.38,0.26-0.77,0.5-1.1,0.87c4.63-1.14,9-2.9,13.09-5.34c6.59-3.94,12.43-8.84,17.54-14.5
		c3.66-4.06,6.83-8.59,10.02-13.05c6.12-8.56,10.17-18.19,13.67-28.03c2.13-6,3.81-12.16,5.7-18.24c0.22-0.7,0.48-1.38,0.72-2.06
		c0.16,0.01,0.33,0.02,0.49,0.02c0.24,1.99,0.66,3.98,0.68,5.97c0.09,7.93,0.37,15.88-0.04,23.79c-0.35,6.91-1.87,13.71-3.86,20.39
		c-1.99,6.7-4.68,13.07-8.69,18.79c-2.72,3.87-5.72,7.56-8.86,11.1c-4.21,4.77-8.48,9.52-13.08,13.9
		c-4.67,4.44-10.23,7.76-15.98,10.68c-1.05,0.53-2.11,1.04-3.17,1.55c0.05,0.18,0.1,0.37,0.15,0.55c3.02-0.73,6.05-1.42,9.06-2.2
		c5.24-1.35,10.26-3.34,14.74-6.33c3.14-2.09,6.11-4.58,8.69-7.33c3.74-4,7.31-8.22,10.48-12.68c3.49-4.93,6.58-10.16,9.57-15.41
		c2.99-5.26,5.64-10.72,8.45-16.08c0.08-0.15,0.26-0.24,0.81-0.72c-0.56,2.16-0.96,3.88-1.46,5.57c-2.59,8.74-5.12,17.5-8.99,25.78
		c-1.9,4.07-3.92,8.1-6.19,11.97c-4.34,7.38-10.4,13.19-17.27,18.25c-10.69,7.87-23.01,11.26-35.82,13.37
		c-4.99,0.82-9.98,1.58-15.08,2.66c1.55,0.35,3.09,0.89,4.65,1c8.91,0.63,17.57-0.63,25.97-3.69c6.89-2.51,13.61-5.47,19.39-9.99
		c5.49-4.29,10.65-9.03,15.74-13.78c3.09-2.88,5.78-6.17,8.74-9.37c-0.07,3.55-7.6,17.61-15.71,27.93
		c-6.78,8.63-16.36,13.73-25.93,18.7c-9.81,5.1-20.29,7.03-31.28,6.75c-0.01,0.19-0.01,0.37-0.02,0.56c3.3,0.47,6.58,1.22,9.9,1.36
		c6.29,0.27,12.6,0.39,18.89,0.21c4.31-0.12,8.18-2.12,12-3.99c8.66-4.24,16.69-9.52,24.09-15.65c4.8-3.97,9.14-8.49,13.86-12.64
		c-2.68,3.45-5.2,7.03-8.08,10.3c-3.78,4.31-7.67,8.55-11.82,12.49c-5.6,5.33-12.04,9.47-19.12,12.65
		c-8.22,3.69-16.7,6.43-25.68,7.27c-4.52,0.42-9.1,0.27-13.66,0.37c-0.75,0.02-1.5,0-2.24,0c-0.03,0.17-0.07,0.35-0.1,0.52
		c3.94,0.69,7.85,1.59,11.81,2.02c10.36,1.13,20.08-1.6,29.56-5.38c6.53-2.6,12.61-6.08,18.04-10.54
		c5.83-4.78,11.44-9.83,17.16-14.76c0.21-0.18,0.45-0.34,1.06-0.25c-1.65,3.25-3.1,6.62-4.98,9.73c-2.93,4.85-5.86,9.74-9.31,14.23
		c-5.93,7.72-13.05,14.15-22.4,17.54c-6.09,2.21-12.22,4.38-18.44,6.17c-8.38,2.41-16.93,2.03-25.47,0.78
		c-0.99-0.14-1.98-0.31-2.97-0.45c-0.1-0.01-0.22,0.09-0.51,0.22c0.38,0.3,0.65,0.59,0.98,0.76c7.24,3.69,14.81,6.35,22.97,7.07
		c5.92,0.53,11.54-0.76,17.05-2.76c10.28-3.73,19.59-9.27,28.66-15.27c0.62-0.41,1.26-0.77,1.71-1.3c-2.62,2.78-5.01,5.85-7.92,8.29
		c-5.1,4.26-10.37,8.37-15.87,12.1c-6.67,4.52-14.32,6.24-22.32,6.82c-10.71,0.78-20.47-2.63-30.16-6.42
		c-3.4-1.33-6.72-2.87-10.07-4.31c-0.13,0.12-0.27,0.25-0.4,0.37c1.82,2.16,3.54,4.41,5.48,6.45c5.7,6.01,13.18,8.43,21.01,9.86
		c11.08,2.03,21.92,0.73,32.52-2.89c3.36-1.15,6.66-2.47,9.99-3.71c0.56-0.21,1.14-0.34,1.83-0.22
		c-9.46,8.53-19.75,15.28-32.9,16.76c-12.81,1.44-25.23,1.04-36.89-5.58c0.25,0.27,0.45,0.59,0.74,0.81
		c2.83,2.06,5.66,4.11,8.51,6.15c4.95,3.53,10.7,3.95,16.48,4.05c7.23,0.13,14.35-0.75,21.36-2.49c0.27-0.07,0.57-0.01,1.28-0.01
		c-14.3,6.37-28.48,8.2-43.23,3.19c1.66,1.83,3.4,3.59,4.96,5.5c8.45,10.3,12.27,22.04,9.9,35.26c-1.39,7.77-3.65,15.38-5.52,23.06
		c-0.23-0.04-0.45-0.09-0.68-0.13c0.06-1.12,0.11-2.24,0.2-3.36c0.46-5.92,1.33-11.83,1.29-17.75c-0.05-6.96-0.18-13.99-3.36-20.53
		c-3.45-7.1-8.57-12.77-14.85-17.32c-3.46-2.5-7.42-4.31-11.18-6.4c-0.51-0.28-1.15-0.33-2.02-0.23
		c11.97,8.53,18.72,20.09,21.06,34.41c1.09,6.67,1.02,13.21-1.01,19.63c-2.25,7.12-6.08,13.45-10.64,19.48
		c0.2-1.05,0.45-2.09,0.6-3.14c0.84-6.18,2.06-12.34,2.38-18.55c0.44-8.69-1.48-17.03-5.8-24.67c-2.32-4.11-5.63-7.42-9.42-10.45
		c7.36,11.6,7.98,24.21,5.76,37.18c-2.32,13.58-11.37,22.47-21.81,30.39c1.54-2.88,3.12-5.75,4.63-8.65
		c4.56-8.79,7.24-18.05,7.14-28.03c-0.06-6.32-1.59-12.24-4.72-17.73c-1.26-2.21-2.57-4.38-4.09-6.42c0.88,2.3,1.76,4.59,2.63,6.89
		c2.23,5.86,2.77,11.87,1.69,18.05c-0.82,4.74-1.69,9.43-3.76,13.85c-2.36,5.06-5.98,9.02-10.2,12.51c-1.11,0.92-1.58,1.71-1.33,3.3
		c0.63,4.04,0.9,8.13,1,12.36c-7.1-2.91-13.66-6.44-18.99-11.63c-5.24-5.1-9.84-10.86-14.96-16.59c0.09,25.4-3.63,49.49-19.66,70.56
		c-1.27-1.57-2.31-2.78-3.27-4.05c-4.88-6.44-9.54-13.06-12.06-20.83c-1.4-4.31-2.5-8.79-3.08-13.28
		c-1.21-9.29-1.98-18.63-2.93-27.95c-0.03-0.29-0.12-0.58-0.19-0.93c-4.72,4.81-9.15,9.75-14.04,14.19
		c-4.89,4.44-10.33,8.21-17.06,10.35c-0.07-0.95-0.22-1.66-0.17-2.36c0.14-2,0.2-4.02,0.58-5.97c0.4-2.01-0.31-3.22-1.91-4.37
		c-5.41-3.87-9.89-8.61-12.85-14.63c-2.3-4.66-2.93-9.76-3.76-14.82c-1.27-7.69,0.37-14.86,3.5-21.82c0.06-0.14,0.01-0.33-0.28-0.66
		c-0.99,1.67-2.02,3.32-2.97,5.02c-5.31,9.52-5.61,19.57-3.38,30c1.69,7.9,5.15,14.97,9.21,21.82c0.41,0.7,0.76,1.43,1.13,2.16
		c0.07,0.15,0.07,0.33,0.12,0.55c-22.27-14.17-29.89-42.14-16.17-67.3c-0.12-0.13-0.24-0.25-0.35-0.38
		c-1.54,1.56-3.16,3.04-4.61,4.68c-6.99,7.9-9.7,17.38-10.2,27.7c-0.37,7.51,0.94,14.79,2.66,22.04c0.12,0.48,0.2,0.98,0.26,1.47
		c0.02,0.15-0.09,0.32-0.28,0.91c-8.22-11.95-13.78-24.05-11.17-38.98c2.52-14.44,9.38-25.83,21.07-34.57
		c-3.75,0.54-6.8,2.36-9.79,4.24c-5.72,3.59-10.61,8.18-14.63,13.56c-3.84,5.14-5.96,11.03-6.57,17.47
		c-0.87,9.19-0.37,18.32,0.91,27.44c0.08,0.57,0.1,1.14,0.15,1.71c-0.17,0.03-0.34,0.06-0.51,0.09c-0.61-1.92-1.19-3.85-1.83-5.76
		c-2.72-8.17-4.77-16.46-4.41-25.16c0.34-8,2.79-15.33,7.44-21.85c2.38-3.33,5.02-6.48,7.81-10.05
		c-14.87,5.47-29.05,3.45-42.75-2.66c4.69,0.68,9.53,1.73,14.41,1.99c5.4,0.29,10.87,0.16,16.25-0.38
		c4.29-0.43,7.85-3.11,11.37-5.49c1.77-1.2,3.41-2.6,4.98-4.22c-14.58,7.67-29.79,7.12-44.92,3.07
		c-9.52-2.55-17.31-8.69-24.53-15.45c2.99,1.13,5.98,2.25,8.96,3.4c6.57,2.53,13.32,4.44,20.35,4.85
		c11.27,0.66,22.29-0.49,32.05-6.84c4.07-2.65,7.39-6.22,10.14-10.92c-3.24,1.48-5.93,2.9-8.75,3.95c-8.07,3-16.03,6.42-24.78,7.04
		c-10.65,0.76-20.8-1.13-29.77-6.98c-5.77-3.77-10.98-8.41-16.33-12.8c-2.45-2.01-4.62-4.34-6.92-6.53c0.09-0.13,0.19-0.27,0.28-0.4
		c1.81,1.17,3.61,2.35,5.43,3.5c7.56,4.81,15.39,9.06,23.73,12.4c10.25,4.11,20.5,3.92,30.75,0.2c3.73-1.35,7.33-3.05,10.94-5.06
		c-17.99,3.73-34.59-0.47-50.53-8.24c-16.72-8.15-25.13-23.32-32.8-39.05c0.15-0.15,0.3-0.29,0.45-0.44
		c2.84,2.57,5.66,5.15,8.51,7.7c12.58,11.26,26.65,19.59,43.59,22.35c7.72,1.26,17.51,0.51,24.03-2.26c-4.19,0-8.38,0.17-12.56-0.03
		c-10.72-0.52-20.71-3.74-30.38-8.27c-6.23-2.92-11.81-6.77-16.84-11.37c-6.96-6.38-13.24-13.42-18.77-21.1
		c-0.09-0.12-0.07-0.32-0.19-0.88c2.62,2.44,4.96,4.63,7.32,6.8c10.2,9.38,21.44,17.24,34.31,22.45c3.5,1.42,7.52,1.97,11.33,2.12
		c7.81,0.3,15.61-0.33,23.3-1.98c0.27-0.06,0.53-0.19,0.81-0.48c-20.97,0.78-38.05-8.23-53.15-21.49
		c-9.45-8.3-17.08-23.5-19.51-31.86c1.42,1.56,2.88,3.09,4.27,4.68c6.43,7.38,13.47,14.12,21.63,19.54
		c9.76,6.48,20.44,10.88,32.14,12.21c5.05,0.58,10.22,1.19,15.24-0.57c0.29-0.1,0.57-0.21,0.86-0.6c-2.79-0.36-5.59-0.64-8.36-1.11
		c-8.75-1.48-17.57-2.73-25.96-5.79c-7.75-2.83-14.82-6.86-21.07-12.34c-3.68-3.23-7.06-6.68-9.98-10.62
		c-4.81-6.5-8.11-13.81-10.97-21.26c-3.06-7.98-5.42-16.23-8.07-24.37c-0.15-0.46-0.16-0.96,0.12-1.6c1.07,2.11,2.13,4.21,3.2,6.32
		c6.38,12.57,13.54,24.61,22.62,35.48c8.79,10.53,20.25,15.96,33.42,18.41c0.31,0.06,0.62,0.08,0.93,0.1c0.25,0.02,0.49,0,1.33,0
		c-2.44-1.35-4.43-2.49-6.45-3.56c-7.72-4.08-14.35-9.55-20.03-16.13c-4.84-5.61-9.67-11.24-14.07-17.19
		c-4.22-5.69-7.13-12.1-9.11-18.99C10.61,80.1,9.05,73.53,8.7,66.8C8.31,59.45,8.5,52.07,8.55,44.7c0.02-3.04,0.34-6.08,0.52-9.12
		c0.16-0.01,0.31-0.02,0.47-0.03c1.64,5.35,3.23,10.7,4.92,16.04c3.49,11.07,8.04,21.64,14.3,31.48
		c7.18,11.29,15.97,21.01,27.33,28.13c4.03,2.52,8.69,4.05,13.07,6.01c0.25,0.11,0.57,0.06,1.12,0.12
		c-3.55-2.37-6.92-4.52-10.18-6.81c-6.75-4.75-12.3-10.71-17.45-17.11c-6.05-7.52-11.04-15.6-14.19-24.75
		c-3.62-10.5-5.79-21.33-7.03-32.35c-0.14-1.24-0.3-2.47-0.19-3.78c0.84,2.8,1.67,5.6,2.52,8.4c4.94,16.26,11.81,31.57,22.11,45.22
		c2.83,3.75,6.57,6.32,10.42,8.74c3.75,2.34,7.73,4.3,11.88,6.14c-15.38-9.89-24.43-24.71-31.68-40.73
		C29,43.77,29.98,26.35,32.12,8.94c0.17-0.03,0.35-0.06,0.52-0.09c0.44,2.25,0.85,4.51,1.31,6.76c2.54,12.42,6.05,24.51,12.15,35.72
		c6.18,11.36,14.39,20.93,24.81,28.69c8.01,5.96,16.96,8.94,26.8,9.48c4.43,0.24,8.87,0.17,13.31,0.21c2.16,0.02,2.55,0.4,2.34,2.65
		c-0.62,6.65-1.38,13.3-1.87,19.96c-0.7,9.58-1.34,19.16-1.72,28.76c-0.15,3.77,0.56,7.58,0.71,11.37
		c0.18,4.55,0.05,9.12,0.29,13.66c0.36,6.91,0.76,13.83,1.43,20.71c0.71,7.32,1.72,14.61,2.66,21.9c1,7.73,3.13,15.12,6.9,21.99
		c3.2,5.82,6.18,11.78,9.65,17.44c5.29,8.62,10.77,17.14,19.26,23.61c-10.74,16.63-8.57,32.71,2.04,48.33
		C152.88,320.1,153.06,320.1,153.25,320.1z"/>
	<path class="st0" d="M221.59,245.85c-1.97-4.16-0.8-6.84,4.85-11.05c-1.4-0.87-2.81-1.74-4.29-2.66c-0.18,0.27-0.41,0.5-0.49,0.78
		c-1.18,4.15-4.42,5.85-8.21,6.84c-2.88,0.75-8.1-2.03-9.66-4.92c-1.71-3.16-1.86-6.23,0.47-9.08c2.6-3.18,6.11-4.41,10.06-3.46
		c2.17,0.52,4.15,1.81,6.41,2.83c0.88-2.58,2.71-4.82,5.89-5.74c-1.93-1.78-3.71-3.43-5.26-4.86c-1.38,1.57-2.62,3.59-4.39,4.9
		c-5.09,3.77-11.47,0.09-13.05-4.35c-1.1-3.11-0.18-5.5,1.79-7.49c2.07-2.09,4.73-3.15,7.86-2.36c2.8,0.7,5.05,2.09,6.59,4.44
		c1.01-1.75,1.67-3.83,3.08-5.09c1.39-1.24,3.52-1.65,5.45-2.48c-2.49-2.13-4.73-4.72-3.95-8.52c0.47-2.3,1.92-3.99,4.01-5.17
		c4.83-2.74,11.04,0.32,12.63,4.09c2.05,4.84-0.17,8.06-8.06,11.29c5.88,4.47,6.11,12.42-1.07,15.76c3.58,1.28,5.34,3.97,6.43,7.61
		c1.78-3.29,4.16-5.26,7.56-5.68c3.39-0.42,6.23,0.86,8.86,3.38c0.77-3.7,2.7-6.23,6.13-7.47c-1.56-1.77-3.01-3.42-4.17-4.73
		c-1.03,1.48-1.93,3.64-3.54,4.82c-1.65,1.21-3.98,1.96-6.04,2.03c-3.47,0.12-6.23-1.7-7.83-4.87c-1.42-2.81-0.94-5.6,1-7.9
		c2.34-2.77,5.44-3.83,9.1-3.05c3.07,0.66,5.24,2.43,6.88,5.81c1.07-5.16,4.31-7.52,8.7-7.73c4.35-0.21,7.7,1.88,9.41,6.95
		c1.4-4.13,3.93-6.03,7.54-6.38c0.12,0.18,0.24,0.35,0.36,0.53c-0.48,0.3-0.92,0.73-1.45,0.88c-2.56,0.72-4.13,2.45-4.56,4.95
		c-0.45,2.64,0.1,5.1,2.47,6.84c0.53,0.39,0.92,0.97,1.16,1.67c-3.05-0.53-4.42-2.77-5.67-5.66c-1.22,3.07-3.1,4.96-5.85,5.94
		c1.5,1.69,2.94,3.31,4.45,5.02c1.67-2.04,3.52-4.24,6.66-4.39c0.12,0.17,0.24,0.33,0.35,0.5c-0.48,0.31-0.92,0.7-1.44,0.91
		c-4.08,1.62-4.75,5.24-3.91,8.64c0.07,0.29,0.42,0.52,0.41,0.51c0.45-1.99,0.74-4.13,1.47-6.1c0.31-0.83,1.54-1.32,2.35-1.97
		c0.19,0.12,0.39,0.25,0.58,0.37c-0.23,0.47-0.33,1.1-0.7,1.37c-1.54,1.16-1.66,2.67-1.73,4.46c-0.06,1.57-0.73,3.2-1.44,4.65
		c-1.17,2.4-2.57,4.69-3.89,7.02c-0.32,0.55-0.72,1.06-1.2,1.74c-1.54-5.07-2.92-4.91-6.18-4.52c-2.38,0.28-3.64,2.62-3.17,4.94
		c0.55,2.72,2.54,3.71,6.68,3.31c-0.35,1.06-0.94,1.4-2.46,1.4c-2.52,0.01-5.04-1.66-5.74-3.8c-0.77-2.35,0.05-4.75,2.15-6.29
		c2.61-1.91,5.47-1.43,9.74,1.63c-0.02-2.01-2.16-3.5-5.47-3.82c-3.81-0.37-6.88,1.75-7.54,5.2c-0.86,4.5,1.04,6.7,7.48,8.64
		c0.04,0.17,0.09,0.35,0.13,0.52c-0.75,0.1-1.5,0.22-2.25,0.29c-1.71,0.17-3.58-0.07-5.1,0.55c-3.56,1.45-5.05,5.67-3.63,9.31
		c0.11,0.29,0.37,0.56,0.39,0.84c0.04,0.61-0.04,1.22-0.07,1.83c-0.54-0.36-1.36-0.6-1.58-1.1c-0.68-1.52-1.13-3.15-1.67-4.73
		c-1.68,0.87-3.37,1.73-5.33,2.74c2.75,1.03,5.53,1.82,6.84,4.72c-0.77,0.97-1.26,0.67-1.97-0.19c-3.24-3.94-9.45-4.14-12.74-0.48
		c-1.84,2.04-2.31,5.59-1.02,8.07c0.44,0.85,1.05,1.52,0.02,2.44c-1.08,0.97-1.85,0.71-2.94-0.02c-2.72-1.82-5.79-2.2-8.77-0.91
		c-4.27,1.86-5.56,6.93-3,10.94c0.19,0.3,0.43,0.58,0.78,1.05c-2.14,1.19-2.28-1.12-3.3-1.62c-0.05-0.43-0.04-0.87-0.15-1.28
		c-1.15-4.45-0.14-7.15,3.66-9.75c0.23-0.16,0.43-0.38,0.79-0.71c-1-0.55-1.84-1.01-2.87-1.57c-0.49,4.92-3.25,7.78-7.5,9
		c2.09,1.47,4.1,2.87,6.1,4.27c0.36,1.06,0.72,2.11,1.16,3.38c-0.3,0.26-0.75,0.65-1.49,1.3c-1.47-6.39-5.64-8.07-11.31-6.83
		c-2.66,0.59-4.55,3.18-4.83,6.07c-0.39,4.08,1.03,6.04,6.31,9.01c-0.57,0.1-1.21,0.42-1.71,0.27c-4.02-1.2-6.59-4.38-6.68-8.1
		c-0.09-3.84,2.5-7.22,6.56-8.6c0.29-0.1,0.56-0.22,1.34-0.53c-4.74-1.53-7.97-4.25-7.87-9.05c0.1-4.83,3.26-7.59,8.08-8.74
		c-1.67-0.88-3.11-1.47-4.36-2.34c-2.53-1.76-3.98-4.46-3.73-7.35c0.3-3.53,2.47-6.2,5.98-7.48c4.62-1.69,8.56-0.58,11.94,2.89
		C220.72,245.38,221.19,245.58,221.59,245.85c0.08,0.73,0.14,1.46,0.23,2.18c0.1,0.86,0.44,1.75,0.31,2.57
		c-0.63,3.79-2.62,6.54-6.36,7.84c-0.6,0.21-1.2,0.44-2.06,0.75c2.15,1.01,3.96,1.86,5.96,2.81c-0.38-5.62,2.17-9.35,7.36-11.4
		C222.3,248.17,222.55,247.64,221.59,245.85z M248.69,237.55c5.4,2.13,6.98,5.95,6.62,10.94c1.64-0.86,3-1.56,4.5-2.35
		c-1.85-2.08-3.39-4.24-3.04-7.06c0.33-2.7,1.84-4.79,3.99-6.34c-1.46-1.03-2.71-1.92-4.12-2.92
		C255.71,233.83,253.36,236.5,248.69,237.55z M267.52,231.46c0.43-0.36,0.61-0.52,0.8-0.67c2.91-2.34,3.92-5.26,2.84-8.22
		c-1-2.76-3.83-4.37-7.43-4.24c-3.88,0.14-6.71,3.02-6.56,6.68c0.16,3.97,3.16,6.71,7.03,6.79c1.82,0.04,3.69,0.47,5.43,1.04
		c1.12,0.37,2.05,1.31,3.05,1.98c2.32-2.94,2.32-3.64,0.02-6.56C271.29,229.66,270.56,232.13,267.52,231.46z M220.3,230.81
		c-0.01-4.29-3.52-7.45-8.23-7.4c-4.46,0.04-7.64,3.15-7.69,7.48c-0.04,4.2,3.59,7.63,8.08,7.63
		C216.73,238.52,220.31,234.99,220.3,230.81z M220.27,250.21c-0.05-4.49-3.45-7.49-8.34-7.38c-4.42,0.1-7.53,3.19-7.49,7.42
		c0.05,4.34,3.57,7.69,8.02,7.64C216.82,257.84,220.32,254.4,220.27,250.21z M232.84,235.07c2.93,1.16,5.05,3.21,5.76,6.38
		c2.27-1.44,4.37-2.77,6.56-4.16c-3.92-1.02-5.83-3.99-6.76-7.31C236.57,231.65,234.77,233.29,232.84,235.07z M246.43,239.55
		c-4.52,0.07-7.98,3.67-7.88,8.21c0.09,4.28,3.42,7.42,7.78,7.46c3.71,0.04,7.38-3.6,7.62-8.08
		C254.19,242.86,250.67,239.49,246.43,239.55z M228.66,268.02c4.36,0,7.81-3.81,7.77-8.6c-0.03-4.14-3.26-7.05-7.81-7.04
		c-4.04,0-7.61,3.88-7.57,8.2C221.09,264.59,224.6,268.02,228.66,268.02z M220.26,268.37c0.03-4.68-3.02-7.53-8.09-7.59
		c-4.49-0.05-7.74,3.02-7.79,7.37c-0.05,4.17,3.44,7.49,7.95,7.55C216.69,275.76,220.23,272.48,220.26,268.37z M212.43,206.32
		c-4.3-0.09-7.22,2.52-7.31,6.52c-0.08,3.88,2.93,6.94,6.95,7.07c4,0.12,7.32-2.83,7.42-6.59
		C219.59,209.18,216.8,206.41,212.43,206.32z M229.64,233.78c4,0.01,7.13-3,7.15-6.86c0.01-3.87-2.97-6.58-7.31-6.65
		c-4.22-0.06-7.08,2.7-7.03,6.8C222.48,231.05,225.4,233.77,229.64,233.78z M229.48,235.95c-3.95-0.04-6.84,2.59-6.93,6.32
		c-0.1,4.15,2.96,7.24,7.17,7.26c3.84,0.01,7.16-3.11,7.17-6.73C236.9,238.54,234.15,236,229.48,235.95z M272.89,209.91
		c-0.01-4.2-2.92-6.9-7.41-6.87c-3.93,0.03-6.9,2.85-6.95,6.59c-0.05,4.09,3.18,7.11,7.54,7.06
		C269.85,216.64,272.89,213.61,272.89,209.91z M233.13,188.64c-4.18-0.35-6.99,3.06-6.87,6.84c0.11,3.66,3.35,6.8,7.13,6.71
		c4.05-0.09,7.29-3.16,7.23-6.85C240.56,191.1,237.79,188.62,233.13,188.64z M229.4,217.99c3.89,0.02,7.16-2.92,6.96-6.54
		c-0.19-3.5-2.92-7.6-7.85-7.46c-3.39,0.1-6.31,3.21-6.3,6.88C222.22,214.79,225.43,217.96,229.4,217.99z M247.79,204.78
		c-4.15-0.01-6.88,2.51-7.07,6.15c-0.24,4.76,3.41,7.35,7.14,7.44c3.92,0.09,7.18-3.12,7.17-6.9
		C255.03,207.53,252.06,204.79,247.79,204.78z M247.6,236.19c3.95,0.03,7.05-2.86,7.11-6.64c0.07-4.02-3-6.85-7.45-6.88
		c-4.03-0.03-6.8,2.72-6.85,6.81C240.36,233.3,243.42,236.15,247.6,236.19z M244,256.88c-4.88-1.36-6.28-4.98-7.08-9
		c-1.62,0.99-3.02,1.84-4.57,2.79c3.51,1.94,5.58,4.7,5.73,8.73C240.07,258.55,241.81,257.81,244,256.88z M232.37,268.96
		c1.5,0.61,2.67,1.08,4.24,1.72c-0.53-1.48-0.92-2.59-1.37-3.87C234.19,267.59,233.41,268.18,232.37,268.96z"/>
	<path class="st0" d="M191.17,211.07c0.78,1.28,2.14,1.01,3.68,0.45c2.78-1.01,5.05,0.17,5.36,3.09c0.19,1.83-0.18,3.87-0.84,5.6
		c-0.46,1.22-0.45,1.97,0.14,3.05c1.16,2.13,2.43,4.28,0.69,6.8c-1.48,2.14-3.26,2.72-5.62,1.59c-1.43-0.69-3.1,0.44-2.88,2.05
		c0.04,0.33,0.77,0.78,1.19,0.79c0.66,0,1.32-0.32,1.98-0.53c2.59-0.8,5.05,0.45,5.33,3.12c0.2,1.91-0.03,4.03-0.7,5.82
		c-0.51,1.36-0.46,2.21,0.22,3.38c1.76,3.05,1.6,4.65-0.49,7.18c-1.14,1.38-2.57,1.86-4.16,1.01c-1.55-0.83-2.81-1.03-3.68,1.13
		c-0.93-1.66-1.98-1.6-3.38-0.94c-1.67,0.78-3.18,0.1-4.35-1.25c-0.53-0.61-0.99-1.28-1.63-2.13c-0.44,0.64-0.79,1.18-1.17,1.7
		c-1.3,1.77-2.95,2.25-4.89,1.21c-1.47-0.79-2.48-0.46-3.31,1.13c-0.97-1.64-2.1-1.36-3.43-0.77c-1.65,0.73-3.22,0.09-4.56-1.6
		c-0.41-0.52-0.81-1.05-1.31-1.71c-0.46,0.62-0.79,1.06-1.11,1.5c-1.37,1.85-2.81,2.32-4.89,1.34c-1.44-0.68-2.51-0.68-3.27,1.17
		c-1.16-1.89-2.5-1.27-3.89-0.64c-1.06,0.48-2.08,0.45-2.81-0.65c-2.75-4.16-5.52-8.32-8.21-12.52c-0.28-0.44-0.1-1.17-0.13-1.77
		c0.51,0.17,1.02,0.37,1.53,0.51c0.55,0.15,1.12,0.27,1.67,0.4c0.09-0.57,0.39-1.2,0.25-1.71c-0.84-2.9-2.71-3.35-5.47-1.15
		c-0.64-1.03-1.27-2.04-1.93-3.11c1.45-0.31,2.63-0.52,3.79-0.82c2.57-0.68,4.73,0.55,5.06,3.24c0.18,1.51,0.3,3.41-0.44,4.56
		c-1.69,2.64-0.16,4.39,1.01,6.5c1.16-2.13,1.64-4.05,0.77-6.41c-0.58-1.56-0.41-3.45-0.31-5.18c0.11-1.81,2.2-2.91,4.71-2.62
		c2.83,0.32,5.62,0.7,8.51,0.1c2.67-0.55,4.56,1.16,4.63,4.03c0.03,1.46-0.17,3.08-0.81,4.35c-0.74,1.46-0.98,2.57,0.13,3.86
		c0.39,0.45,0.56,1.09,0.96,1.89c0.98-1.9,2.04-3.37,1.08-5.53c-0.6-1.37-0.79-3.03-0.76-4.55c0.07-3.11,2.44-4.55,5.48-4.07
		c2.45,0.38,4.96,0.89,7.5,0.1c2.23-0.69,3.22-0.06,5.24,2.96c0.41-0.48,0.79-0.95,1.2-1.38c1.41-1.48,3.05-2.19,5.06-1.36
		c1.11,0.46,1.96,0.38,2.39-0.88c0.14-0.41,0.21-0.85,0.31-1.28c-0.49-0.1-1.03-0.4-1.46-0.28c-3.49,0.9-5.29,0.23-6.59-2.95
		c-0.42-1.04-0.52-2.6-0.04-3.55c1.35-2.67,0.89-5.17-0.08-7.72c-0.71-1.86-0.58-3.62,0.78-5.07c1.36-1.46,3.08-1.65,5.02-1.1
		C189.03,211.66,189.99,211.24,191.17,211.07z M166.2,247.43c-0.23,0-0.47,0-0.7,0c0,1.13-0.24,2.33,0.08,3.37
		c0.24,0.81,1.1,1.87,1.81,1.98c0.72,0.11,1.96-0.63,2.33-1.33c0.68-1.29,1.08-2.8,1.26-4.26c0.41-3.28-0.01-6.5-1.51-9.49
		c-0.79-1.58-2.11-2.13-3.16-1.48c-1.01,0.63-1.57,3.39-0.79,4.28c0.21,0.23,0.8,0.36,1.09,0.24c0.73-0.3,1.58-1.11,1.98,0.09
		c0.27,0.79,0.21,2.07-0.28,2.66c-0.8,0.98-0.7,1.68-0.25,2.68c0.48,1.09,1.07,2.33-0.59,3.32
		C167.01,248.76,166.61,248.09,166.2,247.43z M147.52,247.28c-0.2,0.01-0.41,0.01-0.61,0.02c0,1.25-0.17,2.54,0.07,3.75
		c0.13,0.65,0.89,1.49,1.5,1.63c0.62,0.14,1.56-0.33,2.09-0.82c0.55-0.52,0.93-1.34,1.14-2.1c1.07-3.98,0.87-7.92-0.69-11.73
		c-0.32-0.79-1.07-1.56-1.82-2c-1.24-0.74-2.22,0.19-2.42,1.21c-0.22,1.09,0.2,2.3,0.33,3.46c0.35-0.05,0.7-0.1,1.05-0.14
		c0.54-0.06,1.52-0.27,1.56-0.15c0.27,0.78,0.75,2.09,0.42,2.37c-1.65,1.42-0.78,2.82-0.43,4.35c0.14,0.62-0.36,1.4-0.56,2.1
		c-0.42-0.45-0.85-0.89-1.25-1.35C147.74,247.71,147.64,247.49,147.52,247.28z M184.49,218c1.25-0.07,2.34-0.44,2.84-0.06
		c0.47,0.37,0.72,1.94,0.37,2.28c-1.43,1.4-0.94,2.76-0.39,4.23c0.13,0.34,0.21,0.78,0.1,1.1c-0.14,0.42-0.5,0.77-0.77,1.15
		c-0.31-0.26-0.68-0.48-0.92-0.79c-0.29-0.37-0.47-0.83-0.7-1.25c-0.23,0.06-0.46,0.13-0.69,0.19c0.12,1.31,0.02,2.69,0.4,3.91
		c0.55,1.74,2.3,1.95,3.47,0.51c0.5-0.61,0.9-1.37,1.12-2.13c1.16-3.98,0.81-7.91-0.72-11.73c-0.53-1.33-1.46-2.59-3.09-2.06
		c-1.5,0.49-1.46,2.02-1.4,3.34C184.15,217.23,184.41,217.74,184.49,218z M184.75,247.24c-0.26,0.47-0.46,0.71-0.53,0.97
		c-0.53,2.1,0.2,4.37,1.52,4.75c1.48,0.43,3.14-0.81,3.45-3.35c0.35-2.93,0.23-5.95,0.02-8.91c-0.09-1.23-0.79-2.51-1.52-3.55
		c-0.41-0.58-1.55-1.11-2.19-0.95c-0.61,0.15-1.13,1.15-1.46,1.88c-0.24,0.53-0.16,1.23-0.09,1.84c0.11,1.06,0.7,1.52,1.64,0.83
		c0.8-0.59,1.52-0.54,1.79,0.32c0.23,0.73,0.03,1.61-0.04,2.42c-0.1,1.1-0.32,2.18-0.38,3.28c-0.03,0.47,0.34,0.98,0.29,1.44
		c-0.05,0.43-0.4,0.84-0.63,1.25c-0.37-0.25-0.8-0.44-1.08-0.76C185.24,248.34,185.08,247.86,184.75,247.24z M179.15,246.74
		c-0.51,0.86-0.9,1.52-1.29,2.18c-0.23,0-0.47,0-0.7,0c-0.15-1-0.76-2.3-0.35-2.93c1.06-1.6,0.2-2.62-0.42-3.9
		c-0.27-0.56-0.02-1.36,0-2.05c0.56,0.18,1.15,0.29,1.66,0.56c0.87,0.47,1.69,0.79,2.04-0.48c0.32-1.15-1.19-3.33-2.43-3.66
		c-1.33-0.36-2.64,0.4-2.9,2.17c-0.34,2.26-0.5,4.59-0.33,6.86c0.13,1.69,0.68,3.45,1.5,4.93c0.42,0.76,1.81,1.15,2.83,1.33
		c0.39,0.07,1.23-0.81,1.4-1.4C180.53,249.14,180.68,247.8,179.15,246.74z M196.57,249.1c-0.2,0.01-0.39,0.03-0.59,0.04
		c-0.21-0.95-0.91-2.21-0.54-2.78c1.15-1.74,0.31-2.93-0.47-4.35c-0.27-0.49,0.14-1.35,0.24-2.04c0.5,0.22,0.99,0.47,1.51,0.64
		c0.5,0.16,1.26,0.49,1.48,0.28c0.36-0.33,0.67-1.26,0.47-1.55c-0.76-1.04-1.58-2.38-2.67-2.75c-1.39-0.48-2.16,0.98-2.52,2.2
		c-1.11,3.77-0.89,7.52,0.62,11.14c0.28,0.68,0.99,1.34,1.67,1.67c0.99,0.49,2.17,0.86,2.92-0.52c0.82-1.5,0.45-3.19-0.92-3.98
		C197.37,247.77,196.97,248.44,196.57,249.1z M196.18,226.41c-0.2-1.2-0.83-2.49-0.43-3.09c1.04-1.57,0.32-2.55-0.43-3.8
		c-0.33-0.55-0.04-1.47-0.02-2.22c0.56,0.2,1.2,0.29,1.67,0.61c0.91,0.62,1.64,0.72,2.02-0.46c0.35-1.09-0.96-3.16-2.2-3.6
		c-1.68-0.6-2.59,0.43-2.98,1.75c-1.17,3.94-1.14,7.93,0.68,11.66c0.43,0.88,1.88,1.5,2.98,1.76c1.27,0.3,1.74-0.92,1.75-1.93
		c0.01-0.91-0.43-1.83-0.67-2.74c-0.56,0.55-1.11,1.1-1.67,1.65C196.84,226.06,196.77,226.08,196.18,226.41z M159.25,248.98
		c-1.52-1.03-1.64-2.42-0.91-3.65c0.6-1.01,0.61-1.66-0.12-2.46c-0.21-0.23-0.51-0.49-0.53-0.76c-0.05-0.74,0.02-1.5,0.04-2.24
		c0.56,0.2,1.15,0.33,1.66,0.61c0.8,0.44,1.53,0.79,1.91-0.41c0.39-1.21-0.86-3.28-2.28-3.7c-1.56-0.47-2.55,0.5-2.78,1.78
		c-0.41,2.24-0.81,4.59-0.56,6.82c0.22,2,1.08,4.04,2.09,5.81c0.75,1.3,2.69,1.24,3.4,0.29c0.92-1.22,0.58-3.35-0.75-4.24
		C160.04,247.54,159.67,248.21,159.25,248.98z M181.84,240.09c-1.52,2.74-2.77,5.37,0.06,7.94
		C184.21,245.38,183,242.78,181.84,240.09z M173,240.59c-0.18,0-0.36,0-0.54-0.01c-1.01,2.67-0.77,7.2,0.54,8.86
		C173,246.41,173,243.5,173,240.59z M154.01,249.05c0.69-2.89,0.99-5.75-0.17-8.56C152.74,243.36,153.08,246.22,154.01,249.05z
		 M191.3,240.43c-1.1,2.65-0.89,7.33,0.39,8.97C191.99,246.38,192.64,243.44,191.3,240.43z M191.9,217.76
		c-1.55,2.56-1.35,7.64,0,8.82C191.9,223.63,191.9,220.69,191.9,217.76z"/>
	<path class="st0" d="M170.8,211.18c0.66,1.11,1.99,0.91,3.47,0.4c3.11-1.08,5.44,0.3,5.61,3.65c0.09,1.78-0.72,3.6-1.05,5.41
		c-0.12,0.69-0.17,1.46,0.01,2.11c0.25,0.89,0.8,1.68,1.17,2.54c0.94,2.2-0.13,5.44-2.31,6.35c-0.87,0.36-2.18,0.34-3.02-0.06
		c-1.49-0.71-2.6-0.91-3.44,1.06c-1.19-1.7-2.43-1.13-3.93-0.73c-1.02,0.27-2.47-0.41-3.51-1.03c-0.84-0.5-1.36-1.55-2.16-2.51
		c-0.5,0.73-0.9,1.39-1.38,2c-1.29,1.67-2.78,2.13-4.6,1.21c-1.47-0.75-2.61-0.84-3.45,1.05c-1.04-1.44-2.11-1.21-3.56-0.79
		c-1.07,0.31-2.6-0.28-3.69-0.89c-0.91-0.51-1.47-1.63-2.26-2.58c-0.3,0.38-0.56,0.63-0.73,0.94c-1.55,2.78-2.89,3.24-5.81,2.01
		c-0.12-0.05-0.24-0.16-0.34-0.14c-2.84,0.46-3.49-1.67-4.2-3.63c-0.25-0.7-0.35-1.52-0.28-2.26c0.32-3.08,0.36-6.11-0.75-9.06
		c-0.99-2.62-1.6-3.02-4.31-2.87c-0.68-1.3-0.16-2.01,1.18-2.16c0.66-0.07,1.35,0.15,2.03,0.17c0.94,0.03,1.89,0.01,2.85-0.27
		c1.35,1.14,2.81,1,4.46,0.36c2.17-0.84,4.12,0.16,4.99,2.35c0.2,0.52,0.31,1.07,0.49,1.69c1.3-3.83,2.98-4.75,6.73-3.97
		c0.71,0.15,1.54-0.25,2.71-0.47c0.86,1.43,2.41,0.91,4.09,0.34c3.05-1.03,5.79,1.73,5.29,5.26c-0.13,0.92-0.23,1.97-0.73,2.7
		c-1.75,2.56-0.01,4.33,1.2,6.49c1.06-2.27,2.18-4.24,0.85-6.67c-0.51-0.94-0.66-2.16-0.7-3.27c-0.15-3.49,2.33-5.34,5.76-4.53
		C168.34,211.6,169.33,211.29,170.8,211.18z M164.57,224.71c-0.15,0.01-0.31,0.02-0.46,0.03c-0.06,1.12-0.34,2.3-0.1,3.36
		c0.17,0.77,0.96,1.87,1.6,1.96c0.76,0.11,2.04-0.49,2.41-1.16c0.73-1.33,1.17-2.89,1.39-4.4c0.48-3.34,0-6.62-1.57-9.62
		c-0.38-0.74-1.45-1.31-2.31-1.53c-0.4-0.1-1.41,0.73-1.54,1.28c-0.24,1.02-0.07,2.15,0.03,3.23c0.01,0.08,0.81,0.13,1.24,0.11
		c0.54-0.03,1.5-0.31,1.55-0.2c0.3,0.76,0.81,2.04,0.49,2.33c-1.55,1.43-0.91,2.81-0.45,4.38c0.18,0.6-0.36,1.41-0.57,2.13
		c-0.42-0.45-0.85-0.9-1.27-1.35C164.85,225.08,164.71,224.89,164.57,224.71z M145.58,224.93c-0.1,0.06-0.25,0.11-0.28,0.19
		c-0.92,2.21-0.35,4.58,1.22,5.04c1.6,0.47,3.05-0.89,3.57-3.46c0.69-3.42,0.52-6.83-0.48-10.17c-0.24-0.82-0.62-1.69-1.19-2.28
		c-0.5-0.51-1.45-1.02-2.05-0.88c-0.59,0.14-1.13,1.03-1.43,1.71c-0.26,0.59-0.25,1.35-0.19,2.02c0.08,0.99,0.49,1.48,1.62,0.9
		c0.46-0.24,1.54-0.23,1.66,0.01c0.33,0.64,0.65,1.86,0.34,2.16c-1.38,1.27-1.02,2.51-0.56,4c0.22,0.71-0.17,1.6-0.29,2.41
		c-0.53-0.5-1.07-1-1.61-1.49C145.81,225.01,145.69,224.98,145.58,224.93z M138.47,226.21c-0.23,0.03-0.47,0.06-0.7,0.09
		c-0.16-0.95-0.79-2.19-0.41-2.81c1.05-1.69,0.34-2.83-0.51-4.19c-0.28-0.45,0-1.26,0.02-1.91c0.56,0.17,1.2,0.22,1.68,0.53
		c1.06,0.68,1.94,0.47,2.11-0.63c0.18-1.15-1.16-3.17-2.4-3.48c-1.54-0.39-2.51,0.48-2.81,1.79c-0.43,1.93-0.87,3.96-0.71,5.89
		c0.17,2.13,0.79,4.31,1.67,6.25c0.34,0.75,1.94,1.08,3.02,1.27c0.35,0.06,1.12-0.89,1.27-1.49c0.31-1.15,0.6-2.46-0.98-3.37
		C139.29,224.89,138.88,225.55,138.47,226.21z M176.18,221.69c-0.5-0.76-1.08-1.33-1.29-2.01c-0.21-0.7-0.07-1.51-0.08-2.27
		c0.61,0.19,1.27,0.28,1.81,0.59c0.88,0.51,1.56,0.55,1.89-0.53c0.33-1.1-1.15-3.42-2.39-3.68c-1.47-0.32-2.54,0.44-2.82,1.8
		c-0.41,2-0.84,4.08-0.65,6.08c0.2,2.11,0.88,4.27,1.82,6.18c0.36,0.73,1.99,1.04,3.06,1.09c0.38,0.02,1.06-1.23,1.2-1.98
		c0.19-1.03,0.33-2.27-1.17-2.81c-0.44,0.75-0.84,1.45-1.33,2.29C174.53,224.71,174.89,223.23,176.18,221.69z M157.4,226.23
		c-0.19,0.02-0.37,0.04-0.56,0.06c-0.21-0.94-0.88-2.16-0.52-2.77c0.99-1.68,0.39-2.82-0.49-4.19c-0.3-0.46,0.09-1.36,0.17-2.06
		c0.51,0.2,1.02,0.42,1.53,0.61c0.44,0.16,0.92,0.44,1.34,0.36c0.3-0.05,0.66-0.57,0.72-0.93c0.23-1.29-1.21-3.24-2.56-3.51
		c-1.71-0.34-2.45,0.84-2.77,2.14c-0.4,1.68-0.84,3.48-0.63,5.15c0.28,2.3,0.97,4.6,1.88,6.73c0.31,0.71,1.84,1.05,2.86,1.2
		c0.38,0.05,1.18-0.87,1.3-1.46c0.24-1.12,0.62-2.46-0.95-3.3C158.25,224.96,157.83,225.59,157.4,226.23z M142.58,225.58
		c2.49-2.96,1.31-5.83-0.19-8.83C141.24,219.83,139.36,222.78,142.58,225.58z M171.29,226.79c0.96-3.97,0.77-7.53-0.48-8.99
		C169.94,220.6,170.17,225.01,171.29,226.79z M133.17,217.78c-1.14,2.35-0.93,7.15,0.37,8.74
		C133.76,223.58,134.46,220.72,133.17,217.78z M152.09,217.57c-1.01,2.52-0.82,7.5,0.4,9.24
		C152.68,223.64,153.39,220.67,152.09,217.57z"/>
	<path class="st0" d="M182.15,274.47c-1.03,0.16-1.69,0.26-2.35,0.37c-0.06-0.62-0.09-1.25-0.17-1.87c-0.12-0.94-0.27-1.87-0.41-2.8
		c-0.22,0-0.43,0.01-0.65,0.01c-0.45,0.68-0.9,1.36-1.42,2.14c-1.47-1.13-1.54-2.49-0.76-3.7c0.62-0.97,0.42-1.52-0.17-2.3
		c-0.77-1.02-1.42-2.12-0.08-3.26c0.21,0.05,0.39,0.08,0.56,0.14c0.8,0.28,1.59,0.56,2.38,0.84c-0.09-0.92,0.12-2.05-0.34-2.72
		c-0.52-0.76-1.7-1.6-2.48-1.5c-0.79,0.1-1.89,1.2-2.08,2.04c-0.45,2.04-0.49,4.17-0.61,6.27c-0.05,0.82,0.11,1.64,0.18,2.47
		c-0.27,0.04-0.55,0.08-0.82,0.12c-0.2-2.28-0.4-4.56-0.6-6.84c-0.24-0.01-0.48-0.02-0.72-0.04c-0.22,1.8-0.44,3.59-0.66,5.39
		c-0.15,0.01-0.29,0.01-0.44,0.02c-0.08-0.54-0.13-1.08-0.23-1.62c-0.38-2.01-0.63-4.07-1.2-6.02c-0.54-1.86-1.93-2.68-3.14-2.26
		c-1.03,0.36-1.77,2.28-1.44,3.76c0.19,0.87,0.55,1.34,1.58,0.91c0.52-0.22,1.62-0.32,1.68-0.16c0.3,0.74,0.66,1.73,0.38,2.35
		c-0.28,0.61-1.35,1.28-1.99,1.2c-1.46-0.17-2.95-0.62-3.06-2.64c-0.04-0.7-0.51-1.38-0.67-1.79c-0.45,0.81-1.1,2.55-1.44,2.5
		c-1.32-0.22-2.55-1.02-3.81-1.6c0.08-0.17,0.16-0.34,0.23-0.52c0.11-0.05,0.26-0.16,0.31-0.13c0.75,0.52,1.59,1.85,2.38,0.62
		c0.4-0.62-0.17-2.11-0.66-3.01c-0.63-1.15-1.79-1.61-3.03-0.78c-0.55,0.37-0.94,0.98-1.64,1.74c-1.23-1.14-2.47-2.29-3.8-3.54
		c0.43-0.69,0.78-1.25,1.32-2.11c1.24,2.06,2.78,1.5,4.47,0.98c2.73-0.84,4.03,0.13,5.51,3.74c1.31-3.31,3.23-4.22,6.58-3.37
		c0.74,0.19,1.64-0.31,2.67-0.54c0.87,1.29,2.27,1.05,3.8,0.53c2.82-0.95,5.17,0.37,5.39,3.32c0.13,1.74-0.11,3.69-0.81,5.26
		c-0.61,1.36-0.62,2.26,0.17,3.39c0.51,0.74,0.87,1.59,1.49,2.76c0.92-2.42,2.4-4.25,1.14-6.64c-0.4-0.76-0.51-1.67-0.82-2.49
		c-0.67-1.81-0.17-3.34,1.13-4.62c1.24-1.22,2.72-1.57,4.48-1.15c0.93,0.22,1.96-0.01,3.5-0.05c0.54,0.74,1.82,0.8,3.33,0.31
		c3.39-1.11,5.84,0.64,5.8,4.29c-0.01,1.5-0.53,3.06-1.13,4.46c-0.41,0.95-0.64,1.65-0.03,2.57c0.51,0.78,0.85,1.67,1.24,2.52
		c1.33,2.93-0.58,5.92-3.8,5.93c-2.89,0.01-5.79-0.13-8.67,0.06C185.09,277.58,183.06,276.95,182.15,274.47z M184.74,270.73
		c-0.18,0.02-0.35,0.04-0.53,0.06c0,1.2-0.17,2.44,0.07,3.59c0.13,0.64,0.89,1.52,1.48,1.61c0.69,0.11,1.75-0.3,2.21-0.86
		c0.65-0.78,1.07-1.85,1.28-2.87c0.76-3.69,0.45-7.34-0.94-10.85c-0.24-0.61-0.68-1.21-1.19-1.64c-0.94-0.8-1.94-0.84-2.75,0.25
		c-0.81,1.09-0.89,3.56-0.09,4.01c0.27,0.15,0.7,0.03,1.05,0.02c0.64-0.03,1.27-0.07,1.91-0.11c-0.02,0.93,0.33,2.17-0.14,2.72
		c-0.87,1.03-0.75,1.81-0.31,2.86c0.45,1.09,0.83,2.26-0.59,3.33C185.68,272.1,185.21,271.41,184.74,270.73z M195.86,272.29
		c-0.22-1.04-0.82-2.09-0.51-2.69c0.83-1.65,0.61-2.92-0.44-4.34c-0.3-0.41,0.1-1.34,0.17-2.03c0.51,0.2,1.02,0.42,1.54,0.58
		c0.51,0.15,1.05,0.31,1.56,0.28c0.2-0.01,0.48-0.55,0.51-0.87c0.14-1.22-1.27-3.27-2.43-3.5c-1.74-0.34-2.56,0.78-2.95,2.21
		c-1.02,3.67-0.82,7.35,0.61,10.83c0.41,1,1.8,1.77,2.92,2.23c0.41,0.17,1.79-0.81,1.89-1.41c0.18-1.04-0.3-2.18-0.5-3.28
		c-0.57,0.55-1.13,1.1-1.7,1.65C196.49,271.98,196.42,271.99,195.86,272.29z M191.18,263.32c-1.11,3.34-0.84,7.67,0.43,9.32
		C191.83,269.62,192.43,266.69,191.18,263.32z"/>
	<path class="st0" d="M191.19,209.3c-0.88-1.72-1.9-1.75-3.11-1.04c-1.47,0.85-2.84,0.45-3.93-0.64c-1.77-1.77-3.39-3.76-1.83-6.41
		c1.52-2.57,0.45-4.91-0.27-7.32c-0.83-2.8,0.06-4.87,2.72-5.89c0.76-0.29,1.68-0.16,2.53-0.18c1.06-0.02,2.12-0.01,3.6-0.01
		c0.68,1.03,2.12,0.9,3.48,0.22c3.02-1.52,6.02,1.45,5.67,4.25c-0.2,1.58-0.79,3.11-1.07,4.68c-0.14,0.81-0.24,1.81,0.09,2.5
		c1.17,2.41,2.4,4.7,0.39,7.29c-1.26,1.62-2.96,2.27-4.76,1.33C193.22,207.29,192.11,207.27,191.19,209.3z M184.69,201.2
		c-0.25,0.04-0.5,0.09-0.76,0.13c0.09,1.31-0.03,2.68,0.32,3.91c0.52,1.83,2.35,2.06,3.61,0.58c0.32-0.38,0.65-0.79,0.81-1.25
		c1.55-4.51,1.34-8.97-0.79-13.22c-0.37-0.74-1.73-1.53-2.46-1.4c-0.68,0.12-1.19,1.43-1.68,2.27c-0.17,0.28-0.11,0.74-0.06,1.1
		c0.16,1.19,0.61,2.02,1.93,1.1c1.15-0.8,1.68-0.11,1.85,0.82c0.12,0.65,0.01,1.64-0.42,2.03c-1.01,0.92-0.91,1.67-0.39,2.78
		c0.48,1.02,0.76,2.23-0.45,3.43C185.65,202.65,185.17,201.92,184.69,201.2z M196.31,202.77c-1.24-1.2-1.4-2.35-0.73-3.78
		c0.24-0.52,0.14-1.29-0.01-1.89c-0.13-0.52-0.71-0.95-0.78-1.46c-0.08-0.6,0.17-1.24,0.28-1.86c0.46,0.17,0.92,0.36,1.39,0.5
		c0.55,0.16,1.11,0.26,1.67,0.39c0.13-0.57,0.55-1.36,0.32-1.67c-0.77-1.03-1.63-2.42-2.71-2.7c-1.6-0.41-2.44,1.24-2.64,2.57
		c-0.31,2.02-0.46,4.12-0.22,6.14c0.22,1.87,0.8,3.81,1.71,5.43c0.41,0.72,2.02,0.92,3.11,1.01c0.34,0.03,0.99-1.03,1.11-1.66
		c0.22-1.11,0.35-2.35-1.05-3.13C197.26,201.39,196.83,202.02,196.31,202.77z M191.23,194.17c-1.23,2.32-1.01,7.6,0.37,9.23
		C191.74,200.28,192.46,197.29,191.23,194.17z"/>
	<path class="st0" d="M150.66,187.88c0.72,1,2.13,0.69,3.73,0.12c2.7-0.96,5.07,0.45,5.23,3.3c0.1,1.8-0.33,3.7-0.9,5.43
		c-0.37,1.11-0.57,1.94,0.09,2.95c0.44,0.67,0.72,1.45,1.07,2.19c1.07,2.25-0.35,5.79-2.74,6.46c-0.82,0.23-1.93,0.13-2.69-0.25
		c-1.49-0.75-2.62-0.9-3.38,1.14c-1.08-1.71-2.25-1.38-3.71-0.81c-0.82,0.32-2.21,0.11-2.93-0.42c-2.22-1.61-4.11-4-2.41-6.82
		c1.54-2.55,0.34-4.78-0.3-7.14c-0.77-2.88-0.12-4.78,2.24-5.81c0.94-0.41,2.14-0.26,3.22-0.3
		C148.15,187.85,149.14,187.88,150.66,187.88z M144.16,200.64c-0.23,1.07-0.46,1.7-0.48,2.34c-0.04,1.51-0.09,3.26,1.75,3.7
		c2,0.47,2.91-1.19,3.16-2.71c0.42-2.49,0.68-5.08,0.47-7.58c-0.16-1.91-1.03-3.82-1.86-5.6c-0.26-0.55-1.61-1.1-2.16-0.88
		c-0.69,0.26-1.33,1.27-1.5,2.06c-0.18,0.81,0.19,1.77,0.4,2.63c0.02,0.09,0.66,0.04,1.01,0.03c0.64-0.03,1.27-0.08,1.91-0.12
		c0.02,0.87,0.41,2.06-0.01,2.55c-0.94,1.12-0.81,2.02-0.36,3.22c0.39,1.03,0.93,2.32-0.85,2.98
		C145.22,202.5,144.81,201.78,144.16,200.64z M156,202.84c-1.18-1.31-1.31-2.44-0.67-3.81c0.25-0.54,0.12-1.33-0.03-1.96
		c-0.1-0.46-0.66-0.81-0.75-1.27c-0.12-0.61,0.03-1.26,0.06-1.9c0.57,0.15,1.22,0.17,1.68,0.49c0.82,0.57,1.49,0.72,1.99-0.27
		c0.47-0.92-0.75-3.21-1.97-3.71c-1.32-0.55-2.51-0.17-2.89,1.17c-0.54,1.89-1.11,3.91-0.98,5.83c0.15,2.31,0.8,4.67,1.72,6.79
		c0.34,0.78,2.03,1.1,3.17,1.33c0.28,0.06,0.99-0.97,1.16-1.59c0.34-1.17,0.53-2.45-0.99-3.27C157,201.38,156.57,202.01,156,202.84z
		 M151.29,194.34c-0.25,0-0.49,0-0.74,0c-0.83,2.96-0.67,5.89,0.25,8.81c0.16,0,0.32,0,0.48-0.01
		C151.29,200.21,151.29,197.28,151.29,194.34z"/>
	<path class="st0" d="M170.75,209.43c-0.89-1.99-1.97-1.58-3.28-1.2c-0.95,0.28-2.25,0.2-3.12-0.26c-2.6-1.37-3.77-4.1-2.49-6.63
		c1.38-2.72,0.56-5.1-0.31-7.53c-0.68-1.91-0.31-3.47,1.01-4.81c1.27-1.29,2.78-1.7,4.63-1.08c0.83,0.28,1.85-0.03,3.28-0.09
		c0.74,0.88,2.04,0.8,3.62,0.22c2.87-1.05,5.16,0.28,5.36,3.3c0.12,1.84-0.37,3.81-1,5.57c-0.36,1.01-0.42,1.66,0.12,2.55
		c1.37,2.25,2.44,4.51,0.55,7.09c-1.3,1.77-2.93,2.46-4.83,1.49C172.79,207.29,171.68,207.3,170.75,209.43z M164.26,201.08
		c-0.13,0.01-0.26,0.02-0.39,0.03c-0.1,0.76-0.25,1.52-0.27,2.28c-0.04,1.41,0.02,2.85,1.72,3.32c1.35,0.37,2.54-0.61,3.14-2.55
		c1.19-3.82,0.92-7.64-0.26-11.4c-0.27-0.85-0.83-1.7-1.47-2.33c-1.21-1.2-2.68-0.79-3.18,0.82c-0.22,0.7-0.31,1.48-0.25,2.2
		c0.09,1.03,0.56,1.62,1.76,1.05c0.44-0.21,1.42-0.24,1.52-0.04c0.33,0.66,0.74,1.85,0.44,2.14c-1.5,1.48-1.1,2.96-0.41,4.55
		c0.09,0.22,0.16,0.53,0.08,0.73c-0.18,0.43-0.45,0.83-0.69,1.24c-0.35-0.26-0.77-0.48-1.05-0.81
		C164.65,201.95,164.48,201.49,164.26,201.08z M176.05,202.7c-0.22,0.01-0.44,0.02-0.66,0.03c-0.16-0.93-0.75-2.12-0.38-2.74
		c1-1.68,0.32-2.8-0.52-4.16c-0.29-0.46,0.07-1.33,0.14-2.01c0.51,0.18,1.08,0.27,1.53,0.55c0.77,0.49,1.47,0.85,2.01-0.21
		c0.47-0.92-0.68-3.24-1.87-3.76c-1.32-0.58-2.52-0.16-2.94,1.11c-0.6,1.81-1.16,3.75-1.11,5.61c0.07,2.63,0.1,5.49,2.17,7.52
		c0.66,0.65,2,0.82,3.02,0.79c0.37-0.01,0.88-1.21,1.01-1.92c0.2-1.06,0.33-2.26-1.15-2.82
		C176.86,201.39,176.46,202.04,176.05,202.7z M170.68,194.36c-1.08,2.98-0.9,5.91,0.23,8.81C171.52,200.22,172,197.28,170.68,194.36
		z"/>
	<path class="st0" d="M127.08,194.27c0.9,0.7,1.14,1.92,0.14,2.98c-0.87,0.92-0.81,1.69-0.4,2.68c0.22,0.52,0.51,1.08,0.48,1.6
		c-0.03,0.55-0.41,1.09-0.64,1.63c-0.42-0.36-0.89-0.68-1.25-1.09c-2.91-3.38-1.8-7.75-2.74-11.61c-0.47-1.93,2.33-3.24,4.92-2.62
		c0.94,0.22,1.97,0.04,3.52,0.04c0.62,0.85,1.9,0.79,3.48,0.2c3.09-1.14,5.42,0.35,5.57,3.67c0.07,1.62-0.25,3.41-0.94,4.87
		c-0.64,1.35-0.52,2.23,0.21,3.39c1.96,3.11,1.86,4.76-0.19,7.11c-1.21,1.38-2.64,1.91-4.33,0.98c-1.42-0.78-2.6-0.83-3.43,1.01
		c-1.02-1.53-2.1-1.28-3.46-0.68c-1.92,0.85-2.85,0.26-2.77-1.58c2.71,0.32,3.54-1.58,4.07-3.67c0.86-3.35,0.55-6.7-0.37-9.99
		c-0.23-0.82-0.67-1.63-1.2-2.31c-0.77-1.01-1.77-1.71-3-0.61c-0.99,0.88-1.38,3.6-0.49,4.09
		C124.85,194.67,125.8,194.34,127.08,194.27z M136.65,202.78c-1.38-1.14-1.55-2.32-0.88-3.77c0.24-0.53,0.13-1.29-0.01-1.91
		c-0.12-0.52-0.66-0.94-0.78-1.46c-0.12-0.54,0.04-1.15,0.08-1.73c0.52,0.13,1.13,0.13,1.55,0.41c0.85,0.58,1.59,0.9,2.11-0.27
		c0.45-1-0.77-3.18-2.03-3.67c-1.47-0.58-2.4,0.14-2.99,1.42c-0.23,0.51-0.41,1.05-0.52,1.6c-0.62,3.06-0.4,6.1,0.51,9.05
		c0.29,0.96,0.96,1.91,1.71,2.59c1.08,0.99,2.77,0.82,3.31-0.09c0.88-1.5,0.52-3.36-0.89-4.2
		C137.42,201.42,137.04,202.09,136.65,202.78z M131.46,203.09c0.59-2.89,1.05-5.81-0.19-8.67
		C130.13,197.33,130.55,200.2,131.46,203.09z"/>
	<path class="st0" d="M180.2,155.68c1.07-0.65,2.12-1.33,3.2-1.95c2.68-1.54,2.72-1.81,0.7-4.08c-0.68-0.76-1.21-1.66-1.81-2.5
		c0.14-0.19,0.28-0.39,0.42-0.58c1.27,0.65,2.57,1.23,3.8,1.95c1.93,1.13,2.58,0.86,3.03-1.37c0.32-1.59,0.68-3.17,1.02-4.76
		c0.29-0.01,0.59-0.01,0.88-0.02c0.45,1.97,0.9,3.94,1.45,6.35c2.17-1.72,4.06-3.22,5.95-4.71c0.22,0.15,0.44,0.31,0.66,0.46
		c-0.59,1.3-1.21,2.59-1.75,3.92c-0.33,0.83-0.97,1.93-0.67,2.5c0.28,0.56,1.56,0.76,2.43,0.84c1.47,0.13,2.96,0.04,4.44,0.04
		c0.04,0.23,0.09,0.47,0.13,0.7c-1.52,0.52-3.05,1.04-4.57,1.57c-2.98,1.02-3.15,1.69-1.13,4.16c0.76,0.93,1.44,1.91,2.16,2.86
		c-0.17,0.2-0.33,0.4-0.5,0.59c-1.09-0.59-2.2-1.15-3.27-1.78c-2.32-1.39-2.86-1.11-3.14,1.55c-0.09,0.86-0.33,1.71-0.5,2.57
		c-0.26,0.01-0.52,0.01-0.78,0.02c-0.21-0.89-0.34-1.81-0.66-2.66c-0.31-0.83-0.68-2.12-1.24-2.24c-0.76-0.16-1.78,0.48-2.56,0.99
		c-0.94,0.61-1.75,1.44-2.61,2.17c-0.15-0.12-0.31-0.23-0.46-0.35c0.43-1.14,0.84-2.28,1.29-3.41c0.63-1.59,0.39-2.04-1.34-2.12
		c-1.45-0.07-2.91-0.01-4.37-0.01C180.33,156.13,180.27,155.9,180.2,155.68z M192.05,156.37c1.71,0.05,3.28-1.2,3.31-2.63
		c0.03-1.47-1.59-2.69-3.66-2.78c-1.95-0.08-3.37,1.05-3.4,2.7C188.27,155.4,189.51,156.3,192.05,156.37z"/>
	<path class="st0" d="M151.99,121.83c0.96-0.6,1.89-1.26,2.89-1.79c3.04-1.6,3.12-2.13,0.76-4.55c-0.62-0.63-1.09-1.4-1.63-2.11
		c0.14-0.2,0.29-0.39,0.43-0.59c1.08,0.48,2.21,0.86,3.22,1.45c2.81,1.65,3.3,1.44,3.82-1.74c0.21-1.3,0.59-2.58,0.89-3.87
		c0.29-0.02,0.59-0.04,0.88-0.06c0.43,1.93,0.86,3.87,1.39,6.24c2.18-1.69,4.04-3.13,5.9-4.58c0.23,0.15,0.46,0.31,0.69,0.46
		c-0.55,1.3-1.12,2.59-1.63,3.91c-0.32,0.82-0.54,1.68-0.8,2.52c0.92,0.27,1.83,0.68,2.76,0.77c1.39,0.13,2.8,0.03,4.2,0.03
		c0.04,0.23,0.08,0.47,0.12,0.7c-1.36,0.46-2.73,0.91-4.09,1.37c-3.4,1.17-3.6,1.92-1.3,4.63c0.65,0.77,1.22,1.61,1.83,2.42
		c-0.17,0.22-0.35,0.44-0.52,0.67c-1.14-0.61-2.3-1.17-3.41-1.83c-2.06-1.23-2.51-1.02-2.84,1.33c-0.13,0.92-0.46,1.81-0.7,2.72
		c-0.25,0-0.51,0-0.76,0.01c-0.25-1.03-0.5-2.06-0.74-3.09c-0.48-2.04-1.56-2.44-3.17-1.08c-1.01,0.85-1.93,1.8-2.89,2.7
		c-0.22-0.15-0.44-0.3-0.67-0.45c0.43-1.11,0.81-2.24,1.3-3.32c0.65-1.45,0.22-2.14-1.35-2.14c-1.46,0-2.92,0-4.38,0
		C152.12,122.32,152.05,122.08,151.99,121.83z M163.75,122.67c2.14,0.01,3.55-1.04,3.59-2.69c0.04-1.85-1.44-3-3.91-3.03
		c-2.19-0.03-3.55,1.08-3.56,2.91C159.86,121.6,161.31,122.65,163.75,122.67z"/>
	<path class="st0" d="M129.53,181.34c0.37-1.1,0.69-2.22,1.11-3.3c0.74-1.9,0.5-2.31-1.57-2.37c-1.35-0.04-2.7-0.01-4.04-0.01
		c-0.08-0.2-0.17-0.39-0.25-0.59c1.21-0.74,2.4-1.49,3.62-2.2c2.2-1.28,2.26-1.71,0.56-3.64c-0.71-0.81-1.32-1.7-1.98-2.56
		c0.2-0.22,0.41-0.45,0.61-0.67c1.08,0.52,2.2,0.97,3.22,1.59c2.44,1.49,2.95,1.26,3.46-1.62c0.25-1.41,0.62-2.8,0.94-4.2
		c0.31-0.01,0.61-0.01,0.92-0.02c0.42,1.93,0.83,3.86,1.35,6.27c1.17-0.88,2.13-1.57,3.06-2.3c0.96-0.74,1.89-1.52,2.84-2.28
		c0.21,0.13,0.42,0.25,0.63,0.38c-0.39,1.09-0.73,2.2-1.18,3.27c-0.24,0.57-0.73,1.02-0.99,1.58c-0.68,1.43-0.18,2.31,1.41,2.41
		c1.18,0.07,2.38-0.01,3.56,0.04c0.64,0.03,1.27,0.18,1.9,0.27c0.02,0.17,0.04,0.33,0.05,0.5c-0.85,0.29-1.71,0.58-2.56,0.88
		c-1.12,0.39-2.28,0.69-3.34,1.21c-1.17,0.58-1.41,1.54-0.52,2.61c0.64,0.77,1.34,1.49,1.92,2.3c0.37,0.5,0.58,1.12,0.86,1.69
		c-0.14,0.16-0.27,0.32-0.41,0.47c-1.82-0.94-3.64-1.87-5.8-2.99c-0.4,1.93-0.75,3.62-1.11,5.3c-0.24,0.02-0.48,0.05-0.72,0.07
		c-0.27-0.92-0.48-1.86-0.83-2.75c-0.32-0.81-0.71-2.13-1.21-2.2c-0.79-0.11-1.78,0.53-2.54,1.05c-0.89,0.61-1.64,1.44-2.44,2.18
		C129.91,181.58,129.72,181.46,129.53,181.34z M136.77,175.94c1.94-0.03,3.43-1.32,3.45-2.97c0.02-1.72-1.84-2.96-4.34-2.88
		c-1.85,0.06-3.23,1.36-3.16,3C132.79,174.95,134.26,175.98,136.77,175.94z"/>
	<path class="st0" d="M124.9,139.52c1.23,0.6,2.49,1.14,3.68,1.81c2.33,1.31,2.81,1.1,3.34-1.53c0.3-1.46,0.68-2.91,1.02-4.37
		c0.29,0,0.58,0.01,0.87,0.01c0.4,1.93,0.81,3.85,1.33,6.34c2.21-1.78,4.08-3.28,5.95-4.79c0.2,0.15,0.39,0.29,0.59,0.44
		c-0.64,1.48-1.21,3-1.95,4.44c-1.03,2.01-0.74,2.69,1.54,2.9c0.99,0.09,1.99-0.06,2.99-0.03c0.65,0.02,1.29,0.17,1.93,0.27
		c0.02,0.17,0.03,0.35,0.05,0.52c-1.56,0.53-3.13,1.04-4.68,1.6c-2.44,0.88-2.65,1.75-1.01,3.82c0.73,0.92,1.41,1.89,2.1,2.84
		c-0.18,0.22-0.35,0.43-0.53,0.65c-1.1-0.56-2.21-1.08-3.28-1.69c-2.09-1.2-2.51-1.01-2.85,1.36c-0.14,0.98-0.38,1.95-0.57,2.93
		c-0.26,0.02-0.51,0.04-0.77,0.06c-0.24-0.89-0.43-1.8-0.74-2.66c-0.3-0.83-0.6-2.2-1.11-2.3c-0.77-0.16-1.82,0.43-2.59,0.95
		c-0.95,0.64-1.73,1.52-2.58,2.3c-0.2-0.12-0.41-0.23-0.61-0.35c0.44-1.22,0.82-2.47,1.35-3.64c0.66-1.44,0.13-1.99-1.29-2.01
		c-1.49-0.02-2.97,0-4.46,0c-0.07-0.15-0.14-0.31-0.2-0.46c0.46-0.41,0.88-0.88,1.4-1.2c0.79-0.49,1.67-0.85,2.48-1.32
		c1.88-1.08,1.96-1.68,0.54-3.3c-0.84-0.95-1.62-1.95-2.42-2.93C124.59,139.94,124.74,139.73,124.9,139.52z M134.19,149.55
		c2.22,0.01,3.61-1.08,3.65-2.87c0.04-1.76-1.37-2.9-3.6-2.94c-2.42-0.03-3.85,1.04-3.82,2.87
		C130.45,148.54,131.73,149.54,134.19,149.55z"/>
	<path class="st0" d="M159.47,162.08c0.26,1.21,0.48,2.42,0.78,3.61c0.17,0.69,0.47,1.35,0.71,2.02c0.69-0.35,1.46-0.61,2.06-1.07
		c0.89-0.68,1.63-1.55,2.52-2.22c0.31-0.23,0.9-0.11,1.36-0.14c0.03,0.41,0.2,0.89,0.05,1.23c-0.38,0.92-0.85,1.81-1.37,2.65
		c-1.38,2.26-1,3.04,1.6,3.12c1.57,0.05,3.14,0.01,4.71,0.01c0.03,0.27,0.06,0.54,0.08,0.8c-1.55,0.52-3.1,1.04-4.66,1.56
		c-2.59,0.87-2.83,1.79-1.09,3.88c0.84,1.01,1.57,2.09,2.36,3.14c-0.18,0.2-0.35,0.4-0.53,0.61c-1.21-0.66-2.42-1.32-3.63-1.99
		c-2.01-1.12-2.43-0.91-2.73,1.35c-0.13,0.94-0.35,1.87-0.53,2.81c-0.19,0.03-0.38,0.05-0.57,0.08c-0.26-0.48-0.59-0.93-0.75-1.44
		c-0.2-0.65-0.22-1.36-0.39-2.02c-0.44-1.72-1.42-2.08-2.87-1c-0.75,0.56-1.4,1.24-2.12,1.84c-0.4,0.33-0.86,0.6-1.66,0.64
		c0.39-1.15,0.76-2.3,1.17-3.44c0.62-1.76,0.34-2.2-1.56-2.26c-1.34-0.05-2.68-0.01-4.02-0.01c-0.07-0.15-0.13-0.31-0.2-0.46
		c0.53-0.42,1.04-0.89,1.61-1.25c0.85-0.53,1.74-0.98,2.61-1.46c1.37-0.75,1.27-1.68,0.34-2.73c-0.89-1.01-1.75-2.04-2.62-3.06
		c0.14-0.2,0.28-0.4,0.41-0.61c1.12,0.49,2.29,0.9,3.36,1.5c2.78,1.56,3.27,1.33,3.81-1.87c0.21-1.25,0.52-2.49,0.78-3.74
		C158.82,162.13,159.15,162.1,159.47,162.08z M159.55,170.34c-2.07-0.05-3.48,1.07-3.53,2.79c-0.05,1.83,1.37,3.01,3.72,3.08
		c1.99,0.06,3.73-1.24,3.8-2.85C163.63,171.62,162.02,170.4,159.55,170.34z"/>
	<path class="st0" d="M161.23,156.71c-0.26-1.1-0.52-2.2-0.77-3.3c-0.48-2.08-1.46-2.43-3.15-1.07c-0.92,0.74-1.78,1.56-2.68,2.32
		c-0.12,0.1-0.34,0.09-0.91,0.23c0.46-1.41,0.74-2.65,1.27-3.77c0.77-1.61-0.02-2.06-1.38-2.12c-1.23-0.06-2.47,0.02-3.71,0.01
		c-0.22,0-0.44-0.18-1.14-0.5c1.49-0.88,2.67-1.6,3.87-2.28c2.24-1.25,2.32-1.84,0.56-3.77c-0.73-0.8-1.36-1.68-2.03-2.53
		c0.15-0.21,0.3-0.42,0.46-0.63c1.22,0.6,2.48,1.14,3.66,1.82c2.12,1.22,2.79,0.93,3.26-1.52c0.29-1.48,0.62-2.95,0.93-4.43
		c0.31-0.01,0.61-0.03,0.92-0.04c0.43,1.95,0.86,3.89,1.39,6.31c2.2-1.74,4.11-3.24,6.02-4.75c0.22,0.19,0.45,0.37,0.67,0.56
		c-0.68,1.41-1.31,2.85-2.06,4.22c-1.13,2.06-0.73,2.89,1.57,2.95c1.65,0.05,3.31,0.01,4.96,0.01c0.04,0.23,0.08,0.46,0.12,0.68
		c-0.45,0.21-0.87,0.48-1.34,0.63c-0.65,0.21-1.34,0.32-1.99,0.52c-4.47,1.33-4.65,1.96-1.67,5.43c0.53,0.61,0.88,1.37,1.31,2.06
		c-0.16,0.18-0.32,0.37-0.48,0.55c-1.03-0.57-2.08-1.1-3.08-1.71c-2.33-1.42-2.8-1.22-3.23,1.42c-0.14,0.89-0.34,1.76-0.51,2.65
		C161.78,156.68,161.51,156.7,161.23,156.71z M160.92,149.23c1.95,0.12,3.44-1.01,3.55-2.7c0.11-1.76-1.5-3.08-3.86-3.16
		c-1.76-0.07-3.5,1.15-3.64,2.56C156.76,148.02,157.98,149.05,160.92,149.23z"/>
	<path class="st0" d="M191.51,165.16c0.44,1.95,0.89,3.91,1.43,6.29c2.1-1.67,3.95-3.14,5.8-4.6c0.16,0.1,0.32,0.2,0.49,0.3
		c-0.13,0.67-0.16,1.37-0.41,1.99c-0.35,0.86-0.87,1.65-1.32,2.47c-1.09,1.98-0.68,2.78,1.55,2.85c1.63,0.05,3.27,0.01,4.9,0.01
		c0.03,0.28,0.07,0.57,0.1,0.85c-1.2,0.39-2.39,0.78-3.59,1.16c-3.85,1.25-4.06,2.02-1.47,5.04c0.57,0.67,1,1.47,1.49,2.2
		c-0.15,0.2-0.31,0.4-0.46,0.6c-1.81-0.9-3.61-1.8-5.76-2.87c-0.25,1.46-0.39,2.61-0.68,3.72c-0.12,0.45-0.56,0.82-0.86,1.23
		c-0.27-0.37-0.56-0.73-0.81-1.12c-0.09-0.15-0.03-0.38-0.1-0.55c-0.45-1.01-0.92-2.02-1.39-3.03c-1.01,0.52-2.06,0.98-3.02,1.58
		c-0.71,0.44-1.3,1.08-1.94,1.62c-0.18-0.1-0.35-0.2-0.53-0.3c0.38-1.05,0.74-2.1,1.13-3.14c0.69-1.87,0.3-2.43-1.75-2.46
		c-1.25-0.01-2.51,0-3.76,0c-0.07-0.2-0.14-0.4-0.21-0.6c1.12-0.69,2.21-1.42,3.35-2.05c2.4-1.34,2.48-1.83,0.57-3.86
		c-0.7-0.75-1.3-1.6-1.94-2.41c0.11-0.19,0.22-0.38,0.33-0.57c0.86,0.29,1.75,0.53,2.58,0.9c0.68,0.31,1.26,0.82,1.91,1.17
		c1.23,0.67,2.05,0.31,2.33-1.08c0.22-1.1,0.35-2.22,0.59-3.32c0.15-0.68,0.43-1.33,0.66-1.99
		C191,165.19,191.26,165.17,191.51,165.16z M191.97,179.32c2.01,0.01,3.57-1.17,3.61-2.74c0.04-1.83-1.39-2.97-3.73-2.99
		c-2.49-0.02-3.69,0.91-3.72,2.89C188.1,178.25,189.54,179.31,191.97,179.32z"/>
	<path class="st0" d="M203.15,106.07c-1.7,0.58-3.41,1.12-5.09,1.74c-1.87,0.69-2.15,1.64-0.95,3.26c0.52,0.7,1.22,1.27,1.73,1.97
		c0.36,0.5,0.55,1.12,0.81,1.69c-0.13,0.14-0.27,0.27-0.4,0.41c-1.12-0.58-2.27-1.12-3.36-1.76c-2.33-1.36-2.54-1.26-2.96,1.48
		c-0.13,0.86-0.38,1.7-0.57,2.54c-0.25,0-0.51,0.01-0.76,0.01c-0.2-0.77-0.36-1.56-0.63-2.31c-0.32-0.89-0.71-2.46-1.11-2.48
		c-0.97-0.03-2.04,0.55-2.92,1.12c-0.85,0.54-1.51,1.36-2.25,2.06c-0.17-0.1-0.35-0.21-0.52-0.31c0.26-0.84,0.47-1.69,0.8-2.5
		c1.16-2.83,0.94-3.16-2.19-3.11c-1.04,0.02-2.08,0-3.12,0c-0.08-0.19-0.16-0.38-0.23-0.58c0.87-0.58,1.7-1.22,2.61-1.73
		c3.54-2.01,3.55-2.07,0.82-5.01c-0.52-0.56-0.92-1.24-1.38-1.86c0.13-0.2,0.27-0.4,0.4-0.59c1.16,0.55,2.35,1.05,3.47,1.67
		c2.59,1.45,2.9,1.33,3.54-1.6c0.3-1.37,0.61-2.74,0.91-4.12c0.27-0.03,0.54-0.06,0.81-0.09c0.46,1.93,0.92,3.87,1.48,6.2
		c2.15-1.69,4.02-3.15,5.89-4.62c0.19,0.11,0.39,0.23,0.58,0.34c-0.25,0.82-0.43,1.66-0.77,2.44c-0.37,0.85-0.94,1.62-1.35,2.46
		c-0.7,1.42-0.36,2.15,1.19,2.33c1.17,0.14,2.37,0.05,3.55,0.11c0.69,0.04,1.38,0.18,2.06,0.27
		C203.21,105.69,203.18,105.88,203.15,106.07z M190.86,104.27c-2.34,0.01-3.59,1.01-3.57,2.86c0.02,1.89,1.42,2.93,3.95,2.93
		c2.12,0,3.59-1.23,3.54-2.97C194.73,105.38,193.18,104.26,190.86,104.27z"/>
	<path class="st0" d="M124.15,122.42c1.28-0.85,2.53-1.73,3.83-2.53c1.3-0.79,1.48-1.71,0.58-2.92c-0.88-1.17-1.71-2.37-2.57-3.55
		c0.15-0.19,0.3-0.39,0.45-0.58c0.99,0.49,2.05,0.89,2.96,1.5c2.76,1.83,3.13,1.68,3.68-1.65c0.19-1.17,0.43-2.33,0.68-3.48
		c0.05-0.22,0.27-0.4,0.54-0.78c1.89,1.73,0.42,4.36,2.04,6.37c1.77-1.55,3.52-3.09,5.27-4.62c0.23,0.16,0.47,0.32,0.7,0.47
		c-0.62,1.5-1.18,3.04-1.89,4.5c-1.13,2.3-0.74,3.09,1.79,3.2c1.4,0.06,2.8,0.01,4.2,0.01c0.05,0.25,0.09,0.51,0.14,0.76
		c-1.33,0.51-2.66,1.02-4,1.53c-3.06,1.17-3.21,1.76-1.28,4.41c0.73,1.01,1.36,2.09,2.03,3.13c-0.18,0.18-0.37,0.37-0.55,0.55
		c-1.12-0.68-2.25-1.35-3.37-2.05c-1.75-1.1-2.18-0.88-2.43,1.21c-0.13,1.12-0.33,2.23-0.5,3.34c-0.25,0.02-0.49,0.03-0.74,0.05
		c-0.24-1.02-0.4-2.07-0.75-3.05c-0.3-0.83-0.81-1.58-1.23-2.37c-0.83,0.45-1.75,0.79-2.48,1.37c-0.79,0.62-1.42,1.46-2.12,2.2
		c-0.17-0.1-0.34-0.19-0.51-0.29c0.36-1.28,0.71-2.56,1.09-3.83c0.51-1.7,0.24-2.12-1.55-2.18c-1.28-0.04-2.56-0.01-3.84-0.01
		C124.27,122.88,124.21,122.65,124.15,122.42z M135.21,123.41c1.92,0,3.3-1.26,3.34-3.03c0.04-1.79-1.4-3.07-3.49-3.11
		c-2.23-0.04-3.47,1.12-3.44,3.24C131.65,122.32,132.99,123.41,135.21,123.41z"/>
	<path class="st0" d="M191.62,142.07c-0.21-0.97-0.34-1.97-0.66-2.91c-0.26-0.77-0.58-1.87-1.16-2.09c-0.6-0.23-1.63,0.29-2.29,0.74
		c-1,0.69-1.84,1.6-2.75,2.42c-0.17-0.1-0.34-0.19-0.51-0.29c0.4-1.18,0.73-2.39,1.23-3.53c0.6-1.39,0.16-2.04-1.28-2.08
		c-1.47-0.04-2.94-0.01-4.4-0.01c-0.07-0.23-0.15-0.47-0.22-0.7c1.17-0.7,2.33-1.42,3.52-2.09c2.17-1.23,2.28-1.8,0.67-3.68
		c-0.71-0.83-1.39-1.69-2.09-2.53c0.13-0.2,0.26-0.41,0.39-0.61c0.87,0.39,1.81,0.68,2.61,1.19c3.26,2.07,3.84,1.82,4.45-2.02
		c0.18-1.12,0.51-2.21,0.77-3.31c0.29-0.02,0.57-0.03,0.86-0.05c0.45,1.89,0.89,3.78,1.44,6.13c2.13-1.65,4.04-3.13,5.94-4.61
		c0.16,0.1,0.33,0.2,0.49,0.3c-0.17,0.72-0.24,1.49-0.54,2.16c-0.4,0.91-1,1.73-1.48,2.6c-0.92,1.7-0.44,2.57,1.53,2.69
		c1,0.06,2-0.04,3-0.01c0.71,0.02,1.43,0.14,2.14,0.21c0.03,0.18,0.06,0.36,0.08,0.54c-1.31,0.42-2.63,0.85-3.94,1.27
		c-3.57,1.12-3.82,2.14-1.28,4.83c0.69,0.73,1.18,1.65,1.77,2.48c-0.16,0.2-0.32,0.4-0.48,0.6c-1.09-0.6-2.21-1.14-3.26-1.8
		c-2.33-1.45-2.71-1.29-3.2,1.43c-0.17,0.91-0.38,1.82-0.57,2.73C192.14,142.07,191.88,142.07,191.62,142.07z M191.27,134.49
		c2.13,0.03,3.56-1.03,3.58-2.68c0.02-1.72-1.6-3.09-3.73-3.12c-2.19-0.04-3.74,1.22-3.74,3.03
		C187.38,133.52,188.69,134.45,191.27,134.49z"/>
	<path class="st0" d="M192.33,278.57c1.13,0.05,2.31,0.34,3.37,0.1c2.7-0.61,4.36,0.25,4.62,3.01c0.13,1.42-0.17,3-0.72,4.33
		c-0.45,1.08-0.4,1.79,0.14,2.73c1.54,2.68,1.58,3.05,0.93,4.65c-2.66-0.25,0.08-3.31-2.37-3.91c-0.14,0.29-0.39,0.78-0.64,1.28
		c-0.25-0.02-0.49-0.04-0.74-0.05c-0.18-0.67-0.73-1.61-0.47-1.97c0.82-1.15,0.5-1.98-0.12-3.04c-0.35-0.59-0.26-1.44-0.37-2.23
		c0.61,0,0.76-0.04,0.85,0.01c0.73,0.4,1.54,1.76,2.2,0.46c0.33-0.65-0.37-2.15-1.04-2.88c-0.88-0.97-2.19-0.74-2.84,0.43
		c-0.49,0.89-0.58,2.01-0.81,3.04c-0.15,0.71-0.23,1.44-0.72,2.19c-0.17-0.78-0.34-1.56-0.57-2.64c-0.41,0.56-0.67,0.9-1.23,1.66
		c-0.39-0.96-0.74-1.6-0.91-2.3c-0.63-2.54-1.09-2.91-3.7-2.99c-0.35-0.01-0.87-0.33-0.97-0.63c-0.08-0.24,0.3-0.91,0.55-0.96
		c1.07-0.18,2.16-0.2,3.25-0.29c0.72-0.06,1.43-0.13,2.15-0.19C192.23,278.45,192.28,278.51,192.33,278.57z"/>
	<path class="st0" d="M263.5,195.1c-0.68,3.46-2.43,5.86-5.49,7.31c-5.52,2.62-11.52-1.27-12.36-6.9c-0.38-2.52,0.92-4.7,2.81-6.25
		c5.04-4.1,12.94-1.14,14.18,3.74C262.84,193.78,263.24,194.49,263.5,195.1z M254.52,188.61c-4.25-0.1-7.03,2.38-7.18,6.38
		c-0.14,4.01,2.89,7.11,7.02,7.18c3.95,0.07,7.27-3.05,7.37-6.93C261.84,191.42,258.9,188.71,254.52,188.61z"/>
	<path class="st0" d="M221.15,195.44c-0.64,2.93-2.07,5.23-4.71,6.7c-5.82,3.23-12.29-0.88-12.97-6.88
		c-0.26-2.3,0.85-4.37,2.74-5.87c3.2-2.53,6.64-2.56,10.19-0.9C219.35,189.88,220.56,192.47,221.15,195.44z M212.02,188.63
		c-4.37-0.25-6.92,3.1-6.96,6.63c-0.05,3.81,3.34,6.93,7.35,6.91c3.83-0.02,7.1-3.16,7.06-6.78
		C219.43,191.16,216.59,188.57,212.02,188.63z"/>
	<path class="st0" d="M283.09,195.67c-0.62-4.56-2.81-6.84-6.8-7.06c-4.02-0.23-6.82,1.54-7.66,4.84c-0.86,3.37,0.81,6.61,4.16,8.08
		c3.71,1.63,6.89,0.31,9.95-4.15c0.62,1.6,0.52,2.04-0.68,3.09c-5.02,4.41-10.65,3.5-13.89-0.88c-2.58-3.48-1.39-8.74,2.33-10.95
		c4.6-2.73,9.86-1.01,12.4,2.44c0.82,1.12,0.56,3.03,0.79,4.59C283.49,195.67,283.29,195.67,283.09,195.67z"/>
	<path class="st0" d="M217.27,288.45c-0.15-5.68-1.13-7.22-4.5-7.2c-3.2,0.02-5.21,1.75-5.29,4.57c-0.09,3.33,1.91,4.71,7.34,5.35
		c-0.76,0.31-1.51,0.87-2.27,0.89c-3.13,0.11-5.51-1.36-6.49-3.81c-0.93-2.31-0.34-4.95,1.49-6.7c1.93-1.85,5.63-2.31,8.27-1.05
		c1.94,0.93,3.09,2.41,3.5,4.55C219.65,286.86,218.89,287.83,217.27,288.45z"/>
	<path class="st0" d="M275.38,200.77c-3.24,0.02-5.81-2.31-5.85-5.3c-0.05-3.44,2.73-5.92,6.59-5.87c3.2,0.05,5.9,2.67,5.94,5.79
		C282.1,198.37,279.14,200.75,275.38,200.77z M275.49,199.56c2.93,0.03,4.67-1.6,4.67-4.39c0-2.37-1.62-4.11-3.87-4.16
		c-3.25-0.06-5.01,1.46-5.07,4.38C271.18,197.81,272.94,199.53,275.49,199.56z"/>
	<path class="st0" d="M250.51,264.68c-2.42-3.49-4.85-4.32-7.82-2.69c-2.25,1.23-2.7,3.93-1.24,7.53c-0.83,1.01-1.43,0.57-1.98-0.31
		c-1.6-2.52-0.81-6.3,1.69-8.05c3.08-2.16,7.73-1.52,10.03,1.32C252.12,263.63,252.01,264.34,250.51,264.68z"/>
	<path class="st0" d="M212.54,289.44c-2.53-0.01-4.24-1.47-4.16-3.56c0.07-1.92,1.79-3.38,4-3.38c2.58,0,4.01,1.18,4.04,3.36
		C216.46,288.01,214.9,289.45,212.54,289.44z M214.63,285.53c-0.13-0.96-0.86-1.71-2.18-1.66c-1.23,0.05-2.22,0.56-2.17,2.01
		c0.05,1.44,0.93,2.09,2.32,2.11C214.02,288.02,214.58,287.2,214.63,285.53z"/>
	<path class="st0" d="M235.17,273.82c-0.57-0.05-1.14-0.07-1.69-0.17c-1.31-0.25-2.64-0.86-3.92-0.75
		c-3.36,0.27-5.04,3.13-4.04,6.36c0.2,0.64,0.18,1.36-0.04,2.11c-1.8-0.95-2.2-2.5-2.1-4.21c0.15-2.67,1.66-4.48,4.07-5.32
		c2.78-0.97,5.5-0.74,7.79,1.33C235.22,273.39,235.19,273.61,235.17,273.82z"/>
	<path class="st0" d="M265.93,236.57c2.08,0,3.45,1.25,3.43,3.12c-0.03,2.1-1.36,3.26-3.73,3.23c-2.1-0.02-3.5-1.26-3.48-3.09
		C262.18,237.87,263.68,236.57,265.93,236.57z M266.29,237.59c-0.29-0.01-0.59-0.02-0.88-0.03c-0.52,0.67-1.32,1.27-1.49,2.01
		c-0.28,1.24,0.59,1.95,1.82,2.07c1.37,0.13,2.06-0.78,1.94-1.91C267.6,238.98,266.78,238.3,266.29,237.59z"/>
	<path class="st0" d="M257.65,258.72c-1.97-2.33-2.07-4.96-0.62-7.17c1.5-2.29,4.62-3.35,7.92-2.34c-0.74,0.4-1.15,0.8-1.59,0.83
		c-4.47,0.36-5.8,2-5.27,6.45C258.16,257.07,257.86,257.7,257.65,258.72z"/>
	<path class="st0" d="M248.5,266.55c-1.08-1.03-1.76-2.02-2.68-2.4c-0.57-0.24-2.12,0.35-2.19,0.76c-0.2,1.06,0.17,2.22,0.37,3.8
		c-0.54,0.54-1.35,0.29-2-0.73c-0.82-1.29-0.8-2.6,0.12-3.85c1.17-1.59,2.81-1.75,4.55-1.43c1.44,0.26,2.35,1.25,2.57,2.64
		C249.32,265.77,248.66,266.32,248.5,266.55z"/>
	<path class="st0" d="M280.82,214.97c-2.59-1.2-3.67-3.36-3.19-5.82c0.44-2.28,2.17-3.9,4.59-4.1c-1.04,1.57-2.59,2.94-2.82,4.5
		C279.17,211.16,280.24,212.96,280.82,214.97z"/>
	<path class="st0" d="M232.69,275.28c-0.55,0.08-1.12,0.27-1.66,0.21c-2.23-0.25-2.89,0.37-2.88,2.65c0,0.46-0.49,0.91-0.75,1.37
		c-0.38-0.42-0.99-0.79-1.09-1.27c-0.32-1.47,0.16-2.76,1.5-3.53c1.6-0.93,3.25-1.05,4.82-0.04
		C232.65,274.87,232.67,275.08,232.69,275.28z"/>
	<path class="st0" d="M259.38,256.38c-0.93-2.98,0.35-4.63,3.43-4.77C261.65,253.22,260.64,254.63,259.38,256.38z"/>
	<path class="st0" d="M128.63,220.94c-0.33-0.72-0.75-1.35-0.89-2.03c-0.09-0.42,0.24-0.93,0.38-1.4c0.43,0.27,1.02,0.45,1.26,0.84
		C129.94,219.26,130,220.21,128.63,220.94z"/>
	<path class="st0" d="M281.79,207.82c-0.27,1.45-0.49,2.66-0.74,4.04C279.71,210.24,279.91,209.07,281.79,207.82z"/>
	<path class="st0" d="M264.5,219.5c3.29,0.01,5.78,1.87,6.14,4.59c0.47,3.49-1.85,6.13-5.66,6.42c-3.78,0.29-6.61-1.95-6.77-5.36
		C258.07,221.89,260.74,219.48,264.5,219.5z M264.41,229.22c2.64,0.07,4.49-1.62,4.52-4.13c0.03-2.61-1.63-4.28-4.32-4.34
		c-2.7-0.06-4.62,1.55-4.75,3.98C259.71,227.47,261.39,229.14,264.41,229.22z"/>
	<path class="st0" d="M212.55,224.47c4.87,0.34,8.06,4.56,6.38,8.62c-1.02,2.46-3.96,4-7.31,3.83c-2.97-0.15-5.08-1.74-5.83-4.4
		c-0.69-2.43,0.21-5.21,2.45-6.54C209.52,225.21,211.1,224.95,212.55,224.47z M212.49,235.69c2.86,0.03,4.86-1.93,4.87-4.78
		c0.01-2.78-1.93-4.83-4.61-4.86c-3.19-0.04-5.27,1.86-5.27,4.8C207.47,233.78,209.41,235.66,212.49,235.69z"/>
	<path class="st0" d="M212.66,244.21c5.51-0.16,8.13,5.23,6.04,8.85c-1.65,2.87-6.38,4.24-9.63,2.75c-2.91-1.34-4.22-4.67-3.03-7.72
		C207.02,245.53,209.29,244.2,212.66,244.21z M212.49,255.08c2.89,0.02,4.95-1.95,4.91-4.67c-0.05-2.98-1.88-4.9-4.7-4.91
		c-3.02-0.01-5.22,1.91-5.27,4.62C207.38,253.08,209.4,255.06,212.49,255.08z"/>
	<path class="st0" d="M240.06,247.98c0.02-4.43,2.68-7.27,6.8-7.27c2.97,0,5.76,2.95,5.74,6.04c-0.03,4-3.12,7.45-6.67,7.47
		C242.25,254.23,240.04,251.88,240.06,247.98z M241.35,247.64c0.09,2.75,2.4,4.89,5.15,4.76c2.65-0.13,4.55-2.35,4.45-5.22
		c-0.1-2.87-2.18-4.9-4.88-4.78C243.38,242.52,241.26,244.88,241.35,247.64z"/>
	<path class="st0" d="M222.6,260.68c0.26-4.54,2.98-7.35,6.9-7.11c3.39,0.2,5.86,3.03,5.62,6.42c-0.3,4.3-3.31,7.23-7.18,7
		C224.45,266.78,222.39,264.34,222.6,260.68z M233.52,260.08c0.04-2.79-2-4.84-4.83-4.86c-2.57-0.02-4.75,2.26-4.77,5.01
		c-0.03,2.86,2.05,4.99,4.9,5.01C231.66,265.25,233.47,263.27,233.52,260.08z"/>
	<path class="st0" d="M212.75,262.01c4.06,0.01,7.18,3.4,6.62,7.16c-0.51,3.4-4.95,5.85-8.85,4.89c-3.84-0.94-5.76-4.22-4.59-7.81
		C206.8,263.59,209.37,261.99,212.75,262.01z M212.75,263.44c-3.11-0.06-5.21,1.76-5.28,4.59c-0.07,2.86,1.97,4.9,4.95,4.95
		c2.89,0.05,4.95-1.84,5.09-4.65C217.64,265.64,215.55,263.49,212.75,263.44z"/>
	<path class="st0" d="M212.18,218.47c-3.49,0.04-5.92-2.12-5.97-5.32c-0.05-3.31,2.48-5.64,6.11-5.66c3.62-0.02,6.21,2.17,6.27,5.29
		C218.66,216.24,216.21,218.42,212.18,218.47z M212.27,217.26c2.91-0.02,4.53-1.53,4.55-4.25c0.02-2.82-1.46-4.27-4.35-4.26
		c-2.72,0.01-4.55,1.65-4.57,4.11C207.87,215.67,209.47,217.28,212.27,217.26z"/>
	<path class="st0" d="M235.84,227.37c-0.02,2.8-3.08,5.24-6.48,5.18c-3.36-0.06-5.96-2.46-5.97-5.49c-0.01-3.26,2.78-5.72,6.42-5.66
		C233.46,221.47,235.87,223.85,235.84,227.37z M229.88,231.32c2.37,0.01,4.17-1.82,4.23-4.31c0.06-2.66-1.83-4.34-4.92-4.35
		c-2.18-0.01-4.09,2-4.09,4.29C225.11,229.6,226.97,231.31,229.88,231.32z"/>
	<path class="st0" d="M229.45,248.18c-3.3-0.04-5.84-2.35-5.86-5.33c-0.02-3.34,2.64-5.85,6.21-5.85c3.65,0,6.35,2.47,6.27,5.75
		C235.99,245.88,233.13,248.22,229.45,248.18z M229.94,238.39c-2.91,0.01-4.78,1.75-4.71,4.4c0.06,2.52,1.84,4.11,4.6,4.12
		c2.61,0.01,4.43-1.74,4.46-4.27C234.32,240.03,232.64,238.39,229.94,238.39z"/>
	<path class="st0" d="M265.87,204.29c3.76-0.01,6.46,2.46,6.24,5.71c-0.22,3.27-2.96,5.4-6.75,5.24c-3.5-0.15-5.81-2.32-5.7-5.39
		C259.78,206.43,262.16,204.3,265.87,204.29z M265.83,214.02c2.88,0,4.42-1.43,4.44-4.13c0.03-2.75-1.51-4.32-4.24-4.35
		c-2.83-0.03-4.64,1.59-4.68,4.19C261.3,212.5,262.88,214.02,265.83,214.02z"/>
	<path class="st0" d="M233.23,200.76c-3.39,0.03-5.94-2.29-5.93-5.39c0.01-3.25,2.76-5.73,6.38-5.73c3.3,0,6.1,2.59,6.08,5.64
		C239.73,198.51,237.1,200.73,233.23,200.76z M233.44,199.55c2.79,0,4.52-1.69,4.48-4.36c-0.04-2.64-1.58-4.17-4.21-4.18
		c-3.07-0.01-4.74,1.61-4.72,4.56C229.02,198.02,230.73,199.56,233.44,199.55z"/>
	<path class="st0" d="M230.24,216.97c-3.89-0.05-7.02-3.02-6.95-6.59c0.05-2.9,2.5-5.17,5.56-5.15c3.48,0.02,6.58,3.19,6.5,6.66
		C235.28,214.77,233.04,217.01,230.24,216.97z M224.8,210.87c-0.05,2.38,2.06,4.62,4.41,4.71c2.47,0.09,4.55-1.91,4.6-4.42
		c0.04-2.2-2.15-4.41-4.43-4.49C226.92,206.6,224.84,208.51,224.8,210.87z"/>
	<path class="st0" d="M247.53,216.96c-3.38-0.01-5.9-2.38-5.83-5.51c0.07-3.19,2.65-5.5,6.13-5.5c3.85,0,6.38,2.32,6.37,5.83
		C254.19,214.66,251.21,216.97,247.53,216.96z M247.85,215.74c2.73,0,4.56-1.75,4.52-4.33c-0.04-2.55-1.81-4.22-4.45-4.2
		c-2.75,0.02-4.53,1.74-4.53,4.37C243.39,214.09,245.15,215.74,247.85,215.74z"/>
	<path class="st0" d="M253.89,229.85c-0.02,2.73-3.08,5.16-6.52,5.16c-3.39,0-6.01-2.46-5.98-5.62c0.04-3.14,2.81-5.6,6.31-5.59
		C251.4,223.81,253.92,226.27,253.89,229.85z M247.84,233.74c2.42,0.02,4.21-1.82,4.18-4.31c-0.03-2.75-1.71-4.26-4.76-4.25
		c-2.33,0-4.17,1.86-4.15,4.18C243.14,232.11,244.88,233.72,247.84,233.74z"/>
	<path class="st0" d="M254.28,200.76c-3.43,0.01-5.88-2.25-5.89-5.45c-0.01-3.27,2.76-5.7,6.43-5.65c3.41,0.05,5.98,2.38,6.01,5.44
		C260.86,198.49,258.24,200.74,254.28,200.76z M254.79,191.01c-2.97,0.02-4.79,1.67-4.78,4.33c0.01,2.51,1.96,4.26,4.71,4.23
		c2.58-0.03,4.31-1.81,4.3-4.42C259.01,192.58,257.39,190.99,254.79,191.01z"/>
	<path class="st0" d="M206.26,195.46c-0.04-3.43,2.37-5.66,6.21-5.77c3.23-0.09,6.11,2.49,6.19,5.53c0.08,3.14-2.67,5.49-6.5,5.57
		C208.66,200.85,206.29,198.71,206.26,195.46z M212.43,191.05c-2.81,0.02-4.63,1.72-4.59,4.28c0.05,2.63,1.83,4.27,4.63,4.25
		c2.63-0.01,4.29-1.68,4.32-4.34C216.83,192.6,215.19,191.03,212.43,191.05z"/>
	<path class="st0" d="M275.81,192.11c2.2,0.03,3.55,1.29,3.49,3.25c-0.05,1.76-1.51,3.17-3.28,3.15c-2.4-0.02-4.02-1.36-3.96-3.29
		C272.12,193.45,273.76,192.09,275.81,192.11z M276.13,197.08c0.98,0.05,1.56-0.73,1.53-1.98c-0.03-1.21-0.79-1.85-1.95-1.79
		c-1.09,0.05-2,0.56-1.98,1.81C273.74,196.34,274.4,197.1,276.13,197.08z"/>
	<path class="st0" d="M264.59,228.19c-2.52-0.09-3.84-1.19-3.79-3.15c0.05-1.91,1.58-3.22,3.66-3.13c2.38,0.1,3.65,1.22,3.55,3.14
		C267.91,227.05,266.59,228.26,264.59,228.19z M264.28,222.3c-0.86,1.23-1.64,1.87-1.71,2.58c-0.12,1.27,0.75,2.28,2.04,2.01
		c0.71-0.15,1.7-1.25,1.69-1.91C266.29,224.25,265.27,223.54,264.28,222.3z"/>
	<path class="st0" d="M212.52,227.42c2.42-0.02,3.81,1.2,3.84,3.37c0.03,2.12-1.52,3.66-3.66,3.63c-2.61-0.03-4.35-1.39-4.37-3.41
		C208.3,228.95,210.05,227.44,212.52,227.42z M214.63,230.58c-0.21-1.11-0.91-1.78-2.27-1.72c-1.32,0.06-2.17,0.65-2.13,2.02
		c0.04,1.38,0.85,2.15,2.27,2.16C214,233.03,214.52,232.08,214.63,230.58z"/>
	<path class="st0" d="M216.31,250.15c0.03,2.29-1.25,3.61-3.53,3.66c-2.65,0.06-4.45-1.37-4.42-3.49c0.03-1.93,1.73-3.45,3.9-3.5
		C214.76,246.76,216.29,248.02,216.31,250.15z M212.89,252.39c1.12,0.01,1.72-0.89,1.72-2.13c0-1.46-0.98-2.07-2.33-2.05
		c-1.2,0.02-2.01,0.61-2.1,1.89C210.1,251.35,211.23,252.39,212.89,252.39z"/>
	<path class="st0" d="M242.48,247.76c-0.04-2.28,1.7-4.19,3.85-4.21c2.07-0.02,3.49,1.31,3.52,3.28c0.03,2.42-1.74,4.52-3.81,4.53
		C244.09,251.37,242.51,249.76,242.48,247.76z M248.47,246.68c-0.59-0.39-1.32-1.22-2.16-1.35c-1.37-0.2-2.24,0.83-2.3,2.15
		c-0.06,1.31,0.83,2.06,2.15,2.05C247.62,249.53,248.2,248.57,248.47,246.68z"/>
	<path class="st0" d="M225.13,260.29c0.02-2.18,1.75-3.93,3.87-3.93c1.91,0,3.46,1.54,3.44,3.41c-0.03,2.5-1.73,4.39-3.91,4.36
		C226.48,264.09,225.11,262.55,225.13,260.29z M228.48,262.37c1.85-0.04,2.44-1.02,2.44-2.31c0-1.4-0.97-1.91-2.26-1.84
		c-1.37,0.07-2.03,0.93-2.03,2.18C226.63,261.75,227.49,262.37,228.48,262.37z"/>
	<path class="st0" d="M212.59,271.7c-2.36,0.01-4.17-1.43-4.21-3.36c-0.05-2,1.72-3.66,3.92-3.68c2.43-0.03,4.1,1.43,4.13,3.6
		C216.45,270.28,214.87,271.7,212.59,271.7z M212.4,266.1c-1.39,0.01-2.21,0.65-2.19,2.02c0.03,1.43,0.96,2.12,2.3,2.17
		c1.36,0.05,2.08-0.74,2.11-2.07C214.66,266.72,213.71,266.16,212.4,266.1z"/>
	<path class="st0" d="M212.54,216.17c-2.39-0.03-3.89-1.25-3.86-3.12c0.03-1.81,1.65-3.18,3.68-3.13c2.37,0.06,3.48,1,3.48,2.92
		C215.83,215.06,214.71,216.2,212.54,216.17z M211.92,210.85c-0.51,0.68-1.34,1.31-1.44,2.04c-0.2,1.33,0.73,2.09,2.06,2.08
		c1.18-0.01,1.85-0.7,1.86-1.9C214.39,211.76,213.65,211.16,211.92,210.85z"/>
	<path class="st0" d="M229.83,223.86c2.01,0.01,3.33,1.17,3.36,2.96c0.04,2.11-1.29,3.35-3.57,3.32c-2.29-0.03-3.6-1.16-3.61-3.11
		C226.01,225.11,227.54,223.85,229.83,223.86z M229.28,229.2c1.66-0.39,2.3-1.06,2.26-2.24c-0.04-1.17-0.81-2.04-1.91-1.78
		c-0.75,0.18-1.8,1.14-1.83,1.78C227.77,227.69,228.74,228.46,229.28,229.2z"/>
	<path class="st0" d="M229.83,245.84c-2.4-0.09-3.68-1.28-3.59-3.32c0.09-1.9,1.63-3.19,3.69-3.1c2.12,0.09,3.49,1.46,3.42,3.38
		C233.29,244.62,231.78,245.92,229.83,245.84z M229.94,239.87c-1.03,1.22-2.01,1.85-2.08,2.58c-0.12,1.19,0.71,2.09,2.1,2.07
		c1.26-0.02,1.89-0.85,1.69-1.94C231.49,241.8,230.76,241.13,229.94,239.87z"/>
	<path class="st0" d="M266.07,206.73c2.05,0.02,3.37,1.27,3.33,3.18c-0.04,1.84-1.46,3.1-3.49,3.09c-2.13-0.01-3.67-1.33-3.68-3.15
		C262.21,207.95,263.75,206.71,266.07,206.73z M266.19,207.65c-0.29,0-0.58,0.01-0.87,0.01c-0.5,0.71-1.52,1.58-1.37,2.08
		c0.25,0.81,1.2,1.78,2.01,1.95c1.25,0.27,2.02-0.86,1.81-2C267.64,208.94,266.75,208.32,266.19,207.65z"/>
	<path class="st0" d="M229.9,195.43c-0.03-1.95,1.39-3.3,3.48-3.32c2.19-0.02,3.71,1.23,3.76,3.07c0.04,1.75-1.56,3.33-3.36,3.32
		C231.28,198.5,229.93,197.43,229.9,195.43z M235.39,195.28c0.06-1.25-0.62-1.9-1.77-1.95c-1.21-0.05-2.13,0.59-2.15,1.84
		c-0.02,1.23,0.75,1.89,2.06,1.89C234.77,197.08,235.39,196.52,235.39,195.28z"/>
	<path class="st0" d="M232.87,211.46c0,1.57-1.55,3.04-3.22,3.05c-2.01,0.02-3.88-1.83-3.87-3.81c0.02-1.66,1.48-2.99,3.23-2.95
		C230.88,207.81,232.87,209.72,232.87,211.46z M229.73,208.87c-0.3,0-0.6,0-0.89-0.01c-0.47,0.73-1.2,1.42-1.34,2.2
		c-0.21,1.23,0.6,1.98,1.87,2.03c1.28,0.05,1.95-0.86,1.8-1.89C231.05,210.38,230.23,209.65,229.73,208.87z"/>
	<path class="st0" d="M244.34,211.41c0.01-1.75,1.53-3.05,3.53-3.02c2.28,0.03,3.61,1.21,3.55,3.16c-0.05,1.77-1.46,3.14-3.25,3.15
		C245.67,214.72,244.32,213.56,244.34,211.41z M248.26,209.29c-0.28,0.01-0.57,0.01-0.85,0.02c-0.53,0.7-1.43,1.36-1.5,2.09
		c-0.11,1.25,0.88,2.21,2.12,1.95c0.71-0.15,1.68-1.2,1.71-1.88C249.76,210.76,248.79,210.02,248.26,209.29z"/>
	<path class="st0" d="M247.87,226.27c2.05,0.03,3.31,1.3,3.25,3.25c-0.06,1.88-1.48,3.15-3.44,3.11c-2.25-0.05-3.75-1.28-3.75-3.06
		C243.92,227.58,245.54,226.23,247.87,226.27z M247.16,231.58c0.31,0.01,0.62,0.01,0.93,0.02c0.5-0.71,1.29-1.38,1.43-2.15
		c0.19-1.12-0.64-2.07-1.78-1.84c-0.77,0.15-1.86,1.03-1.93,1.68C245.73,229.99,246.66,230.81,247.16,231.58z"/>
	<path class="st0" d="M254.93,198.51c-2.44-0.03-4.04-1.31-4.03-3.21c0.01-1.77,1.66-3.21,3.67-3.18c2.17,0.03,3.63,1.34,3.56,3.2
		C258.06,197.17,256.69,198.54,254.93,198.51z M254.16,197.4c0.28,0,0.56,0.01,0.85,0.01c0.52-0.69,1.34-1.31,1.49-2.07
		c0.23-1.2-0.58-2-1.83-2.02c-1.18-0.02-2.24,0.53-2.03,1.81C252.77,195.95,253.63,196.65,254.16,197.4z"/>
	<path class="st0" d="M215.84,195.31c0.03,1.8-1.22,3.16-2.95,3.19c-2.41,0.05-4.21-1.26-4.2-3.05c0.02-1.89,1.54-3.29,3.59-3.31
		C214.59,192.11,215.8,193.19,215.84,195.31z M211.87,197.19c2.07-0.01,2.67-1.02,2.39-2.09c-0.19-0.71-1.2-1.59-1.94-1.69
		c-1.08-0.15-2.2,0.61-1.87,1.92C210.66,196.16,211.56,196.8,211.87,197.19z"/>
	<g>
		<path class="st0" d="M210.54,137.48h9.5l8.55,17.38l8.49-17.38h8.96v0.6h-0.83c-1.4,0-2.44,0.34-3.11,1.02
			c-0.68,0.68-1.02,1.72-1.02,3.11v13.22c0,1.39,0.34,2.42,1.02,3.11c0.68,0.68,1.72,1.02,3.11,1.02h0.83v0.63h-14.68v-0.63h0.98
			c1.39,0,2.42-0.34,3.1-1.02c0.68-0.68,1.02-1.72,1.02-3.11v-15.45h-0.07l-9.75,20.21h-0.55l-9.87-20.15h-0.06v14.65
			c0,1.02,0.19,1.88,0.58,2.59s0.96,1.26,1.72,1.64c0.76,0.39,1.68,0.59,2.76,0.63v0.63h-10.67v-0.63h0.23
			c1.46,0,2.61-0.43,3.45-1.28c0.83-0.86,1.25-2.02,1.25-3.48v-12.58c0-1.41-0.34-2.45-1.01-3.12c-0.67-0.67-1.71-1.01-3.12-1.01
			h-0.8V137.48z"/>
		<path class="st0" d="M274.02,137.61h0.6l0.16,9.8h-0.54c-0.37-1.18-0.71-2.12-1.02-2.82c-0.31-0.7-0.66-1.31-1.04-1.85
			c-1.06-1.55-2.4-2.77-4.02-3.67c-1.62-0.9-3.29-1.35-5-1.35c-0.89,0-1.77,0.16-2.65,0.49s-1.59,0.76-2.13,1.3
			c-0.9,0.9-1.55,2.14-1.96,3.72s-0.61,3.63-0.61,6.13c0,0.75,0.03,1.49,0.1,2.23c0.06,0.74,0.15,1.39,0.26,1.96
			c0.11,0.57,0.24,1.13,0.41,1.67c0.16,0.55,0.34,0.99,0.54,1.34c0.34,0.56,0.72,1.06,1.15,1.48c0.43,0.42,0.93,0.79,1.51,1.11
			c0.58,0.31,1.2,0.54,1.85,0.69s1.33,0.22,2.05,0.22c0.92,0,1.84-0.12,2.76-0.35c0.92-0.23,1.66-0.54,2.23-0.92
			c1.07-0.74,1.61-1.72,1.61-2.96v-1.17c0-2.75-1.38-4.13-4.13-4.13h-1.97v-0.6h15.54v0.6h-0.52c-1.4,0-2.44,0.34-3.11,1.02
			c-0.68,0.68-1.02,1.72-1.02,3.11V160h-0.6c-0.49-0.46-0.91-0.76-1.28-0.91s-0.82-0.23-1.36-0.23c-0.48,0-0.92,0.05-1.33,0.14
			c-0.41,0.09-0.97,0.29-1.7,0.59c-1.18,0.42-2.12,0.71-2.81,0.85c-0.69,0.15-1.54,0.22-2.55,0.22c-1.91,0-3.69-0.29-5.34-0.86
			c-1.65-0.57-3.09-1.39-4.31-2.45c-1.22-1.06-2.17-2.3-2.84-3.73s-1.01-2.97-1.01-4.62c0-1,0.13-1.98,0.39-2.95
			c0.26-0.97,0.63-1.87,1.12-2.71c0.49-0.83,1.09-1.63,1.82-2.37c0.85-0.83,1.77-1.54,2.79-2.11c1.01-0.57,2.09-1.02,3.22-1.33
			s2.26-0.47,3.39-0.47c1.13,0,2.23,0.14,3.31,0.43c1.08,0.29,2.26,0.75,3.55,1.39c0.96,0.49,1.64,0.73,2.03,0.73
			c0.4,0,0.79-0.16,1.18-0.47C273.13,138.83,273.55,138.32,274.02,137.61z"/>
	</g>
	<g id="XMLID_4_">
		<g>
			<path class="st0" d="M297.49,147.88c0.24,7.12,0.33,14.25,0.11,21.37c-0.19,6.51-0.83,13.01-1.36,19.5
				c-0.45,5.56-0.86,11.13-1.58,16.65c-0.73,5.55-1.8,11.07-2.74,16.59c-1.24,7.29-4.49,13.75-8.27,19.98
				c-2.57,4.22-4.99,8.56-7.9,12.54c-4.67,6.41-9.42,12.81-15.85,17.7c-1.53,1.16-2.66,2.92-4.29,3.89
				c-2.49,1.49-5.37,2.35-7.88,3.81c-3.6,2.1-7.23,4.24-10.46,6.85c-4.93,3.97-9.4,8.5-14.28,12.54c-4.29,3.53-8.67,6.95-14.27,8.47
				c-3.03,0.82-5.63,0.03-7.99-1.33c-3.03-1.74-5.91-3.85-8.52-6.17c-5.39-4.79-10.35-10.09-15.9-14.69
				c-4.53-3.75-9.9-6.28-15.51-8.28c-3.34-1.18-6.94-2.31-9.64-4.45c-3.95-3.13-7.4-6.95-10.66-10.83c-2.78-3.3-5.1-7.01-7.42-10.67
				c-2.86-4.49-5.7-9-8.21-13.69c-4.11-7.67-8.26-15.37-9.72-24.12c-0.85-5.17-1.62-10.36-2.26-15.56
				c-0.7-5.71-1.28-11.44-1.78-17.16c-0.51-6.02-0.86-12.06-1.28-18.08c0.21-0.02,0.42-0.03,0.64-0.05
				c-0.48-7.41-1.09-14.82-1.39-22.24c-0.16-3.87,0.09-7.78,0.36-11.66c0.54-7.73,1.19-15.45,1.86-23.17
				c0.41-4.74,0.96-9.47,1.4-14.21c0.1-1.06,0.1-2.15,0.01-3.21c-0.14-1.75,0.25-2.27,1.98-1.97c4.17,0.7,8.31,1.52,12.48,2.23
				c6.15,1.03,12.34,1.87,18.47,3.04c8.26,1.57,16.07-0.51,23.86-2.7c2.87-0.8,5.88-1.65,8.36-3.22c2.45-1.56,5.02-3.08,6.8-5.75
				c3.04-4.55,6.34-8.97,10-13.02c4.19-4.65,10.81-4.16,14.54-0.26c3.17,3.32,6.19,6.9,8.56,10.8c3.15,5.17,7.73,7.81,13.22,9.56
				c7.69,2.45,15.55,3.19,23.56,3.09c4.29-0.05,8.58,0.24,12.88,0.23c5.72-0.01,11.19-1.33,16.46-3.56c2.07-0.88,4.16-1.7,6.26-2.5
				c1.49-0.57,2.06-0.13,2.22,1.41c0.61,5.97,1.31,11.93,1.89,17.91c0.39,4.06,0.66,8.14,0.95,12.21
				c0.36,5.06,0.66,10.12,1.03,15.17C296.64,136.54,297.29,142.2,297.49,147.88z M286.72,168.12c0.26-6.14,0.35-12.3,0.02-18.43
				c-0.47-8.77-1.41-17.53-2.11-26.29c-0.43-5.41-0.77-10.83-1.21-16.23c-0.22-2.59-0.57-5.17-0.84-7.61
				c-3.63,0.57-6.83,1.32-10.07,1.53c-3.87,0.26-7.77,0-11.65,0.07c-11.97,0.24-23.84-0.17-35.32-4.2
				c-6.83-2.39-12.53-6.07-16.51-12.26c-2.06-3.2-4.41-6.21-6.88-9.65c-1.61,2.11-3.06,3.63-4.06,5.41
				c-2.34,4.16-5.38,7.71-8.88,10.93c-3.89,3.59-8.39,6.09-13.44,7.5c-4.78,1.34-9.61,2.51-14.46,3.54
				c-2.58,0.54-5.27,0.92-7.9,0.86c-9.66-0.26-19.14-2.07-28.61-3.84c-1.19-0.23-1.77-0.13-1.85,1.25c-0.18,2.89-0.5,5.77-0.73,8.66
				c-0.64,7.71-1.53,15.41-1.81,23.13c-0.21,5.91,0.41,11.85,0.59,17.78c0.18,6.32,0.15,12.65,0.46,18.96
				c0.39,8.03,0.81,16.07,1.62,24.07c0.76,7.56,1.99,15.05,3.8,22.47c1.02,4.16,3.22,7.68,4.72,11.55c1.59,4.14,4.2,7.89,6.46,11.76
				c2.54,4.35,5.17,8.65,7.83,12.94c0.62,1,1.35,2.4,2.29,2.67c1.88,0.53,2.09,2.17,3.04,3.32c0.55,0.66,0.99,1.46,1.64,1.99
				c1.4,1.15,2.88,2.19,4.36,3.22c1.41,0.98,2.75,2.14,4.3,2.8c3.33,1.43,6.8,2.54,10.17,3.89c1.74,0.69,3.46,1.49,5.05,2.46
				c1.34,0.82,2.34,2.37,3.75,2.88c4.4,1.6,6.51,5.78,10,8.4c2.57,1.92,4.41,4.78,6.81,6.95c2.13,1.91,4.49,3.62,6.94,5.1
				c2.29,1.37,4.78,0.88,6.84-0.66c2.94-2.19,5.73-4.59,8.54-6.94c1.81-1.51,3.62-3.03,5.32-4.66c1.95-1.85,3.73-3.87,5.68-5.72
				c0.94-0.89,2.11-1.55,3.18-2.3c1.21-0.84,2.42-1.7,3.65-2.51c0.81-0.53,1.69-0.95,2.51-1.46c0.47-0.3,0.83-0.81,1.33-1.01
				c1.29-0.54,3.14-0.57,3.86-1.5c1.63-2.12,4.38-1.75,6.26-3.64c2.12-2.13,4.73-3.78,6.4-6.42c0.15-0.24,0.55-0.32,0.81-0.51
				c0.35-0.26,0.7-0.54,1.02-0.85c0.47-0.46,0.92-0.95,1.36-1.43c0.5-0.55,1.05-1.07,1.44-1.69c0.77-1.22,1.22-2.69,2.19-3.69
				c1.4-1.46,2.65-2.93,3.49-4.78c0.28-0.62,1.14-0.94,1.56-1.52c1.15-1.65,2.47-3.25,3.25-5.07c1.93-4.52,6.02-8.08,6.07-13.45
				c0-0.16,0.16-0.34,0.28-0.48c1.63-2.1,1.88-4.7,2.48-7.13c0.65-2.64,0.95-5.37,1.31-8.07c0.31-2.25,0.45-4.52,0.73-6.78
				c0.33-2.68,0.8-5.34,1.09-8.02c0.2-1.85,0.17-3.72,0.3-5.58C285.7,182.59,286.41,175.36,286.72,168.12z"/>
		</g>
		<g>
		</g>
	</g>
	<g>
		<path class="st0" d="M150.86,5.01c2.01,1.05,4.22,1.86,5.94,3.26c0.66,0.54,0.23,2.43,0.3,3.75c3.55-2.41,6.65,0.91,10.27,1.34
			c-1.85,3.96-4.38,6.35-9.02,4.82c0,0.98,0,1.58,0,2.19c1.72-1.08,3.65-0.28,5.47,1.95c1.47-0.15,2.6-0.38,3.7-0.32
			c0.31,0.02,0.94,1.11,0.8,1.35c-0.58,1.02-1.39,1.9-2.1,2.81c-0.22,1.28-0.29,2.84-0.78,4.25c-0.51,1.46-1.58,1.58-2.46,0.28
			c-0.67-0.98-0.91-2.25-1.4-3.52c-0.19,0.04-0.58,0.13-1.26,0.28c1.33,3.07,2.41,6.09,3.9,8.89c1.54,2.9,5.81,4.18,8.61,2.62
			c0.91-0.51,1.36-1.93,1.9-3c0.2-0.41,0.05-0.99,0.05-1.5c0-3.07-0.13-3.06-3.01-1.97c-1.06,0.4-2.48,0.34-3.6,0.03
			c-1.5-0.42-1.51-1.33-0.34-2.49c1.7-1.69,3.33-3.46,5.45-3.11c0.58-1.79,0.87-3.32,1.59-4.6c0.24-0.43,1.8-0.58,2.4-0.24
			c1.66,0.95,2.03,2.58,1.03,4.88c2.66-1.03,4.42-0.31,5.73,1.48c0.48,0.65,1.2,1.98,1.08,2.08c-0.93,0.73-1.98,1.46-3.1,1.75
			c-0.84,0.21-1.88-0.12-2.77-0.4c-1.26-0.4-1.48,0.27-1.75,1.26c-0.74,2.74,1.02,4.21,2.8,5.64c0.67,0.54,1.54,1.14,2.33,1.16
			c3.33,0.1,6.61,0.99,10.01-0.16c3.57-1.21,5.77-3.49,7.02-6.9c0.26-0.7,0.54-1.39,0.84-2.08c0.59-1.34,0.18-2.41-0.77-3.44
			c-0.97-1.06-1.96-1.66-3.49-1.16c-1.27,0.42-1.62,0.86-0.86,2.14c1.54,2.62,1.36,3.95-0.1,5.65c-1.18,1.38-2.02,0.97-3.06-0.14
			c-1.77-1.9-4.04-3.47-3.76-6.13c-1.73-0.33-3.29-0.38-4.62-0.96c-0.9-0.39-2.2-1.66-2.07-2.25c0.22-0.98,1.31-2.07,2.3-2.48
			c1.32-0.54,2.88-0.48,3.82-0.6c1.05-1.66,1.92-3.17,2.91-4.58c0.58-0.82,1.51-1.4,2.01-2.24c1.01-1.7,1.8-0.75,2.34,0.19
			c1.14,1.97,0.86,4.03,0,6.07c-0.19,0.46-0.37,1.3-0.17,1.46c0.39,0.31,1.07,0.29,1.63,0.34c0.23,0.02,0.51-0.07,0.72-0.18
			c2.09-1.12,4.24-6.3,3.58-8.59c-0.63-2.19-0.73-2.29-2.84-1.41c-1.8,0.75-3.39,0.65-4.84-0.72c-0.65-0.61-0.9-1.06-0.05-1.82
			c1.83-1.63,3.56-3.34,5.88-3.39c0.46-1.66,0.77-3.28,1.4-4.75c0.22-0.5,1.24-0.82,1.93-0.92c1.35-0.2,2.71,2.71,2.64,5.73
			c3.29-0.16,5.17,2.05,7.19,4.46c-2.38,3-5.31,0.91-8.05,0.95c-1.09,1.53-0.82,3.26-0.21,4.81c0.68,1.73,1.74,3.32,2.71,4.93
			c0.76,1.26,1.86,1.31,3.08,0.73c-0.26-1.59-0.55-3.1-0.73-4.64c-0.09-0.8-0.08-1.65,0.07-2.44c0.36-1.82,1.47-2.22,2.77-0.95
			c2.05,2,4.55,3.76,4.3,6.77c1.86,0.4,3.59,0.6,5.15,1.2c0.67,0.26,1.46,1.46,1.37,2.11c-0.13,0.88-0.9,2.07-1.68,2.37
			c-1.45,0.56-3.12,0.57-4.87,0.83c0.28,3.2-2.34,5-4.6,6.98c-0.28,0.25-1.21,0.1-1.6-0.19c-1.38-1.02-1.86-3.61-1.14-5.33
			c0.31-0.75,0.59-1.5,0.93-2.37c-1.4-0.62-2.61-1.49-4.04-0.29c-1.82,1.52-2.15,2.55-1.1,4.73c1.02,2.12,1.92,4.41,3.42,6.16
			c2.62,3.06,6.37,3.18,10.1,2.87c0.81-0.07,1.63-0.33,2.43-0.28c2.6,0.17,4.15-1.61,5.74-3.14c0.63-0.61,0.97-1.75,1.04-2.68
			c0.16-2.37-0.34-2.57-2.58-2.02c-1.16,0.28-2.52,0.17-3.71-0.13c-1.49-0.38-1.46-1.26-0.9-2.68c1.08-2.74,3.24-2.94,5.83-2.74
			c-0.83-2-0.17-3.51,1.47-4.31c0.67-0.33,2.03-0.07,2.62,0.45c1.19,1.05,1.53,2.53,0.41,4.12c0.58,0.11,1.09,0.36,1.53,0.28
			c2.83-0.49,3.69,2.25,5.51,3.4c0.09,0.06-0.5,1.79-0.8,1.8c-1.68,0.05-3.37-0.16-5.05-0.35c-0.51-0.06-1-0.35-1.76-0.63
			c-0.07,2.41-0.91,4.52,0.87,6.48c1.57,1.73,6.34,2.1,8.1,0.46c1.77-1.66,3.09-3.58,3.65-6.01c0.28-1.21,0.87-2.35,1.2-3.55
			c0.13-0.46-0.08-1.02-0.13-1.53c-0.2-0.01-0.4-0.02-0.6-0.02c-0.15,0.49-0.25,1.01-0.47,1.47c-0.39,0.81-0.76,1.67-1.32,2.36
			c-1.01,1.26-1.79,0.66-2.08-0.57c-0.33-1.43-0.42-2.92-0.64-4.63c-1.62-0.36-2.26-1.67-1.94-4.01c1.3,0.08,2.61,0.17,4.39,0.28
			c1.18-1.08,2.65-3.04,5.42-1.74c0.18-1.39,0.02-2.2-1.72-1.87c-3.2,0.61-6.29-1.73-6.91-5.23c3.35-0.46,6.3-3.5,10.09-1.09
			c-0.7-3.78,0.81-5.45,6.55-7.4c0.18,2.2-0.43,4.13-1.15,6.11c-1.98,5.44-3.78,10.95-5.75,16.39c-1.12,3.11-2.58,6.1-3.62,9.23
			c-0.42,1.27-0.39,2.83-0.13,4.17c0.6,3.2-0.67,4.99-3.98,5.03c-6.94,0.08-13.88,0.08-20.82,0.14c-7.32,0.07-14.63,0.22-21.95,0.24
			c-4.82,0.01-9.64-0.19-14.45-0.24c-4.33-0.04-8.66,0.03-12.99,0.01c-1.88-0.01-3.77-0.07-5.65-0.17c-1.36-0.07-2.3-1.04-2.13-2.22
			c0.81-5.56-2.45-9.99-3.99-14.88c-1.61-5.1-3.54-10.09-5.25-15.16c-0.87-2.57-1.55-5.21-2.31-7.82
			C150.41,5.4,150.64,5.2,150.86,5.01z"/>
		<path class="st0" d="M164.07,47.16c5.3,0.23,10.5,0.51,15.71,0.68c5.67,0.18,11.33,0.3,17,0.35c6.3,0.06,12.6,0.17,18.89,0
			c7.66-0.21,15.32-0.71,22.97-1.06c2.51-0.11,2.73,0.18,2.24,2.65c-0.56,2.84-0.56,2.77-3.37,3.11
			c-10.34,1.24-20.73,0.96-31.11,0.98c-8.18,0.01-16.37,0.12-24.55-0.03c-5.03-0.09-10.04-0.67-15.07-0.88
			c-1.91-0.08-2.45-1.22-2.68-2.71C163.96,49.33,164.07,48.37,164.07,47.16z"/>
		<path class="st0" d="M228.39,60.16c-9.02,0-18.04,0.11-27.05-0.03c-11.09-0.17-22.19-0.52-33.28-0.85
			c-1.1-0.03-2.56,0.09-2.71-1.64c-0.11-1.33,0.22-2.09,1.88-2.03c8.37,0.3,16.74,0.6,25.12,0.68c10.86,0.1,21.71,0.07,32.57-0.06
			c4.08-0.05,8.14-0.53,12.22-0.79c2.35-0.15,3.06,0.48,2.5,2.38c-0.17,0.57-0.91,1.32-1.45,1.38c-3.26,0.31-6.53,0.44-9.8,0.63
			C228.39,59.93,228.39,60.05,228.39,60.16z"/>
	</g>
</g>
</svg>
